<svg width="27" height="27" viewBox="0 0 27 27" fill="none" xmlns="http://www.w3.org/2000/svg">
<path fill-rule="evenodd" clip-rule="evenodd" d="M13.5 0C6.04082 0 0 6.04082 0 13.5C0 20.9592 6.04082 27 13.5 27C20.9592 27 27 20.9592 27 13.5C27 6.05103 20.949 0 13.5 0ZM18.1633 14.2245L11.4082 18.4388C11.2755 18.5204 11.1123 18.5714 10.9592 18.5714C10.8163 18.5714 10.6735 18.5408 10.551 18.4694C10.2857 18.3163 10.1122 18.0408 10.1122 17.7347V9.29593C10.1122 8.9898 10.2755 8.70409 10.551 8.56123C10.8163 8.40817 11.1429 8.41836 11.4082 8.58163L18.1633 12.7959C18.4082 12.949 18.5612 13.2245 18.5612 13.5102C18.5612 13.7959 18.4082 14.0714 18.1633 14.2245Z" fill="white"/>
</svg>
