<svg width="23" height="25" viewBox="0 0 23 25" fill="none" xmlns="http://www.w3.org/2000/svg">
<path d="M13.8835 12.4104C13.8835 11.9964 13.5375 11.6606 13.1101 11.66C10.1447 11.6558 7.7285 9.31484 7.72409 6.44177C7.72346 6.0278 7.37688 5.69248 6.9496 5.69248C6.52232 5.69248 6.17573 6.02776 6.1751 6.44177C6.17069 9.31484 3.75451 11.6558 0.789008 11.66C0.361728 11.6606 0.015625 11.9964 0.015625 12.4104C0.015625 12.8244 0.361631 13.1601 0.78896 13.1608C3.75451 13.1651 6.17069 15.506 6.1751 18.379C6.17573 18.793 6.52232 19.1283 6.9496 19.1283C7.37688 19.1283 7.72346 18.793 7.72409 18.379C7.7285 15.506 10.1447 13.1651 13.1102 13.1608C13.5375 13.1601 13.8835 12.8244 13.8835 12.4104ZM8.20878 13.6303C7.69655 14.1266 7.27421 14.6868 6.94964 15.2925C6.62508 14.6868 6.20274 14.1266 5.69051 13.6303C5.17827 13.1341 4.60002 12.7248 3.9749 12.4104C4.60006 12.0959 5.17827 11.6868 5.69051 11.1905C6.20274 10.6942 6.62508 10.134 6.94964 9.52837C7.27421 10.134 7.69655 10.6942 8.20878 11.1905C8.72101 11.6868 9.29922 12.0959 9.92439 12.4104C9.29922 12.7248 8.72101 13.1341 8.20878 13.6303ZM21.4668 18.4C19.5564 18.3972 17.9998 16.8892 17.9969 15.0382C17.9962 14.6242 17.6497 14.2889 17.2224 14.2889C16.7951 14.2889 16.4486 14.6242 16.4479 15.0382C16.4451 16.8892 14.8885 18.3972 12.978 18.4C12.5507 18.4007 12.2047 18.7364 12.2047 19.1504C12.2047 19.5644 12.5507 19.9001 12.978 19.9008C14.8885 19.9035 16.4451 21.4116 16.4479 23.2625C16.4486 23.6766 16.7951 24.0118 17.2224 24.0118C17.6497 24.0118 17.9962 23.6766 17.9969 23.2625C17.9998 21.4116 19.5564 19.9035 21.4668 19.9008C21.8941 19.9001 22.2402 19.5644 22.2402 19.1504C22.2402 18.7364 21.8941 18.4006 21.4668 18.4ZM17.2225 20.6753C16.8208 20.0603 16.2832 19.5395 15.6485 19.1503C16.2832 18.7612 16.8208 18.2404 17.2225 17.6254C17.6241 18.2404 18.1617 18.7612 18.7965 19.1503C18.1617 19.5395 17.6241 20.0603 17.2225 20.6753ZM22.2101 4.83115C19.8904 4.82782 18.0004 2.99669 17.997 0.74929C17.9963 0.335227 17.6497 0 17.2225 0C16.7952 0 16.4487 0.335227 16.448 0.74929C16.4445 2.99669 14.5545 4.82782 12.2349 4.83115C11.8076 4.83181 11.4615 5.16755 11.4615 5.58152C11.4615 5.99549 11.8075 6.33123 12.2349 6.33189C14.5545 6.33522 16.4445 8.16635 16.448 10.4137C16.4487 10.8277 16.7952 11.163 17.2225 11.163C17.6497 11.163 17.9963 10.8278 17.997 10.4137C18.0004 8.16635 19.8904 6.33522 22.2101 6.33189C22.6374 6.33123 22.9835 5.99549 22.9835 5.58152C22.9835 5.16755 22.6374 4.83176 22.2101 4.83115ZM17.2225 7.62707C16.7143 6.77891 15.9866 6.07385 15.1111 5.58152C15.9866 5.08918 16.7143 4.3841 17.2225 3.53592C17.7306 4.3841 18.4584 5.08918 19.3338 5.58152C18.4584 6.0738 17.7306 6.77888 17.2225 7.62707Z" fill="#4A605F"/>
</svg>
