<svg width="18" height="22" viewBox="0 0 18 22" fill="none" xmlns="http://www.w3.org/2000/svg">
<path fill-rule="evenodd" clip-rule="evenodd" d="M8.96278 0L17.0897 4.48798V17.5023L8.96278 21.9903L0.835938 17.5023V4.48798L8.96278 0ZM8.28928 1.85968L2.85643 4.85993L5.55039 6.34769L8.28928 4.83513V1.85968ZM8.96278 5.95094L6.22389 7.4635V14.5268L8.96278 16.0394L11.7017 14.5268V7.4635L8.96278 5.95094ZM13.0487 7.4635V14.5268L15.7427 16.0146V5.97574L13.0487 7.4635ZM15.0692 4.85993L9.63628 1.85968V4.83513L12.3752 6.34769L15.0692 4.85993ZM15.0692 17.1304L12.3752 15.6426L9.63628 17.1552V20.1307L15.0692 17.1304ZM8.28928 20.1307V17.1552L5.55039 15.6426L2.85642 17.1304L8.28928 20.1307ZM2.18294 16.0146V5.97574L4.87689 7.46349V14.5268L2.18294 16.0146Z" fill="#4A605F"/>
</svg>
