<svg width="25" height="25" viewBox="0 0 25 25" fill="none" xmlns="http://www.w3.org/2000/svg">
<path d="M5.67858 24.0118H18.3411V7.73819C18.3411 5.54312 17.1897 3.49264 15.3252 2.34411C14.841 0.979889 13.538 0 12.0098 0C10.4816 0 9.17863 0.979889 8.69441 2.34411C6.82993 3.49264 5.67858 5.54312 5.67858 7.73819V24.0118ZM9.89941 3.51736C9.89941 2.35368 10.8461 1.40694 12.0098 1.40694C13.1735 1.40694 14.1202 2.35368 14.1202 3.51736V10.1034C12.1086 10.9657 10.6504 10.4677 9.89941 10.1163V3.51736ZM7.08552 7.73819C7.08552 6.4385 7.60482 5.2041 8.49246 4.29432V10.9868C9.44497 11.4638 10.3874 11.9905 11.9368 11.9905C13.8648 11.9905 15.3022 11.0711 15.5272 10.9868V4.29432C16.4148 5.20405 16.9341 6.4385 16.9341 7.73819V22.6049H7.08552V7.73819Z" fill="#4A605F"/>
<path d="M8.49246 15.5233H15.5272V16.9302H8.49246V15.5233ZM8.49246 18.3372H15.5272V19.7441H8.49246V18.3372ZM20.4984 0C20.4984 1.16368 19.5516 2.11041 18.388 2.11041V3.51736C19.5516 3.51736 20.4984 4.46409 20.4984 5.62777H21.9053C21.9053 4.46409 22.8521 3.51736 24.0157 3.51736V2.11041C22.8521 2.11041 21.9053 1.16368 21.9053 0H20.4984ZM21.2019 3.51956C21.0011 3.25225 20.7635 3.01467 20.4962 2.81389C20.7635 2.61309 21.0011 2.37551 21.2019 2.10821C21.4026 2.37552 21.6402 2.6131 21.9075 2.81389C21.6402 3.01469 21.4027 3.25226 21.2019 3.51956ZM0.00390625 3.51736C1.16759 3.51736 2.11432 4.46409 2.11432 5.62777H3.52126C3.52126 4.46409 4.468 3.51736 5.63168 3.51736V2.11041C4.468 2.11041 3.52126 1.16368 3.52126 0H2.11432C2.11432 1.16368 1.16759 2.11041 0.00390625 2.11041V3.51736ZM2.81779 2.10821C3.01859 2.37551 3.25617 2.61309 3.52347 2.81389C3.25617 3.01469 3.01859 3.25226 2.81779 3.51956C2.61699 3.25226 2.37942 3.01469 2.11212 2.81389C2.37942 2.61309 2.61699 2.37551 2.81779 2.10821Z" fill="#4A605F"/>
</svg>
