<svg width="25" height="24" viewBox="0 0 25 24" fill="none" xmlns="http://www.w3.org/2000/svg">
<path d="M19.431 6.74268L15.4848 6.141L13.72 2.3889C13.0383 0.939569 11.0672 0.94001 10.3858 2.38885L8.62102 6.14095L4.67482 6.74268C3.15042 6.97507 2.54194 8.94209 3.64453 10.0699L6.50005 12.9905L5.82597 17.1144C5.56561 18.7074 7.16031 19.9225 8.52336 19.1708L12.0529 17.2236L15.5826 19.1708C16.9437 19.9216 18.5403 18.7072 18.28 17.1144L17.6059 12.9905L20.4614 10.0699C21.5642 8.94164 20.9547 6.97502 19.431 6.74268ZM19.349 8.87262L16.1935 12.1C16.1011 12.1946 16.0319 12.3114 15.992 12.4403C15.952 12.5692 15.9426 12.7064 15.9644 12.84L16.7093 17.3971C16.7467 17.626 16.5198 17.7988 16.324 17.6909L12.4236 15.5393C12.3093 15.4762 12.182 15.4433 12.0529 15.4433C11.9237 15.4433 11.7965 15.4762 11.6821 15.5393L7.78177 17.6909C7.58588 17.7989 7.35904 17.6259 7.39644 17.3971L8.14134 12.84C8.16316 12.7064 8.15371 12.5692 8.1138 12.4403C8.07388 12.3114 8.0047 12.1946 7.91221 12.1L4.75675 8.87262C4.59825 8.71053 4.68495 8.43073 4.90394 8.39727L9.26466 7.73239C9.39249 7.7129 9.51389 7.66109 9.61839 7.58143C9.7229 7.50177 9.80738 7.39664 9.86456 7.27511L11.8148 3.12883C11.9127 2.92074 12.1931 2.92059 12.291 3.12888L14.2412 7.27511C14.2984 7.39665 14.3829 7.50178 14.4874 7.58144C14.5919 7.66111 14.7133 7.71291 14.8411 7.73239L19.2019 8.39727C19.4208 8.43073 19.5074 8.71058 19.349 8.87262ZM6.39146 1.72079L5.43858 0.34464C5.17985 -0.028825 4.68163 -0.111708 4.32571 0.159769C3.96974 0.431149 3.8908 0.953971 4.14948 1.32749L5.10235 2.70359C5.36117 3.07725 5.85939 3.15979 6.21522 2.88846C6.57119 2.61713 6.65014 2.0943 6.39146 1.72079ZM3.22932 14.0531C3.09342 13.6141 2.64394 13.3736 2.22537 13.5164L0.652285 14.0527C0.233804 14.1954 0.00481637 14.667 0.140762 15.1062C0.276941 15.546 0.727167 15.7855 1.14471 15.6429L2.7178 15.1066C3.13633 14.9639 3.36531 14.4922 3.22932 14.0531ZM19.78 0.159818C19.4241 -0.111562 18.9259 -0.028825 18.6672 0.344689L17.7143 1.72079C17.4556 2.0943 17.5346 2.61718 17.8905 2.88851C18.2466 3.15998 18.7449 3.077 19.0034 2.70363L19.9563 1.32753C20.2149 0.95402 20.136 0.431149 19.78 0.159818ZM23.4534 14.0527L21.8803 13.5164C21.4618 13.3735 21.0123 13.614 20.8763 14.0531C20.7403 14.4922 20.9693 14.9639 21.3879 15.1066L22.9609 15.6429C23.3785 15.7854 23.8287 15.546 23.9649 15.1062C24.1009 14.6671 23.8719 14.1954 23.4534 14.0527ZM12.0529 20.5338C11.6128 20.5338 11.2561 20.9081 11.2561 21.3698V23.0666C11.2561 23.5283 11.6128 23.9025 12.0529 23.9025C12.4929 23.9025 12.8496 23.5283 12.8496 23.0666V21.3698C12.8496 20.9081 12.4929 20.5338 12.0529 20.5338Z" fill="#4A605F"/>
</svg>
