<svg width="25" height="19" viewBox="0 0 25 19" fill="none" xmlns="http://www.w3.org/2000/svg">
<path fill-rule="evenodd" clip-rule="evenodd" d="M12.096 3.02634C12.948 2.47761 13.8595 2.28026 14.8081 2.36988L14.6846 3.87386C13.9093 3.80062 13.2 3.99156 12.5178 4.53971L12.0958 4.87883L11.6737 4.53972C10.5002 3.59678 9.15941 3.66017 7.43451 4.56502C5.80834 5.41807 3.99751 6.94444 1.95039 8.77645C3.15182 10.7556 4.18733 12.399 5.95175 13.5035L5.24204 14.8074C3.11384 13.4751 1.89631 11.4623 0.678776 9.44947C0.596088 9.31277 0.5134 9.17607 0.430427 9.03959L0.0898438 8.47934L0.56738 8.04922C2.78306 6.05354 4.88148 4.22353 6.81594 3.20876C8.62284 2.26089 10.4348 1.95391 12.096 3.02634ZM19.0617 4.25498C20.5 5.268 22.0272 6.6108 23.6241 8.04922L24.1017 8.47935L23.7611 9.0396C23.6799 9.17307 23.599 9.30678 23.5181 9.44053C22.4777 11.1601 21.4337 12.8855 19.8354 14.1755C18.0795 15.5928 15.7222 16.4429 12.0957 16.4429C11.2492 16.4429 10.4716 16.3966 9.75418 16.3075L9.91618 14.8077C10.5736 14.8894 11.2968 14.9331 12.0957 14.9331C15.5056 14.9331 17.5395 14.1391 18.9889 12.9692C20.3252 11.8906 21.2214 10.4568 22.2412 8.77645C20.8237 7.5077 19.5124 6.37871 18.2889 5.51699L19.0617 4.25498Z" fill="#4A605F"/>
<path fill-rule="evenodd" clip-rule="evenodd" d="M0.864419 9.53763L0.867298 7.82994L4.85089 7.83956C5.4209 7.83437 6.32459 7.94786 7.33534 8.07479C7.5462 8.10127 7.76172 8.12834 7.97985 8.15503C9.28153 8.31434 10.7426 8.47124 12.0958 8.47124C13.449 8.47124 14.91 8.31435 16.2117 8.15505C16.4299 8.12835 16.6455 8.10127 16.8565 8.07478C17.8671 7.94787 18.7707 7.8344 19.3406 7.83956L23.3242 7.82994L23.3271 9.53763L19.3362 9.54726L19.3325 9.54722C18.8517 9.54241 18.0554 9.64203 17.0414 9.76889C16.823 9.79621 16.5945 9.8248 16.3569 9.85388C15.0518 10.0136 13.5279 10.1789 12.0958 10.1789C10.6637 10.1789 9.13974 10.0136 7.83458 9.85386C7.59709 9.82479 7.36871 9.79622 7.15042 9.7689C6.13632 9.64202 5.33993 9.54238 4.85903 9.54722L4.85531 9.54726L0.864419 9.53763Z" fill="#4A605F"/>
<path fill-rule="evenodd" clip-rule="evenodd" d="M14.6891 2.80038C15.951 2.21967 16.9667 1.22979 17.5626 0H18.9044C19.5003 1.22979 20.516 2.21967 21.778 2.80038V4.10805C20.516 4.68877 19.5003 5.67864 18.9044 6.90844L17.5626 6.90844C16.9667 5.67866 15.951 4.68878 14.689 4.10805L14.6891 2.80038ZM16.4684 3.45422C17.1511 3.92753 17.7478 4.50903 18.2335 5.17435C18.7192 4.50903 19.3159 3.92752 19.9986 3.45422C19.3159 2.98092 18.7192 2.39941 18.2335 1.73409C17.7478 2.39942 17.1511 2.98092 16.4684 3.45422ZM3.18815 14.6838C4.45006 14.1031 5.4658 13.1132 6.0617 11.8834L7.40352 11.8834C7.9994 13.1132 9.01514 14.1031 10.2771 14.6838L10.2771 15.9915C9.01514 16.5722 7.9994 17.5621 7.40352 18.7919L6.0617 18.7919C5.46579 17.5621 4.45005 16.5722 3.18814 15.9915L3.18815 14.6838ZM4.96751 15.3376C5.65022 15.8109 6.24692 16.3925 6.7326 17.0578C7.21826 16.3924 7.81496 15.8109 8.49767 15.3376C7.81497 14.8643 7.21827 14.2828 6.7326 13.6175C6.24693 14.2828 5.65023 14.8643 4.96751 15.3376Z" fill="#4A605F"/>
</svg>
