<svg width="20" height="26" viewBox="0 0 20 26" fill="none" xmlns="http://www.w3.org/2000/svg">
<path fill-rule="evenodd" clip-rule="evenodd" d="M9.67446 0.00567258C9.67446 0.00567258 7.7412 -0.140912 5.61934 1.05621C4.93735 1.44098 3.89343 2.42243 3.71307 2.59403L3.67622 2.61001C1.86244 4.48957 1.16283 6.44327 1.16283 8.89845V13.8663C1.16283 15.9456 2.22198 17.7685 3.81171 18.7873L3.23143 18.8782C1.39232 19.0887 0 20.6997 0 22.6181V25.0558H19.8359L19.437 24.0454C18.9486 22.8082 18.9113 21.4296 19.3349 20.169L19.3349 20.1688C19.3938 19.9935 19.4504 19.8175 19.5048 19.6407C19.7795 18.7498 19.8416 17.9906 19.761 17.2951C19.6814 16.6081 19.4665 16.0225 19.245 15.4917C19.1876 15.3543 19.1298 15.2199 19.0727 15.0871L19.0721 15.0858C18.6849 14.1858 18.3264 13.3525 18.3264 12.0736V8.97125C18.3264 4.05186 14.458 -0.0304703 9.68182 0.00567854L9.67446 0.00886964V0.00567258ZM3.41249 20.3324L6.75629 19.8089C7.027 19.7773 7.29063 19.698 7.53567 19.5743C8.34138 19.1692 8.88832 18.3132 8.88832 17.3355V15.7057L8.43764 15.5238C8.29369 15.4657 8.15363 15.3978 8.01839 15.3204L8.01726 15.3198C7.96576 15.2904 7.91503 15.2597 7.86509 15.2277C7.7819 15.1744 7.70093 15.1174 7.6224 15.0568L7.62207 15.0566C6.90567 14.505 6.31703 13.7947 5.89906 12.9776C5.48109 12.1604 5.24432 11.2569 5.20599 10.3328L5.20552 10.3216L5.19953 10.2375C6.31145 9.72386 6.89772 8.85167 7.19211 8.07204C7.31717 7.74085 7.38975 7.42776 7.43189 7.16627H9.23913C11.6191 7.16627 13.5484 9.16555 13.5484 11.6318V12.9358C13.5413 12.95 13.5341 12.9641 13.527 12.9782C13.1091 13.7949 12.5209 14.5049 11.805 15.0565C11.5541 15.2492 11.2797 15.4064 10.9888 15.524L10.5386 15.7061V17.3355C10.5386 18.6026 11.457 19.6665 12.6703 19.8088L13.5484 19.9464V20.1761C13.5484 20.4639 13.4668 20.7454 13.3137 20.9855C12.8142 21.7687 12.7148 22.7354 13.0093 23.59H1.41458V22.6181C1.41458 21.4433 2.26973 20.4578 3.39686 20.3341L3.41249 20.3324ZM7.07629 16.4454C7.16105 16.5011 7.24747 16.554 7.33542 16.6041C7.38114 16.6303 7.42725 16.6556 7.47374 16.6803V17.3355C7.47374 17.6848 7.30371 17.9973 7.04037 18.1823H6.7424C4.44212 18.1823 2.57741 16.25 2.57741 13.8663V8.89845C2.57741 6.84753 3.3788 4.99127 4.67649 3.64653C5.96269 2.31364 7.7338 1.48606 9.69196 1.47152C13.654 1.44205 16.9118 4.84882 16.9118 8.97125V12.0736C16.9118 13.6824 17.3936 14.7936 17.7868 15.7004C17.8424 15.8286 17.8962 15.9527 17.9466 16.0735C18.1517 16.565 18.3015 16.9955 18.3565 17.4698C18.4104 17.9355 18.3768 18.4828 18.1573 19.1948L18.1572 19.1952C18.1065 19.3598 18.0538 19.5237 17.999 19.6869C17.5746 20.9499 17.5152 22.3048 17.8131 23.59H14.6164L14.5291 23.4652C14.1824 22.9701 14.1684 22.3041 14.4938 21.7937L14.4939 21.7937C14.7998 21.3138 14.963 20.7513 14.963 20.1761V11.6318C14.963 8.35596 12.4004 5.70039 9.23913 5.70039H6.0416L6.07528 6.46233L6.07528 6.46242L6.0753 6.46333C6.07533 6.46432 6.07536 6.46595 6.0754 6.46819L6.07545 6.47148C6.07557 6.48185 6.07563 6.5006 6.07501 6.52669C6.07378 6.57905 6.06988 6.65999 6.05875 6.76157C6.03627 6.96665 5.98552 7.24465 5.87479 7.53788C5.66024 8.10607 5.22273 8.7401 4.25282 9.03996L3.70777 9.20846L3.7932 10.4073C3.84205 11.5452 4.13442 12.6576 4.64919 13.664C5.16563 14.6737 5.8929 15.5514 6.77805 16.233C6.87491 16.3076 6.9744 16.3785 7.07629 16.4454ZM6.77805 16.233L6.77843 16.2332L7.20025 15.6449L6.77805 16.233ZM13.5484 18.4639V15.4153C13.271 15.7117 12.9703 15.9853 12.6487 16.2331L12.648 16.2336C12.4285 16.4023 12.196 16.5516 11.9532 16.6801V17.3355C11.9532 17.8588 12.3342 18.2978 12.8365 18.353L12.8521 18.3548L13.5484 18.4639Z" fill="#4A605F"/>
</svg>
