<svg width="152" height="152" viewBox="0 0 152 152" fill="none" xmlns="http://www.w3.org/2000/svg">
<path d="M0 45C0 20.1472 20.1472 0 45 0H106.454C131.307 0 151.454 20.1472 151.454 45V106.454C151.454 131.307 131.307 151.454 106.454 151.454H45C20.1472 151.454 0 131.307 0 106.454V45Z" fill="#F3F3F3"/>
<path d="M89.6087 35C88.8044 35 88.1522 35.6472 88.1522 36.4453V43.0938C88.1522 43.8919 88.8044 44.5391 89.6087 44.5391C90.413 44.5391 91.0652 43.8919 91.0652 43.0938V36.4453C91.0652 35.6472 90.413 35 89.6087 35ZM56.1087 80.0938C55.3047 80.0938 54.6522 80.7412 54.6522 81.5391C54.6522 82.3369 55.3047 82.9844 56.1087 82.9844C56.9127 82.9844 57.5652 82.3369 57.5652 81.5391C57.5652 80.7412 56.9127 80.0938 56.1087 80.0938Z" fill="#00A9A2"/>
<path d="M110 77.2031C110 74.0153 107.386 71.4219 104.174 71.4219H93.3007C94.984 67.1433 95.6654 62.1073 95.534 57.6243C95.5089 56.7689 95.4759 56.2741 95.4311 55.9627C95.3558 52.8398 92.7717 50.3203 89.6087 50.3203C86.3962 50.3203 83.7826 52.9138 83.7826 56.1016V57.5469C83.7826 66.6879 71.9536 71.8238 63.0266 74.0262C62.3516 72.495 60.8109 71.4219 59.0217 71.4219H44.4565C43.6522 71.4219 43 72.0691 43 72.8672V107.555C43 108.353 43.6522 109 44.4565 109H59.0217C60.799 109 62.3308 107.941 63.0128 106.426C63.6994 106.601 64.3857 106.778 65.0715 106.956C70.157 108.274 72.9583 109 79.7713 109H95.4348C98.6473 109 101.261 106.407 101.261 103.219C101.262 102.074 100.919 100.955 100.275 100.005C102.525 99.2238 104.174 97.0905 104.174 94.5469C104.174 93.3626 103.819 92.2533 103.199 91.3293C105.439 90.5471 107.087 88.4188 107.087 85.875C107.088 84.7301 106.745 83.6109 106.101 82.6609C108.351 81.88 110 79.7467 110 77.2031ZM60.4783 104.664C60.4783 105.461 59.8249 106.109 59.0217 106.109H45.913V74.3125H59.0217C59.8249 74.3125 60.4783 74.9609 60.4783 75.7578V104.664ZM104.174 80.0938H96.8913C96.087 80.0938 95.4348 80.741 95.4348 81.5391C95.4348 82.3372 96.087 82.9844 96.8913 82.9844H101.261C102.867 82.9844 104.174 84.2811 104.174 85.875C104.174 87.4715 102.87 88.7656 101.261 88.7656H93.9783C93.174 88.7656 92.5217 89.4128 92.5217 90.2109C92.5217 91.009 93.174 91.6562 93.9783 91.6562H98.3478C99.935 91.6562 101.261 92.9144 101.261 94.5469C101.261 96.1434 99.9567 97.4375 98.3478 97.4375H91.0652C90.2609 97.4375 89.6087 98.0847 89.6087 98.8828C89.6087 99.6809 90.2609 100.328 91.0652 100.328H95.4348C97.041 100.328 98.3478 101.625 98.3478 103.219C98.3478 104.813 97.041 106.109 95.4348 106.109H79.7713C73.3325 106.109 70.8177 105.458 65.8077 104.159C65.0028 103.95 64.1974 103.743 63.3913 103.539V76.9177C73.9319 74.4262 86.6957 68.3449 86.6957 57.5469V56.1016C86.6957 54.5077 88.0024 53.2109 89.6087 53.2109C91.212 53.2109 92.5187 54.5056 92.5217 56.0971V56.1016C92.5217 56.7297 93.3118 64.4386 90.1438 71.4219H85.2391C84.4348 71.4219 83.7826 72.0691 83.7826 72.8672C83.7826 73.6653 84.4348 74.3125 85.2391 74.3125H104.174C105.78 74.3125 107.087 75.6092 107.087 77.2031C107.087 78.7996 105.783 80.0938 104.174 80.0938Z" fill="#00A9A2"/>
<path d="M56.1087 85.875C55.3044 85.875 54.6522 86.5222 54.6522 87.3203V98.8828C54.6522 99.6809 55.3044 100.328 56.1087 100.328C56.913 100.328 57.5652 99.6809 57.5652 98.8828V87.3203C57.5652 86.5222 56.913 85.875 56.1087 85.875ZM77.9565 53.2109H72.1304C71.3261 53.2109 70.6739 53.8581 70.6739 54.6562C70.6739 55.4544 71.3261 56.1016 72.1304 56.1016H77.9565C78.7608 56.1016 79.413 55.4544 79.413 54.6562C79.413 53.8581 78.7608 53.2109 77.9565 53.2109ZM107.087 53.2109H101.261C100.457 53.2109 99.8043 53.8581 99.8043 54.6562C99.8043 55.4544 100.457 56.1016 101.261 56.1016H107.087C107.891 56.1016 108.543 55.4544 108.543 54.6562C108.543 53.8581 107.891 53.2109 107.087 53.2109ZM102.997 41.3708C102.428 40.8065 101.506 40.8065 100.937 41.3708L96.8183 45.458C96.2496 46.0224 96.2496 46.9376 96.8183 47.5021C97.3874 48.0665 98.3092 48.0663 98.8783 47.5021L102.997 43.4149C103.566 42.8505 103.566 41.9353 102.997 41.3708ZM82.3991 45.458L78.2802 41.3708C77.7112 40.8065 76.7893 40.8065 76.2202 41.3708C75.6514 41.9352 75.6514 42.8504 76.2202 43.4149L80.3391 47.5021C80.9083 48.0665 81.8301 48.0663 82.3991 47.5021C82.9678 46.9377 82.9678 46.0225 82.3991 45.458Z" fill="#00A9A2"/>
</svg>
