<svg width="152" height="152" viewBox="0 0 152 152" fill="none" xmlns="http://www.w3.org/2000/svg">
<rect width="151.454" height="151.454" rx="45" fill="#F3F3F3"/>
<path d="M104.156 72.0524C106.046 70.7555 108 69.4159 108 67.3759C108 65.336 106.046 63.995 104.156 62.6982C103.135 61.9979 101.738 61.0395 101.57 60.4157C101.388 59.7297 102.105 58.2188 102.682 57.005C103.645 54.9819 104.639 52.8888 103.648 51.1821C102.643 49.4521 100.305 49.2654 98.0443 49.0851C96.7161 48.9801 95.0625 48.8478 94.5794 48.3667C94.0964 47.8855 93.9635 46.2385 93.8581 44.9144C93.6758 42.6631 93.4896 40.3353 91.7526 39.3341C90.0391 38.3472 87.9388 39.338 85.9076 40.295C84.6888 40.8696 83.1719 41.5854 82.4831 41.4026C81.8555 41.2366 80.8945 39.8437 80.1914 38.8283C78.8893 36.9466 77.5417 35 75.4935 35C73.4453 35 72.099 36.9453 70.7982 38.8283C70.0951 39.845 69.1328 41.2366 68.5065 41.4026C67.8177 41.5867 66.3034 40.8709 65.0833 40.2963C63.0508 39.3393 60.9505 38.3485 59.237 39.3367C57.5026 40.3378 57.3164 42.667 57.1354 44.917C57.0312 46.2398 56.8984 47.8868 56.4154 48.3693C55.9336 48.8491 54.2799 48.9827 52.9518 49.0877C50.6914 49.2693 48.3542 49.456 47.3503 51.1847C46.3594 52.8927 47.3542 54.9845 48.3164 57.0076C48.8932 58.2201 49.612 59.731 49.4284 60.4157C49.2617 61.0408 47.8633 61.9979 46.8437 62.6982C44.9544 63.995 43 65.336 43 67.3759C43 69.4146 44.9544 70.7555 46.8437 72.0524C47.8646 72.7527 49.2617 73.7111 49.4284 74.3348C49.612 75.0183 48.8945 76.5291 48.3164 77.7443C47.3529 79.7673 46.3594 81.8579 47.349 83.5645C48.3529 85.2945 50.6914 85.4813 52.9518 85.6615C53.3203 85.6914 53.7122 85.7238 54.099 85.764L43.9505 109.784C43.7574 110.235 43.6963 110.732 43.7744 111.216C43.8526 111.7 44.0666 112.153 44.3919 112.521C44.7143 112.892 45.1355 113.165 45.607 113.307C46.0784 113.45 46.5808 113.457 47.056 113.327L52.6367 111.845L55.9349 116.822C56.4844 117.652 57.4349 118.075 58.3659 117.987C58.8392 117.944 59.292 117.775 59.6761 117.496C60.0602 117.218 60.3612 116.84 60.5469 116.405L69.8477 94.5995C71.4661 96.6952 72.9297 99.7519 75.4948 99.7519C78.0638 99.7519 79.5273 96.6861 81.151 94.5904L90.4557 116.405C90.6412 116.841 90.9419 117.218 91.3259 117.497C91.7099 117.776 92.1628 117.946 92.6361 117.989C93.1095 118.032 93.5857 117.946 94.014 117.741C94.4422 117.535 94.8064 117.218 95.0677 116.822L98.3906 111.835L103.947 113.326C104.422 113.456 104.924 113.449 105.395 113.307C105.867 113.165 106.288 112.893 106.611 112.522C106.936 112.154 107.151 111.702 107.229 111.217C107.307 110.733 107.246 110.237 107.053 109.786L96.9036 85.7679C97.2878 85.729 97.6784 85.6953 98.0456 85.6654C100.306 85.4865 102.645 85.2997 103.648 83.5697C104.639 81.8631 103.646 79.7699 102.684 77.7469C102.107 76.5317 101.388 75.0209 101.572 74.3374C101.74 73.7123 103.135 72.7527 104.156 72.0524ZM58.1068 115.393L54.8099 110.416C54.5061 109.956 54.0644 109.604 53.5476 109.409C53.0309 109.214 52.4656 109.187 51.9323 109.33L46.349 110.791L56.5703 86.6018C56.7734 86.9727 56.8906 87.6107 56.9505 88.0257C56.9701 88.2034 57.0156 88.3499 57.1341 89.8374C57.3138 92.0862 57.4987 94.4127 59.2357 95.4204C60.9518 96.4021 63.0508 95.4152 65.0794 94.4594C65.8633 94.0898 66.7708 93.6618 67.5026 93.453L58.1068 115.393ZM99.0677 109.33C98.5344 109.187 97.9692 109.215 97.4526 109.409C96.936 109.604 96.4942 109.956 96.1901 110.416L92.8516 115.389L83.4961 93.4556C84.3372 93.6994 85.375 94.2104 86.4232 94.6967C88.707 95.7601 91.168 96.6368 92.6927 94.5541C92.7227 94.5139 92.7604 94.4801 92.7891 94.4373L92.8073 94.4036C93.582 93.2209 93.7227 91.5091 93.8568 89.8361C93.8945 89.3705 93.9349 88.8674 93.9935 88.3875L94.0065 88.2721C94.0247 88.1346 94.0456 87.9998 94.0664 87.8688C94.0977 87.6743 94.1315 87.4862 94.1732 87.315C94.1901 87.2398 94.2122 87.1737 94.2305 87.1062C94.2826 86.926 94.3398 86.76 94.4076 86.6303L94.4271 86.5992L104.638 110.824L99.0677 109.33ZM100.328 78.8557C100.875 80.006 101.701 81.7425 101.393 82.2703C101.073 82.8227 99.125 82.9784 97.8359 83.0808C96.7917 83.1638 95.7331 83.2546 94.793 83.4958C91.7435 84.1261 91.4818 86.8222 91.2565 89.6325C91.1784 90.5948 91.0729 91.9253 90.793 92.6658C90.4049 93.6826 89.4987 93.2624 87.4987 92.3351C87.4936 92.3327 87.4884 92.3305 87.4831 92.3287L87.0221 92.1121C85.9935 91.6271 84.944 91.1395 83.9297 90.893C83.8555 90.8762 83.7786 90.8516 83.7044 90.836C83.6758 90.8308 83.6484 90.8295 83.6198 90.823C82.6315 90.6337 81.7135 90.7115 80.8698 91.2717C79.7799 91.9591 78.8997 93.217 78.0456 94.4516C77.2995 95.528 76.1732 97.1581 75.4935 97.1581C74.8138 97.1581 73.6875 95.5293 72.9427 94.4516C70.2448 90.5481 68.9818 89.8024 64.6354 91.8021L63.9688 92.1095C62.8151 92.6542 61.0716 93.4738 60.5417 93.169C59.9883 92.85 59.8346 90.9099 59.7318 89.6273C59.3086 84.331 58.3372 83.4919 53.1602 83.0769C51.8711 82.9732 49.9245 82.8175 49.6042 82.2664C49.2969 81.7386 50.1224 80.0034 50.6693 78.8557C51.5078 77.0919 52.375 75.2699 51.9453 73.6644C51.5286 72.1172 49.8984 70.998 48.3216 69.9165C47.2396 69.1747 45.6042 68.0516 45.6042 67.3746C45.6042 66.699 47.2396 65.5772 48.3203 64.8354C49.8984 63.7525 51.5286 62.6346 51.9453 61.0849C52.375 59.482 51.5078 57.6599 50.6693 55.8975C50.1224 54.7485 49.2969 53.012 49.6042 52.4842C49.9245 51.933 51.8724 51.7761 53.1602 51.6736C55.0964 51.518 57.0977 51.3585 58.2578 50.203C59.4193 49.0449 59.5781 47.0517 59.7318 45.1232C59.8359 43.8393 59.9896 41.9006 60.543 41.5828C61.0716 41.2781 62.8151 42.0977 63.9701 42.6411C65.7396 43.4749 67.569 44.3373 69.1784 43.9094C70.7331 43.4944 71.8568 41.8707 72.9427 40.3002C73.6875 39.2226 74.8138 37.5937 75.4935 37.5937C76.1732 37.5937 77.3008 39.2226 78.0456 40.3002C79.1328 41.8694 80.2552 43.4944 81.8099 43.9081C83.4206 44.336 85.2526 43.4736 87.0221 42.6398C88.1745 42.0951 89.9193 41.2742 90.4479 41.5789C91.0026 41.898 91.1589 43.838 91.2617 45.1232C91.418 47.0504 91.5768 49.0436 92.7383 50.2004C93.8997 51.3572 95.901 51.5167 97.8359 51.671C99.125 51.7748 101.073 51.9304 101.393 52.4803C101.701 53.0094 100.875 54.7459 100.329 55.8949C99.4909 57.6573 98.6237 59.4794 99.0547 61.0836C99.4714 62.6333 101.102 63.7512 102.678 64.8341C103.76 65.5759 105.396 66.6977 105.396 67.3759C105.396 68.0529 103.76 69.1747 102.678 69.9178C101.102 70.9993 99.4701 72.1185 99.0547 73.667C98.625 75.2712 99.4909 77.0932 100.328 78.8557Z" fill="#00A9A2"/>
<path d="M75.5 48.1799C64.8724 48.1799 56.2266 56.791 56.2266 67.3759C56.2266 77.9582 64.8724 86.5706 75.5 86.5706C86.1276 86.5706 94.7734 77.9595 94.7734 67.3759C94.7734 56.791 86.1276 48.1799 75.5 48.1799ZM75.5 83.9769C66.3073 83.9769 58.8307 76.5291 58.8307 67.3759C58.8307 58.2201 66.3086 50.7736 75.5 50.7736C84.6914 50.7736 92.1693 58.2214 92.1693 67.3759C92.1693 76.5291 84.6914 83.9769 75.5 83.9769Z" fill="#00A9A2"/>
<path d="M84.3581 63.1573H79.2253L77.6276 58.285C77.4811 57.8364 77.1956 57.4457 76.8122 57.1689C76.4288 56.892 75.9671 56.7434 75.4935 56.7443C74.5169 56.7443 73.6602 57.3668 73.3581 58.2889L71.7721 63.1573H66.6419C66.1678 63.1562 65.7056 63.3051 65.3218 63.5825C64.9381 63.8598 64.6526 64.2513 64.5065 64.7005C64.3587 65.1497 64.358 65.6341 64.5045 66.0837C64.651 66.5333 64.9371 66.925 65.3216 67.2021L69.4727 70.2082L67.888 75.0714C67.741 75.5204 67.7408 76.0043 67.8875 76.4534C68.0342 76.9025 68.3202 77.2937 68.7044 77.5705C69.4935 78.1411 70.5547 78.1411 71.3438 77.5705L75.4922 74.5657L79.6602 77.577C80.0435 77.8552 80.5057 78.0049 80.98 78.0047C81.4544 78.0045 81.9164 77.8542 82.2995 77.5757C82.6834 77.2987 82.9692 76.9075 83.1157 76.4584C83.2622 76.0093 83.2618 75.5255 83.1146 75.0766L81.5273 70.2082L85.6784 67.2008C86.0621 66.9237 86.3476 66.5324 86.4939 66.0833C86.6401 65.6342 86.6395 65.1505 86.4922 64.7018C86.3464 64.2525 86.0612 63.8609 85.6777 63.5834C85.2942 63.3058 84.8321 63.1566 84.3581 63.1573ZM79.7839 68.2643C79.4004 68.5414 79.115 68.9324 78.9688 69.3812C78.8226 69.83 78.823 70.3135 78.9701 70.762L80.2982 74.8328L76.8086 72.313C76.4253 72.0353 75.9634 71.8859 75.4894 71.8861C75.0154 71.8863 74.5536 72.0363 74.1706 72.3143L70.707 74.8237L72.0299 70.762C72.1769 70.3131 72.1772 69.8294 72.0308 69.3804C71.8843 68.9313 71.5986 68.5401 71.2148 68.263L67.7461 65.751H72.0326C73.0091 65.751 73.8685 65.1285 74.168 64.2051L75.4961 60.133L76.8307 64.209C76.9771 64.658 77.2626 65.0492 77.6464 65.3263C78.0301 65.6034 78.4922 65.7521 78.9661 65.751H83.2539L79.7839 68.2643Z" fill="#00A9A2"/>
</svg>
