<svg width="152" height="152" viewBox="0 0 152 152" fill="none" xmlns="http://www.w3.org/2000/svg">
<rect width="151.454" height="151.454" rx="45" fill="#F3F3F3"/>
<path d="M83.9688 76.5312C83.2356 76.5312 82.6406 77.1263 82.6406 77.8594C82.6406 78.5925 83.2356 79.1875 83.9688 79.1875C84.7019 79.1875 85.2969 78.5925 85.2969 77.8594C85.2969 77.1263 84.7019 76.5312 83.9688 76.5312Z" fill="#00A9A2"/>
<path d="M42.33 73.4232C42.3336 73.4273 42.3368 73.4319 42.3405 73.4359L42.342 73.4378L75.0148 109.563C75.2583 109.832 75.6272 110 75.9999 110C76.3714 110 76.7397 109.834 76.985 109.563L109.658 73.4378L109.659 73.4359C109.663 73.4318 109.666 73.4273 109.67 73.4232C109.874 73.1912 109.99 72.8954 109.999 72.5868C110.009 72.2781 109.91 71.9759 109.72 71.7322C109.717 71.7274 109.714 71.722 109.71 71.7172L99.0846 58.4359C98.9602 58.2804 98.8023 58.1549 98.6228 58.0686C98.4433 57.9823 98.2466 57.9375 98.0474 57.9375H53.9524C53.7532 57.9375 53.5565 57.9823 53.377 58.0686C53.1975 58.1549 53.0397 58.2804 52.9152 58.4359L42.2899 71.7172C42.286 71.722 42.2834 71.7273 42.2795 71.7322C42.09 71.976 41.9914 72.2781 42.0006 72.5868C42.0098 72.8954 42.1263 73.1912 42.33 73.4232ZM68.7828 60.5938H83.2169L89.5921 71.2188H62.4076L68.7828 60.5938ZM62.0995 73.875H89.9001L75.9998 105.382L62.0995 73.875ZM92.8036 73.875H105.681L80.5396 101.672L92.8036 73.875ZM59.1961 73.875L71.46 101.672L46.3189 73.875H59.1961ZM105.909 71.2188H92.6897L86.3146 60.5938H97.409L105.909 71.2188ZM54.5906 60.5938H65.685L59.3098 71.2188H46.0903L54.5906 60.5938Z" fill="#00A9A2"/>
<path d="M78.6561 76.5312H68.7985C68.0649 76.5312 67.4703 77.1259 67.4703 77.8594C67.4703 78.5929 68.0649 79.1875 68.7985 79.1875H78.6561C79.3896 79.1875 79.9843 78.5929 79.9843 77.8594C79.9843 77.1259 79.3896 76.5312 78.6561 76.5312ZM75.9998 52.625C76.7333 52.625 77.3279 52.0304 77.3279 51.2969V43.3281C77.3279 42.5946 76.7333 42 75.9998 42C75.2662 42 74.6716 42.5946 74.6716 43.3281V51.2969C74.6716 52.0304 75.2662 52.625 75.9998 52.625ZM84.908 52.236L90.2207 46.9235C90.7393 46.4049 90.7393 45.5639 90.2207 45.0451C89.702 44.5264 88.861 44.5265 88.3423 45.0451L83.0296 50.3576C82.511 50.8763 82.511 51.7172 83.0296 52.236C83.5483 52.7546 84.3892 52.7548 84.908 52.236ZM67.0916 52.236C67.6103 52.7546 68.4513 52.7546 68.9701 52.236C69.4887 51.7174 69.4887 50.8764 68.9701 50.3576L63.6574 45.0451C63.1388 44.5265 62.2978 44.5265 61.779 45.0451C61.2602 45.5638 61.2603 46.4047 61.779 46.9235L67.0916 52.236Z" fill="#00A9A2"/>
</svg>
