<svg width="152" height="152" viewBox="0 0 152 152" fill="none" xmlns="http://www.w3.org/2000/svg">
<rect width="151.454" height="151.454" rx="45" fill="#F3F3F3"/>
<path d="M49.9724 64.9052C49.1352 64.2262 48.0711 63.8881 46.994 63.9586C45.9169 64.0292 44.9064 64.5032 44.1656 65.2855C43.4247 66.0679 43.0084 67.1006 43.0001 68.1762C42.9919 69.2518 43.3924 70.2907 44.1211 71.0842L57.5389 85.8181C59.2706 89.5828 62.1632 92.6984 65.7954 94.711C66.0035 94.821 66.1773 94.9858 66.2978 95.1875C66.4184 95.3892 66.481 95.62 66.4788 95.8548V111.101C66.4788 112.135 66.8911 113.127 67.6249 113.858C68.3588 114.589 69.3541 115 70.3919 115H83.4353C84.4731 115 85.4684 114.589 86.2022 113.858C86.9361 113.127 87.3483 112.135 87.3483 111.101V101.613C87.7423 101.393 88.0703 101.072 88.2986 100.683C88.5269 100.295 88.6472 99.8531 88.6472 99.4031C88.6472 98.953 88.5269 98.511 88.2986 98.1227C88.0703 97.7343 87.7423 97.4136 87.3483 97.1935V95.4778C87.3485 95.2911 87.39 95.1067 87.4698 94.9378C87.5496 94.7689 87.6658 94.6195 87.8101 94.5004C88.6464 93.7451 89.3977 92.9014 90.0509 91.9841L91.4309 92.7354L92.9374 95.4817C93.1569 95.8817 93.4803 96.2154 93.8738 96.4479C94.2673 96.6804 94.7163 96.8031 95.1737 96.8031C95.6312 96.8031 96.0802 96.6804 96.4737 96.4479C96.8672 96.2154 97.1906 95.8817 97.41 95.4817L98.9179 92.7354L101.674 91.2342C102.075 91.0155 102.41 90.6932 102.644 90.3011C102.877 89.909 103 89.4616 103 89.0057C103 88.5499 102.877 88.1025 102.644 87.7104C102.41 87.3183 102.075 86.996 101.674 86.7773L98.9179 85.2748L97.41 82.5272C97.1905 82.1275 96.8672 81.7939 96.4738 81.5616C96.0805 81.3293 95.6316 81.2067 95.1744 81.2066C94.645 81.2116 94.1307 81.3826 93.7044 81.6953C93.7357 81.386 93.7748 81.0819 93.797 80.766C93.8903 79.4037 94.1984 78.0646 94.71 76.7979L102.721 56.9846C103.11 55.9547 103.073 54.813 102.618 53.8106C102.162 52.8082 101.325 52.0272 100.292 51.6394C99.2585 51.2516 98.1128 51.2888 97.1068 51.7427C96.1008 52.1967 95.317 53.0303 94.9279 54.0602L89.3479 68.6693C89.3342 68.7101 89.3117 68.7475 89.282 68.7787C89.2522 68.8099 89.2159 68.8343 89.1757 68.85C89.1366 68.8672 89.094 68.8752 89.0512 68.8734C89.0085 68.8716 88.9667 68.86 88.9292 68.8396C88.8749 68.8129 88.8297 68.771 88.7991 68.7191C88.7685 68.6671 88.7539 68.6073 88.757 68.5471L91.0187 45.9406C91.1141 44.9913 90.8634 44.0395 90.3126 43.2592C89.7618 42.4788 88.9476 41.922 88.0188 41.6905C87.4678 41.5486 86.8924 41.5276 86.3325 41.629C85.7726 41.7304 85.2414 41.9518 84.7758 42.2779C84.3102 42.6039 83.9211 43.0269 83.6357 43.5175C83.3502 44.008 83.175 44.5545 83.1223 45.1192L80.9571 65.52C80.9479 65.611 80.7588 65.6162 80.7536 65.5122L79.6384 40.7846C79.5925 39.7489 79.1408 38.7725 78.3804 38.0651C77.6199 37.3576 76.6114 36.9757 75.5714 37.0012C74.5313 37.0267 73.5429 37.4577 72.8183 38.2016C72.0937 38.9455 71.6908 39.9429 71.6962 40.9795V62.9062C71.6962 63.0245 71.4993 63.0219 71.4823 62.927L68.2593 43.631C68.0867 42.6295 67.5431 41.7291 66.7361 41.108C65.9291 40.4868 64.9175 40.1902 63.9015 40.2768C62.8855 40.3634 61.9392 40.827 61.2498 41.5757C60.5604 42.3244 60.1782 43.3037 60.1789 44.3199C60.1767 44.448 60.1833 44.5761 60.1984 44.7033L62.5463 69.314L60.7202 73.8943L49.9724 64.9052ZM80.8084 94.2366L82.4662 97.2546C82.5866 97.474 82.7677 97.6545 82.9879 97.7745L85.1101 98.8598C85.2991 99.0476 85.5421 99.172 85.8053 99.2159L86.0792 99.3563L82.9879 101.046C82.7677 101.166 82.5866 101.346 82.4662 101.566L80.8788 104.646L79.1831 101.566C79.0627 101.346 78.8816 101.166 78.6614 101.046L75.5701 99.4641L78.6614 97.7745C78.8816 97.6545 79.0627 97.474 79.1831 97.2546L80.8084 94.2366ZM95.1561 83.8386L96.8139 86.8566C96.9344 87.0761 97.1154 87.2565 97.3357 87.3765L100.427 88.9583L97.3357 90.648C97.1154 90.768 96.9344 90.9484 96.8139 91.1679L95.2266 94.2483L93.5309 91.1679C93.4105 90.9484 93.2294 90.768 93.0092 90.648L90.5022 89.3651C90.4429 89.2972 90.3764 89.2357 90.304 89.1819C90.1922 89.1205 90.0717 89.0767 89.9466 89.0519L93.0092 87.3817C93.2294 87.2617 93.4105 87.0813 93.5309 86.8618L95.1561 83.8386ZM61.3919 76.3885C61.7847 76.2851 62.1476 76.0908 62.4508 75.8214C62.7541 75.5519 62.9892 75.215 63.1371 74.8379L64.9528 70.3031C65.1123 69.9133 65.1775 69.4917 65.1432 69.0722L62.7954 44.4563V44.3186C62.7963 43.9924 62.9064 43.6759 63.1081 43.4191C63.3099 43.1622 63.5918 42.9798 63.9093 42.9005C64.1024 42.8517 64.3036 42.8434 64.5001 42.8763C64.6966 42.9092 64.8841 42.9825 65.0506 43.0916C65.2201 43.2 65.3651 43.3425 65.4763 43.5099C65.5874 43.6773 65.6623 43.8659 65.6962 44.0638L68.918 63.3611C69.0421 64.0204 69.4075 64.6104 69.9432 65.0165C70.479 65.4227 71.147 65.6162 71.8178 65.5596C72.4885 65.5029 73.1143 65.2002 73.5738 64.7099C74.0334 64.2197 74.2939 63.5769 74.3049 62.9062V40.9795C74.3034 40.6236 74.442 40.2812 74.691 40.026C74.94 39.7708 75.2795 39.623 75.6366 39.6145C75.9937 39.606 76.3399 39.7374 76.6009 39.9805C76.8619 40.2236 77.0167 40.5589 77.0323 40.9145L78.154 65.6435C78.1878 66.3221 78.477 66.9632 78.9639 67.4389C79.4508 67.9146 80.0997 68.1901 80.7813 68.2104C81.4629 68.2308 82.1271 67.9945 82.6417 67.5486C83.1563 67.1027 83.4834 66.4801 83.5579 65.8046L85.7101 45.3987C85.7345 45.2075 85.7988 45.0235 85.899 44.8586C85.9991 44.6937 86.1328 44.5516 86.2915 44.4414C86.4502 44.3311 86.6302 44.2553 86.8201 44.2187C87.01 44.1821 87.2055 44.1856 87.394 44.2289C87.7128 44.3073 87.9925 44.4977 88.1818 44.7651C88.3711 45.0325 88.4572 45.359 88.4244 45.6846L86.1522 68.3392C86.1522 68.3911 86.1353 68.5211 86.1353 68.5731C86.1378 69.0476 86.2565 69.5142 86.4812 69.9325C86.7059 70.3508 87.0297 70.7081 87.4245 70.9733C87.8193 71.2385 88.2732 71.4035 88.7466 71.4541C89.22 71.5047 89.6987 71.4393 90.1409 71.2636C90.519 71.1126 90.861 70.8842 91.1448 70.5931C91.4285 70.3021 91.6478 69.9548 91.7883 69.5739L97.3709 54.9518C97.4789 54.6538 97.6767 54.3963 97.9374 54.2148C98.198 54.0333 98.5086 53.9366 98.8265 53.938C99.0777 53.9371 99.3253 53.9969 99.5482 54.1121C99.7712 54.2274 99.9627 54.3948 100.107 54.6C100.25 54.8051 100.342 55.042 100.374 55.2902C100.406 55.5384 100.377 55.7907 100.29 56.0254L92.2827 75.827C91.6714 77.3468 91.3038 78.953 91.1935 80.5866C91.0776 82.4123 90.7355 84.2166 90.1748 85.9585L88.6748 86.776C88.3512 86.9491 88.0695 87.1907 87.8497 87.484C87.63 87.7773 87.4774 88.115 87.4028 88.4734C87.3281 88.8318 87.3333 89.2021 87.4179 89.5583C87.5024 89.9145 87.6644 90.2478 87.8922 90.5349C87.3662 91.2666 86.7637 91.9406 86.0949 92.5456C85.6704 92.9083 85.3296 93.3581 85.0957 93.8642C84.8618 94.3702 84.7404 94.9207 84.7396 95.4778V95.7638L84.5701 95.6715L83.0623 92.9238C82.8427 92.5242 82.5193 92.1907 82.126 91.9585C81.7326 91.7262 81.2838 91.6036 80.8266 91.6036C80.3694 91.6036 79.9206 91.7262 79.5273 91.9585C79.1339 92.1907 78.8105 92.5242 78.591 92.9238L77.0832 95.6728L74.3271 97.174C73.9257 97.3927 73.5908 97.715 73.3575 98.107C73.1241 98.4991 73.001 98.9466 73.001 99.4024C73.001 99.8582 73.1241 100.306 73.3575 100.698C73.5908 101.09 73.9257 101.412 74.3271 101.631L77.0832 103.133L78.5897 105.88C78.8091 106.28 79.1325 106.613 79.526 106.846C79.9195 107.078 80.3685 107.201 80.826 107.201C81.2834 107.201 81.7324 107.078 82.1259 106.846C82.5194 106.613 82.8428 106.28 83.0623 105.88L84.5701 103.133L84.7396 103.042V111.101C84.7396 111.445 84.6022 111.776 84.3576 112.02C84.113 112.264 83.7812 112.401 83.4353 112.401H70.3919C70.0459 112.401 69.7142 112.264 69.4696 112.02C69.225 111.776 69.0875 111.445 69.0875 111.101V95.8548C69.0877 95.1487 68.8955 94.4559 68.5314 93.8502C68.1672 93.2445 67.6449 92.7487 67.0202 92.4156C63.8664 90.6364 61.3605 87.9059 59.8632 84.6172C59.8054 84.4737 59.7224 84.3416 59.618 84.2272L46.0528 69.3322C45.7703 69.0257 45.6122 68.6254 45.6094 68.2092C45.6081 67.8971 45.6955 67.5911 45.8613 67.3264C46.0272 67.0617 46.2648 66.8492 46.5467 66.7133C46.8285 66.5774 47.1433 66.5237 47.4545 66.5584C47.7657 66.5931 48.0607 66.7148 48.3054 66.9094L59.0689 75.9128C59.393 76.1654 59.7713 76.3398 60.1744 76.4223C60.5774 76.5049 60.9941 76.4933 61.3919 76.3885Z" fill="#00A9A2"/>
<path d="M71.588 81.9176L73.7271 83.0874L74.901 85.2176C75.099 85.5786 75.3908 85.8797 75.7458 86.0896C76.1009 86.2994 76.506 86.4101 76.9188 86.4101C77.3316 86.4101 77.7368 86.2994 78.0918 86.0896C78.4468 85.8797 78.7387 85.5786 78.9366 85.2176L80.1105 83.0861L82.2484 81.9163C82.6106 81.719 82.9128 81.4282 83.1234 81.0744C83.3339 80.7206 83.445 80.3169 83.445 79.9056C83.445 79.4943 83.3339 79.0905 83.1234 78.7367C82.9128 78.3829 82.6106 78.0922 82.2484 77.8949L80.1092 76.7251L78.9353 74.5948C78.7373 74.2339 78.4455 73.9327 78.0905 73.7229C77.7355 73.5131 77.3303 73.4024 76.9175 73.4024C76.5047 73.4024 76.0996 73.5131 75.7445 73.7229C75.3895 73.9327 75.0977 74.2339 74.8997 74.5948L73.7258 76.7264L71.588 77.8962C71.2258 78.0935 70.9235 78.3842 70.713 78.738C70.5024 79.0918 70.3913 79.4956 70.3913 79.9069C70.3913 80.3182 70.5024 80.7219 70.713 81.0757C70.9235 81.4295 71.2258 81.7203 71.588 81.9176ZM75.3132 78.8281C75.5332 78.7078 75.7142 78.5274 75.8349 78.3082L76.9136 76.3417L77.9962 78.3121C78.1169 78.5313 78.2979 78.7117 78.5179 78.832L80.4953 79.9108L78.5179 80.9896C78.2979 81.1099 78.1169 81.2902 77.9962 81.5095L76.9136 83.4721L75.831 81.5017C75.7103 81.2824 75.5293 81.1021 75.3092 80.9818L73.3358 79.9069L75.3132 78.8281Z" fill="#00A9A2"/>
</svg>
