<svg width="93" height="74" viewBox="0 0 93 74" fill="none" xmlns="http://www.w3.org/2000/svg">
<path d="M51.4778 65.8253C55.8853 63.3497 59.3927 61.2467 62.1426 59.4713C64.8441 57.6958 67.594 55.3607 70.3897 52.4171C72.997 49.7068 74.9882 46.8573 76.4102 43.8208C77.7852 40.8307 78.7807 36.9536 79.3485 32.2357H72.7131C66.9766 32.2357 62.522 30.8329 59.2514 28.031C55.9808 25.2744 54.3207 21.1626 54.3207 15.791C54.3207 11.9126 55.7911 8.36288 58.6823 4.99891C61.6206 1.68137 65.65 0 70.722 0C78.7324 0 84.4206 2.56972 87.8337 7.70793C91.294 12.8938 93 19.6682 93 28.031C93 33.9635 91.6734 39.3828 89.0661 44.2411C86.4588 49.1472 83.2837 53.4912 79.5382 57.3231C75.6998 61.2467 71.6233 64.5643 67.3088 67.3197C63.0427 70.03 59.441 72.2722 56.5015 74L51.4778 65.8253ZM0 65.8253C4.40873 63.3497 7.91613 61.2467 10.6648 59.4713C13.3663 57.6958 16.1162 55.3607 18.9132 52.4171C21.6147 49.614 23.6529 46.718 24.9795 43.7744C26.3545 40.8307 27.3029 36.9536 27.872 32.2357H21.2353C15.5 32.2357 11.0442 30.8329 7.77356 28.031C4.50296 25.2744 2.84411 21.1626 2.84411 15.791C2.84411 11.9126 4.31327 8.36288 7.20449 4.99891C10.1441 1.68137 14.1734 0 19.2454 0C27.2558 0 32.944 2.56972 36.3559 7.70793C39.8162 12.8938 41.5234 19.6682 41.5234 28.031C41.5234 33.9635 40.1956 39.3828 37.5883 44.2411C34.9822 49.1472 31.8059 53.4912 28.0617 57.3231C24.222 61.2467 20.1455 64.5643 15.8323 67.3197C11.5661 70.03 7.96325 72.2722 5.02368 74L0 65.8253Z" fill="#F3F3F3"/>
</svg>
