<svg width="53" height="42" viewBox="0 0 53 42" fill="none" xmlns="http://www.w3.org/2000/svg">
<path d="M29.3368 37.3603C31.8486 35.9552 33.8475 34.7617 35.4146 33.754C36.9542 32.7463 38.5213 31.4209 40.1146 29.7502C41.6005 28.212 42.7352 26.5947 43.5456 24.8713C44.3292 23.1742 44.8965 20.9736 45.2201 18.2959H41.4387C38.1694 18.2959 35.6308 17.4998 33.7669 15.9095C31.903 14.3449 30.9569 12.0112 30.9569 8.96245C30.9569 6.7612 31.7949 4.7465 33.4426 2.83722C35.1171 0.954293 37.4134 0 40.3039 0C44.869 0 48.1106 1.45849 50.0558 4.37477C52.0278 7.3181 53 11.163 53 15.9095C53 19.2766 52.244 22.3524 50.7581 25.1098C49.2722 27.8944 47.4627 30.3598 45.3282 32.5347C43.1408 34.7617 40.8176 36.6446 38.3588 38.2085C35.9275 39.7467 33.875 41.0194 32.1998 42L29.3368 37.3603ZM0 37.3603C2.5125 35.9552 4.51134 34.7617 6.07777 33.754C7.61735 32.7463 9.18449 31.4209 10.7785 29.7502C12.3181 28.1593 13.4796 26.5156 14.2356 24.8449C15.0192 23.1742 15.5597 20.9736 15.884 18.2959H12.1019C8.83333 18.2959 6.29398 17.4998 4.43009 15.9095C2.5662 14.3449 1.62083 12.0112 1.62083 8.96245C1.62083 6.7612 2.4581 4.7465 4.10578 2.83722C5.78102 0.954293 8.07732 0 10.9678 0C15.5329 0 18.7745 1.45849 20.719 4.37477C22.691 7.3181 23.6639 11.163 23.6639 15.9095C23.6639 19.2766 22.9072 22.3524 21.4213 25.1098C19.9361 27.8944 18.1259 30.3598 15.9921 32.5347C13.8039 34.7617 11.4808 36.6446 9.02269 38.2085C6.59144 39.7467 4.53819 41.0194 2.86296 42L0 37.3603Z" fill="#00A9A2"/>
</svg>
