<svg width="1011" height="1263" viewBox="0 0 1011 1263" fill="none" xmlns="http://www.w3.org/2000/svg">
<path d="M491.362 560.386C506.616 548.041 524.08 538.536 541.006 529.713C584.203 507.244 632.718 497.787 681.118 502.606C736.474 508.462 790.579 524.388 839.074 550.278C890.166 577.101 940.871 605.83 991.426 633.336C999.369 637.358 998.593 641.17 993.071 646.783C979.042 658.983 965.012 671.184 951.132 684.606C923.91 710.768 898.748 738.546 871.375 763.485C820.153 811.706 755.936 829.84 687.536 839.168L630.153 847.193C654.07 854.906 675.39 861.687 697.934 868.322C729.495 877.612 756.371 894.277 781.784 914.215C813.379 939.003 845.512 963.107 878.331 987.75C880.392 989.366 881.228 991.128 882.751 993.428C877.467 995.913 873.945 997.57 869.885 999.91C860.541 1004.74 849.823 1008.48 840.629 1014.53C808.687 1032.57 778.268 1052.91 745.489 1069.18C712.71 1085.46 677.212 1089.66 640.516 1084.08C606.955 1078.74 580.08 1062.08 553.442 1042.29C523.221 1018.58 492.312 994.327 462.091 970.617C446.293 958.223 431.182 946.368 415.385 933.974C415.922 933.29 416.997 931.923 418.071 930.556C426.402 932.671 435.27 934.103 443.75 937.441C477.97 953.237 512.34 970.256 546.023 986.736C575.734 1001.21 605.833 1013.77 638.857 1019.78C671.193 1025.26 703.707 1022.04 733.949 1010.4C743.442 1006.8 753.623 1003.74 763.116 1000.13C750.427 997.912 737.349 997.598 723.884 999.19C672.322 1004.05 620.189 994.089 573.905 971.038C550.076 958.973 528.009 946.081 504.18 934.016C467.749 915.381 430.006 901.241 389.727 891.742C386.442 890.27 383.844 889.337 381.097 887.182C395.099 884.906 409.55 886.298 422.478 885.389C455.529 881.482 486.791 888.327 518.978 892.582C537.937 895.301 556.659 901.148 575.381 906.995C614.049 918.545 651.493 930.24 689.086 943.157C705.897 948.611 720.022 957.482 736.295 963.619C753.256 970.294 771.291 975.603 788.251 982.279C788.639 980.373 789.176 979.689 789.564 977.783C662.618 889.24 521.474 847.021 365.116 858.067L364.517 853.178C368.577 850.837 372.787 849.72 376.309 848.063C391.924 843.736 408.762 839.265 424.525 836.161C445.723 831.795 467.607 827.967 489.103 826.046C535.769 821.768 582.046 819.397 628.711 815.119C644.087 813.921 659.851 810.818 675.078 808.397C648.773 806.547 623.305 806.458 596.613 806.513C567.473 806.858 538.183 805.981 509.729 806.865C486.172 807.17 462.078 808.158 438.67 809.686C423.294 810.884 408.217 814.527 392.841 815.725C389.169 816.159 385.048 812.926 382.45 811.993C391.107 806.629 397.854 800.87 406.273 798.635C431.53 791.928 457.324 784.537 483.717 782.037C532.294 778.154 581.169 776.715 629.895 774.055C658.199 771.948 686.652 771.064 714.657 766.513C770.129 758.094 818.311 730.694 864.133 699.233C880.76 687.966 895.327 675.082 910.581 662.738L909.058 660.438C906.759 661.949 904.311 662.239 902.012 663.751C866.846 685.891 831.531 706.808 791.347 718.381C777.644 723.101 763.791 726.599 750.088 731.32C718.622 743.101 686.346 743.197 653.683 745.199C617.885 746.951 582.176 744.352 546.378 746.105C508.669 747.463 471.409 752.489 434.597 761.182C388.143 772.255 345.422 788.467 306.645 816.615C310.256 810.607 312.643 804.744 316.553 801.182C338.791 779.95 361.029 758.719 383.267 737.487C394.311 726.26 405.205 713.81 416.25 702.583C442.248 676.567 469.62 651.628 501.263 631.144C547.385 602.128 597.45 585.047 650.685 583.714C705.144 582.235 755.964 596.689 806.546 614.271C824.731 620.802 843.453 626.649 862.324 633.719C863.399 632.352 863.786 630.446 864.324 629.762C841.719 617.553 820.338 605.199 797.196 593.674C754.883 572.634 710.72 556.773 662.77 555.621C611.684 554.221 561.557 565.728 516.748 590.249C473.551 612.718 435.76 643.85 401.404 677.675C391.972 686.852 386.123 699.945 375.854 707.36C349.795 727.803 324.571 750.008 304.306 777.207C290.875 794.297 277.981 810.703 264.549 827.793C283.591 800.739 304.693 775.301 323.735 748.246C356.745 703.418 386.47 657.118 427.036 618.218C450.26 599.97 470.049 579.028 491.362 560.386Z" fill="#F8F8F8"/>
<path d="M416.573 0C418.395 4.74511 419.918 7.04529 420.218 9.4902C431.812 48.4242 452.363 84.439 481.422 113.867C502.775 136.145 521.83 159.935 539.661 183.87C571.59 226.601 584.232 274.092 573.228 326.239C569.352 345.3 561.116 364.256 553.418 382.528C544.257 404.074 534.56 426.303 524.026 446.771C517.103 461.231 508.806 474.613 501.196 488.535L503.257 490.152C505.555 488.64 508.391 486.444 510.69 484.932C533.703 459.888 557.403 435.384 578.355 408.723C602.531 377.961 618.615 341.956 623.919 304.124C628.925 263.847 642.111 224.464 661.33 188.707C677.624 159.497 696.815 133.665 725.085 116.061C734.28 110.013 744.698 103.821 755.565 101.296C791.54 90.8414 828.086 95.2014 862.932 105.963C900.913 116.974 938.656 131.114 978.575 132.595L1011 133.722C1009 137.678 1007.39 139.729 1007 141.635C990.408 168.4 973.127 194.626 956.534 221.391C943.014 242.832 929.645 265.496 916.125 286.937C902.456 307.155 883.979 323.601 860.095 331.386C836.898 339.709 812.716 345.049 788.921 348.482C743.779 355.06 698.637 361.638 658.187 386.263C644.933 394.651 630.991 402.5 617.05 410.349C629.169 397.755 642.661 386.238 655.467 374.183C698.331 333.77 745.615 299.036 795.946 268.902C824.365 252.52 852.785 236.139 880.518 219.218C893.772 210.83 904.966 200.825 916.846 191.36L914.636 188.521C904.218 194.713 894.486 201.444 883.381 207.098C854.812 222.257 826.63 235.511 798.748 251.209C761.522 271.732 726.655 296.317 693.999 323.741C684.954 331.011 675.223 337.743 666.327 346.235C658.507 353.361 650.836 361.709 643.702 369.373C635.881 376.498 627.523 384.308 619.703 391.433L616.955 389.277C639.696 351.864 661.064 313.374 685.866 277.577C699.684 258.581 716.251 241.741 735.027 227.739C771.893 199.197 815.45 184.746 861.816 178.024C870.922 176.327 880.028 174.63 889.134 172.934C887.611 170.633 886.237 169.556 883.102 169.306C854.798 171.413 825.658 171.758 797.116 176.993C733.912 188.186 688.987 226.982 658.398 281.445C644.641 306.014 633.63 332.739 620.56 357.848C618.023 362.488 610.44 366.485 610.352 370.836C609.998 388.24 598.805 398.244 590.358 410.404C551.738 465.197 495.347 501.628 448.335 548.732C451.797 541.501 456.482 534.127 461.318 527.974C486.867 498.29 506.922 464.295 521.782 428.434C539.565 386.026 541.374 339.927 533.928 294.302C530.011 272.442 522.422 251.017 513.071 230.42C504.856 214.029 497.029 195.732 486.515 180.853C476.002 165.974 462.115 153.975 450.527 140.463C444.733 133.707 438.939 126.951 433.145 120.195C432.608 120.879 430.846 121.707 430.309 122.391C439.898 139.859 449.486 157.328 459.075 174.796C467.29 191.187 479.565 205.238 485.481 223.141C489.725 237.521 498.865 251.322 501.884 265.847C510.194 303.309 514.145 340.666 505.855 379.471C500.129 403.711 491.954 428.24 482.406 451.692C480.019 457.555 471.75 461.013 466.765 465.943C468.806 391.292 449.649 321.009 448.316 249.237C444.29 267.076 440.115 283.691 440.985 300.95C442.726 335.469 445.153 370.526 449.342 404.755C452.933 434.094 453.388 463.184 447.574 491.775C434.482 552.23 406.342 606.403 372.318 658.172C371.244 659.539 370.707 660.223 368.945 661.051L371.57 652.059C368.884 655.477 366.586 656.989 365.511 658.357C369.897 648.537 374.971 639.256 380.044 629.975C400.487 594.074 418.182 556.017 427.546 515.845C433.272 491.605 439.536 466.682 430.274 441.734C420.862 415.563 409.688 390.221 396.754 365.707C385.88 342.81 377.305 318.401 373.626 293.413C368.811 264.219 372.028 234.695 375.932 205.71C379.06 180.537 385.473 156.836 396.395 134.462C401.318 123.958 403.644 112.522 407.344 102.163L404.059 100.692C400.149 104.254 395.701 108.501 391.94 113.286C386.568 120.122 382.032 128.719 378.72 137.172C368.696 166.88 357.298 195.511 349.872 226.153C341.969 263.052 344.696 300.554 354.23 337.871C357.787 351.712 366.777 364.291 369.647 377.594C373.503 393.88 381.956 407.142 390.946 419.721C395.516 426.621 401.16 432.154 406.268 438.371C399.161 436.111 391.905 432.629 386.261 427.095C364.669 407.946 343.077 388.796 323.097 367.595C299.384 341.256 288.537 308.434 284.886 273.522C280.574 228.146 297.433 188.328 314.979 149.049C323.214 130.093 337.869 112.858 349.389 95.374C367.744 67.7807 385.562 40.871 403.917 13.2777C407.677 8.49255 411.438 3.70748 416.573 0Z" fill="#F8F8F8"/>
<path d="M712.965 463.496C694.631 455.743 674.148 450.724 655.426 444.876C652.828 443.943 650.767 442.327 648.707 440.71C665.307 439.367 679.996 437.631 694.148 436.577C708.987 436.063 725.05 435.404 739.888 434.89C763.445 434.585 787.689 434.818 811.097 433.291C819.128 432.961 827.248 428.281 835.667 426.045L834.532 421.839L686.531 425.076C690.442 421.514 694.74 416.045 699.187 411.799C744.05 367.429 781.698 360.498 833.328 386.637C849.901 395.219 867.249 399.989 884.896 407.203C892.69 410.002 901.02 412.117 911.262 414.627C898.695 423.554 886.515 430.575 876.396 439.212C826.425 477.364 772.327 486.861 712.965 463.496Z" fill="#F8F8F8"/>
<path d="M434.766 1061.9C465.613 1080.57 479.357 1116.77 510.591 1133.54C498.072 1097.2 470.686 1071.29 444.225 1042.8C449.809 1042.76 455.78 1040.81 460.975 1042.68C482.832 1048.77 501.914 1062.64 514.25 1082.26C527.273 1102.43 532.564 1125.36 535.407 1148.59C537.052 1162.04 538.011 1174.95 539.119 1189.08C525.831 1181.97 514.454 1175.25 502.689 1170.44C456.554 1148.61 436.541 1111.91 434.766 1061.9Z" fill="#F8F8F8"/>
<path d="M369.086 1083.31C371.895 1091.03 377.152 1098.47 378.049 1105.81C380.293 1124.15 391.732 1136.43 403.32 1149.95C397.757 1114.64 384.999 1081.42 371.555 1047.67C418.791 1058.21 436.608 1142.91 403.959 1195.76C394.282 1182.64 383.53 1170.89 375.077 1157.63C365.25 1143.29 357.185 1128.12 350.344 1112.8C341.68 1092.75 349.943 1063.87 366.72 1053.82C354.601 1066.42 366.128 1074.35 369.086 1083.31Z" fill="#F8F8F8"/>
<path d="M230.159 846.121C229.78 845.823 247.272 822.934 269.228 794.996C291.185 767.058 309.292 744.651 309.671 744.949C310.051 745.246 292.559 768.135 270.602 796.073C248.645 824.011 230.538 846.418 230.159 846.121Z" fill="#F8F8F8"/>
<path d="M430.271 999.802C430.271 999.802 380.199 879.847 257.184 864.008L217.326 868.101C217.326 868.101 360.491 871.016 414.031 1009.16C414.718 1009.7 444.878 1027.84 430.271 999.802Z" fill="#F8F8F8"/>
<path d="M407.659 1073.78C407.659 1073.78 386.367 945.466 270.003 902.797L230.322 898.188C230.322 898.188 368.808 933.9 390.433 1080.16C390.97 1079.48 416.295 1103.77 407.659 1073.78Z" fill="#F8F8F8"/>
<path d="M11.6663 506.73C-1.9823 491.602 -16.4949 484.637 -36.7672 486.414C-41.6637 486.993 -46.7096 486.349 -51.7556 485.706C-97.0199 481.136 -133.634 445.781 -139.169 400.55C-142.012 377.323 -142.943 354.49 -145.249 330.58C-132.26 335.245 -120.495 340.055 -107.506 344.719C-80.3035 353.905 -55.2505 365.824 -33.6588 384.974C-10.0067 405.74 -3.7298 431.662 -4.34882 462.118C-44.7507 441.472 -74.7953 409.06 -108.601 381.433C-106.479 388.623 -103.67 396.352 -98.7126 401.347C-83.6904 417.553 -68.5187 434.981 -50.8102 447.769C-24.8594 467.024 3.24042 483.544 25.4304 507.583C32.5981 515.417 40.4528 523.789 48.1578 530.939C48.695 530.256 49.9193 530.111 50.9937 528.744C50.6945 526.299 49.7083 523.315 48.8719 521.554C39.9974 494.7 28.6745 468.135 22.2481 440.991C12.8023 399.323 11.3882 357.325 29.3214 316.14C30.7835 312.867 32.3951 310.816 34.5441 308.082L37.1419 309.015C35.5913 316.639 34.5781 323.58 33.5648 330.52C32.4971 357.31 28.2941 383.85 31.4358 409.521C37.2432 467.122 59.8887 520.251 88.8928 569.528C127.186 633.829 150.403 701.772 146.064 777.934C144.398 799.834 140.82 821.34 138.617 843.923C163.235 791.406 175.85 737.208 164.46 679.648C157.285 646.392 146.976 612.887 138.428 578.553C129.73 542.997 124.167 507.69 136.579 472.119C151.914 430.001 178.987 402.617 226.04 396.433C250.522 393.539 275.242 387.515 299.574 383.398C299.574 383.398 300.948 384.476 302.322 385.554C274.623 417.972 263.198 456.528 260.253 498.421C255.758 547.938 247.59 597.89 235.451 645.831C227.249 680.285 219.048 714.739 209.622 749.337C207.772 754.516 205.922 759.696 203.386 764.336C201.325 762.72 201.026 760.275 201.414 758.369C209.88 710.862 208.942 662.607 201.883 615.076C199.102 597.422 196.858 579.085 195.838 560.604C194.873 522.273 208.508 486.557 224.741 451.774C227.128 445.911 229.515 440.048 233.364 430.912C229.841 432.568 227.005 434.764 224.17 436.959C190.35 470.102 173.016 516.176 175.028 563.064C176.443 605.062 180.992 647.309 181.182 689.452C182.331 744.503 174.612 798.122 151.069 849.272C134.298 884.738 116.841 919.667 100.758 955.672C66.0544 1032.32 45.4144 1112.27 65.8292 1197.91C65.9787 1199.13 65.9789 1199.13 66.1285 1200.36C65.7408 1202.26 65.3531 1204.17 65.1151 1207.3C63.0545 1205.68 62.2181 1203.92 60.6948 1201.62C51.5211 1172.32 45.8699 1141.36 47.0261 1110.22C46.7408 1047.01 64.1914 986.659 86.8375 928.175C104.172 882.1 116.461 835.381 112.238 785.654C108.491 729.671 77.5488 689.924 31.2033 661.299C-20.4874 629.587 -77.6661 618.985 -135.919 609.751C-137.83 609.357 -139.741 608.963 -142.339 608.03L-141.89 611.697C-140.517 612.775 -139.143 613.852 -137.232 614.247C-111.254 623.576 -85.8132 633.59 -60.5221 642.381C-21.5551 656.376 16.8745 671.055 47.6945 699.655C58.1468 708.96 66.4504 721 75.1414 731.134C74.6042 731.817 73.5297 733.184 72.3056 733.329C63.2881 730.675 54.6583 726.114 45.6407 723.46C4.82397 714.645 -37.0673 707.196 -78.5709 697.842C-120.761 687.948 -158.477 663.884 -183.775 629.671C-211.133 593.841 -226.7 552.896 -243.49 512.096C-244.326 510.335 -243.402 507.745 -244 502.855L-197.804 530.257C-201.714 533.82 -203.326 535.871 -206.162 538.066C-184.781 550.42 -162.686 553.388 -139.129 553.083C-122.38 552.963 -105.779 551.621 -89.5668 552.184C-10.9525 555.29 50.0549 592.102 92.1703 657.191C108.24 681.955 119.712 709.742 134.17 736.556C129.804 711.029 125.826 683.596 117.251 659.187C92.2452 601.996 55.0603 551.826 11.6663 506.73Z" fill="#F8F8F8"/>
<path d="M-63.0386 723.289C-31.0897 730.672 0.172119 737.517 31.0466 746.268C49.7684 752.116 67.5654 760.553 78.6773 780.321C76.7664 779.927 74.1686 778.994 72.2576 778.6C49.1155 767.075 24.722 765.618 -0.984009 768.658C-17.4344 771.223 -33.7354 775.01 -49.7982 775.67C-103.958 779.593 -161.98 741.808 -175.642 675.835C-173.044 676.768 -170.446 677.701 -168.386 679.318C-135.328 700.832 -100.033 715.261 -63.0386 723.289Z" fill="#F8F8F8"/>
<path d="M15.9791 217.265C16.8834 250.022 28.9542 282.699 18.0052 314.998C-10.1557 292.904 -20.5535 263.75 -18.6219 228.798C-17.4658 197.657 -2.78333 170.498 9.00214 139.961C25.847 160.912 42.2431 178.196 55.2661 198.359C72.0225 223.661 73.5522 251.383 56.9587 278.148C52.2731 285.523 47.0504 293.581 41.8275 301.64L38.5428 300.168C34.415 271.512 36.9451 241.45 15.9791 217.265Z" fill="#F8F8F8"/>
<path d="M190.923 261.689C184.448 279.816 172.092 295.539 155.852 304.9C135.015 317.285 113.492 329.131 93.1919 340.832L156.05 260.851C123.482 283.924 96.9459 310.625 83.6098 348.786C80.2979 357.239 75.7619 365.836 70.539 373.894C66.5402 381.808 62.5416 389.722 57.856 397.096L52.6603 395.23C58.5361 372.213 62.3514 347.579 70.825 325.495C83.6237 288.017 111.084 258.727 146.998 242.699C167.597 233.443 188.196 224.187 208.795 214.93C202.559 229.929 196.472 246.151 190.923 261.689Z" fill="#F8F8F8"/>
<path d="M334.638 426.378C338.072 429.073 340.282 431.912 342.492 434.751C346.525 442.335 349.871 449.38 352.679 457.109C364.24 480.545 371.054 505.783 372.285 531.06C373.393 545.191 370.143 559.217 362.92 571.232L351.353 522.374L345.919 523.636C347.415 535.861 349.598 548.625 349.87 560.994C350.829 573.902 354.236 586.521 342.118 599.115C331.57 568.738 320.635 540.268 316.895 509.706C314.29 483.351 315.508 457.784 326.817 433.504C330.34 431.847 332.489 429.113 334.638 426.378Z" fill="#F8F8F8"/>
<path d="M291.427 509.617C304.218 558.331 336.296 602.284 321.083 655.549L318.098 656.522L300.505 629.458C299.281 629.603 298.206 630.97 296.982 631.115L308.876 672.494C260.769 644.698 259.702 559.874 291.427 509.617Z" fill="#F8F8F8"/>
<path d="M87.4287 1019.26C108.905 941.067 158.094 881.305 210.567 823.014L213.851 824.486C207.166 835.818 201.168 847.688 193.647 857.259C168.934 888.704 142.996 920.294 125.002 955.906C84.3887 1040.08 72.6777 1127.03 96.1391 1217.27C99.8453 1232.33 106 1247.11 110.93 1262.03L107.945 1263C102.776 1251.21 95.1596 1239.71 91.2153 1227.77C64.8636 1159.58 67.5027 1089.82 87.4287 1019.26Z" fill="#F8F8F8"/>
<path d="M82.1271 387.406C91.2603 375.785 98.3329 362.547 109.139 354.449C135.348 335.228 162.544 318.991 190.127 300.847C198.886 341.977 134.348 393.013 82.1271 387.406Z" fill="#F8F8F8"/>
</svg>
