<svg width="68" height="76" viewBox="0 0 68 76" fill="none" xmlns="http://www.w3.org/2000/svg">
<path d="M36.1574 35.3111C36.6295 34.3062 36.9157 33.2185 37.1715 32.1695C37.822 29.4931 37.6854 26.7008 36.7657 24.1082C35.6948 21.1477 34.0874 18.3922 32.0083 16.0798C29.8427 13.6373 27.5777 11.2419 25.3818 8.83821C25.0533 8.45648 24.8543 8.55068 24.6205 8.92995C24.1398 9.86559 23.659 10.8012 23.1091 11.7452C22.0395 13.5944 20.8532 15.3524 19.8529 17.1932C17.8956 20.6591 17.7678 24.4311 18.1806 28.3136L18.5159 31.5734C17.7684 30.3645 17.1072 29.2855 16.4375 28.1374C15.4999 26.53 14.2203 25.2798 12.7806 24.1543C10.9907 22.7549 9.23113 21.3168 7.43263 19.8483C7.3159 19.757 7.20778 19.7349 7.06075 19.6824C6.99566 20.0063 6.95227 20.2221 6.87857 20.4768C6.73979 21.0552 6.67883 21.6945 6.47084 22.2813C5.91159 24.2797 5.20532 26.2256 4.7542 28.246C4.30307 30.2665 4.55269 32.2727 5.35602 34.2123C6.10323 35.983 7.3828 37.2332 8.8311 38.4279C10.5432 39.7665 12.2941 41.1354 14.0062 42.4739C14.9012 43.1736 15.7572 43.8428 16.6521 44.5425C16.6824 44.5038 16.743 44.4262 16.8037 44.3487C16.5747 43.9199 16.376 43.4523 16.0778 43.0318C14.7466 41.3665 13.3461 39.7096 11.9846 38.0831C10.7874 36.6474 9.6896 35.1647 8.9121 33.4327C8.1735 31.7312 7.91078 29.902 8.14118 28.0837C8.21074 27.5136 8.2414 26.9131 8.31097 26.3429C8.60468 27.0097 8.79889 27.7236 8.89357 28.4846C9.32431 31.3818 10.577 34.1099 12.4702 36.3394C13.4557 37.4846 14.4629 38.5218 15.4484 39.667C16.9655 41.4152 18.2534 43.2963 19.3205 45.3796C19.4458 45.5401 19.5322 45.6701 19.6879 45.7918C19.6235 44.992 19.3515 44.2173 19.2265 43.4951C18.9941 41.6272 18.1949 40.0031 17.5255 38.2932C17.1195 37.2889 16.5448 36.34 15.9701 35.391C14.8121 33.424 13.6627 31.5262 12.4441 29.6367C11.9169 28.7874 11.2382 28.1319 10.6807 27.3213C10.0843 26.4804 9.54855 25.5619 8.95216 24.7209C9.05167 24.6738 9.08198 24.635 9.1815 24.5879C15.7657 30.36 19.9958 37.5392 21.5043 46.2751L21.7811 46.2417C21.8548 45.9871 21.8593 45.7408 21.9027 45.5249C21.9292 44.6089 21.9472 43.6237 21.9045 42.716C21.8577 41.4928 21.7719 40.2392 21.5867 39.0327C21.1904 36.4122 20.6946 33.8388 20.2983 31.2182C20.1561 30.3577 20.1134 29.45 20.0404 28.581C20.498 30.0005 20.8475 31.3978 21.2056 32.8644C21.5809 34.4693 22.0254 36.0658 22.3618 37.6403C22.6638 38.9381 22.9355 40.2746 23.1682 41.5807C23.3104 42.4413 23.3142 43.3185 23.4564 44.1791C23.4822 44.3867 23.7157 44.5692 23.8021 44.6992C23.9798 44.1512 24.205 43.7027 24.214 43.2101C24.2409 41.7323 24.298 40.2157 24.0784 38.7325C23.6346 36.0124 23.0523 33.3089 22.5393 30.5971C22.2721 29.0143 21.9357 27.4398 21.8069 25.8403C21.5191 22.6801 22.3731 19.6632 23.4823 16.7208C23.8766 15.6552 24.3876 14.6808 24.8597 13.6759L25.0067 13.7284C24.9548 13.8751 24.972 14.0135 24.92 14.1602C24.1789 16.3911 23.5071 18.6137 23.4147 20.9771C23.3407 21.7936 23.3359 22.6017 23.2618 23.4181C23.04 25.3056 23.4715 27.0793 23.8034 28.9C24.1914 30.8896 24.8174 32.8154 25.2055 34.8049C25.641 36.8941 25.869 39.0083 25.8893 41.1475C25.9092 43.8485 25.5961 46.414 24.5737 48.9246C24.8551 48.645 25.145 48.4345 25.2879 48.1715C26.154 46.6628 27.02 45.1541 27.8861 43.6454C28.3537 42.8869 28.8906 42.12 29.3582 41.3615C30.4364 39.5815 31.4367 37.7406 32.1344 35.7256C33.1051 32.7999 33.3665 29.8192 32.7196 26.8778C32.064 23.8672 30.5819 21.2722 28.9312 18.7326C28.3262 17.8224 27.7515 16.8735 27.1076 15.9329C27.1682 15.8554 27.2677 15.8083 27.298 15.7696C28.2749 16.8456 29.2432 17.8524 30.1898 18.9671C31.9187 21.0058 33.388 23.2162 34.1001 25.8338C34.8683 28.6201 34.914 31.5287 34.1726 34.3214C33.5221 36.9978 32.3224 39.4947 30.9281 41.8394C30.5513 42.4817 29.9108 42.9801 29.6422 43.6445C28.8712 45.3524 27.9921 47.0382 26.7714 48.5194C26.0138 49.4884 25.2865 50.4187 24.5289 51.3877C25.7583 49.9756 26.8709 48.4723 28.1002 47.0603C30.1174 44.6405 32.26 42.3811 33.8492 39.6267C34.5379 38.1043 35.4212 36.7339 36.1574 35.3111Z" fill="#4B8581"/>
<path d="M67.9695 31.8293C67.684 31.7934 67.537 31.7409 67.3985 31.7576C65.1018 31.6481 62.8442 31.0073 60.8336 29.8101C59.3202 28.9392 57.7549 28.2149 56.1981 27.5599C53.4175 26.3852 50.6362 26.3341 47.919 27.6446C46.9238 28.1156 45.9934 28.8245 45.0932 29.4947C44.033 30.2895 42.9424 31.1231 41.96 31.9788C41.2589 32.5548 40.6356 33.1916 39.9734 33.798L39.8567 33.7068C39.9087 33.5601 39.991 33.3746 40.043 33.2279C41.1081 31.625 42.1343 29.9917 43.3161 28.48C44.6797 26.7358 46.4411 25.365 48.4486 24.5614C50.5946 23.7411 52.5808 22.4836 54.286 20.944C55.671 19.6537 56.8311 18.25 57.4162 16.4591C57.6242 15.8723 57.8236 15.2164 57.8153 14.5854C57.9032 12.4683 57.169 10.5204 56.1061 8.7526C54.987 6.81601 53.6991 4.93485 53.0776 2.76277L52.577 0.997424C52.3865 1.1608 52.2956 1.27709 52.1961 1.32419C50.9496 2.59786 49.7419 3.90196 48.4954 5.17564C47.4999 6.20842 46.4351 7.24953 45.4396 8.28231C44.5133 9.30675 43.8594 10.5441 43.7547 11.9611C43.6111 13.3477 43.6448 14.7479 43.778 16.1011C44.0273 18.6692 44.2766 21.2372 43.4704 23.792C43.1887 24.6334 42.946 25.5053 42.7032 26.3771C43.2314 25.5411 43.6818 24.6442 44.1712 23.7777C45.8124 20.8766 47.0817 17.8096 48.0569 14.6377C48.5728 12.8552 49.0886 11.0727 49.6434 9.32061C49.9251 8.47916 50.3235 7.72899 50.683 6.94838L50.8689 7.03131C50.6696 7.68729 50.4313 8.31285 50.2708 8.99925C49.8241 10.7734 49.477 12.5005 48.9915 14.2442C48.3671 16.5664 47.4876 18.814 46.4222 20.9787C46.145 21.5738 45.9067 22.1994 45.5603 22.8029C45.2745 23.3288 44.9194 23.8631 44.5947 24.3587C44.3089 24.8846 43.9928 25.4493 43.707 25.9753L43.8626 26.097C45.6112 24.3415 47.4376 22.6469 49.0695 20.8001C49.9266 19.784 50.6281 18.6463 51.1436 17.4256C52.2135 15.0146 52.4184 12.4269 52.1605 9.78973C52.1306 9.2667 52.1006 8.74367 52.0707 8.22065C52.2177 8.27315 52.2955 8.33399 52.3517 8.50277C52.6189 10.0856 52.9942 11.6905 53.0926 13.3287C53.3326 16.9512 51.8081 19.9436 49.2286 22.3609C48.0643 23.4491 46.7445 24.4156 45.5413 25.4734C45.3206 25.6756 45.2035 26.1461 44.9655 26.2099C44.0138 26.465 43.6153 27.2152 43.0613 27.8437C40.5723 30.7065 39.333 34.2965 37.3801 37.516C37.7307 37.228 38.0726 36.8709 38.3453 36.522C39.6312 34.717 41.2283 33.1553 42.9982 31.8537C45.0884 30.3028 47.5977 29.5792 50.2061 29.3702C51.4605 29.2893 52.7408 29.4159 53.9994 29.6505C55.0114 29.8796 56.123 30.0617 57.083 30.4375C58.043 30.8134 58.8905 31.4135 59.7899 31.8668C60.2396 32.0935 60.6893 32.3202 61.139 32.5469C61.1087 32.5857 61.087 32.6936 61.0567 32.7324C59.9669 32.4424 58.877 32.1524 57.7872 31.8624C56.7751 31.6332 55.8368 31.1494 54.7728 31.067C53.925 31.0287 53.0428 30.7137 52.2036 30.7446C50.0322 30.7955 47.9255 31.0845 45.9048 32.0652C44.65 32.7079 43.4124 33.489 42.2527 34.3309C41.9627 34.5414 41.8845 35.0423 41.681 35.3828C45.7564 34.2598 49.8785 34.36 53.8413 33.4613C52.9153 33.9239 52.0586 34.3782 51.0982 34.5642C49.1774 34.936 47.2178 35.2775 45.2798 35.511C43.6187 35.7111 42.0137 36.08 40.5209 36.7865C37.3753 38.3241 34.7786 40.6031 32.3936 43.1725C32.333 43.2501 32.3027 43.2888 32.281 43.3968L32.7396 43.1308C32.5881 43.3246 32.5361 43.4713 32.4755 43.5489C32.9559 43.175 33.3974 42.7707 33.8388 42.3664C35.5354 40.7577 37.3877 39.2706 39.4689 38.2123C40.7237 37.5696 42.0088 36.8881 43.5053 37.0589C45.0711 37.2214 46.6151 37.4917 48.1375 37.8701C49.5431 38.1571 51.0007 38.2975 52.4239 38.1611C54.0936 38.0301 55.6728 37.4537 57.2131 36.8468C58.5543 36.3341 59.7702 35.661 60.8521 34.7582C61.3628 34.3456 61.9599 34.063 62.4792 33.7196L62.6045 33.88C62.4616 34.143 62.2884 34.4447 62.0763 34.7161C61.7733 35.1037 61.3621 35.4692 60.9424 35.7655C59.4451 36.7183 58.0257 37.7319 56.4421 38.5547C54.5209 39.4883 52.4228 39.8465 50.2428 39.8283C49.4339 39.8204 48.6209 39.497 47.851 39.5196C46.9037 39.5284 46.0604 39.2438 45.2474 38.9204C44.8063 38.7629 44.4258 38.5279 44.015 38.3317C44.2354 38.6913 44.5249 39.0426 44.9054 39.2776C46.2501 40.204 47.5948 41.1304 49.0303 41.9404C50.7989 42.886 52.7496 43.0371 54.7179 42.7649C57.2701 42.3871 59.2305 40.9221 61.152 39.4267C62.0824 38.7177 62.8314 37.6796 63.6365 36.8102C64.9047 35.4285 66.1427 34.0857 67.4109 32.7041C67.6231 32.4327 67.8352 32.1614 67.9695 31.8293Z" fill="#4B8581"/>
<path d="M38.4843 21.8297C39.1585 22.7316 39.7115 23.7884 40.2862 24.7373C40.3727 24.8674 40.4894 24.9586 40.6061 25.0499C40.4553 24.1201 40.352 23.2899 40.2184 22.4985C40.0459 21.6767 39.8648 20.7857 39.6923 19.9639C39.3903 18.6661 39.0495 17.3379 38.8167 16.0318C38.7261 15.5863 38.8735 15.0771 38.8825 14.5844L39.129 14.5898L40.9536 22.761C41.0965 22.4981 41.339 22.188 41.5122 21.8863C43.3438 18.8217 43.2154 16.6605 41.0801 14.1792C40.3842 13.3854 39.8873 12.4973 39.252 11.6259C38.9927 11.2358 38.7637 10.807 38.4872 10.2786C38.1667 11.0896 37.9456 11.8535 37.6078 12.5262C36.1869 15.7869 36.3969 18.8863 38.4843 21.8297Z" fill="#4B8581"/>
<path d="M9.35889 45.2106C7.91507 43.7695 5.7395 43.505 4.39519 42.0169C6.56216 42.2122 8.35652 43.3653 10.2807 44.4325C10.2074 44.1253 10.2335 43.7711 10.0607 43.511C9.42986 42.3933 8.40958 41.5332 7.16408 41.1215C5.87968 40.6794 4.5474 40.6995 3.23234 40.858C2.471 40.9497 1.74856 41.0719 0.956909 41.2023C1.52748 41.8358 2.05052 42.3696 2.47406 42.9505C4.29803 45.1884 6.58586 45.7905 9.35889 45.2106Z" fill="#4B8581"/>
<path d="M9.07095 49.1073C8.60816 49.0577 8.12814 48.8698 7.71286 48.9198C6.67466 49.0449 5.84444 48.5832 4.94502 48.1298C6.96082 47.9572 8.95906 48.2079 10.9962 48.4891C9.77794 46.0378 4.88134 46.2065 2.41854 48.7151C3.27045 49.0689 4.06175 49.5002 4.90506 49.7847C5.82617 50.1302 6.76899 50.3677 7.70319 50.536C8.92286 50.7401 10.3984 49.8953 10.7235 48.838C10.1952 49.674 9.60297 49.1485 9.07095 49.1073Z" fill="#4B8581"/>
<path d="M23.9869 53.5244C24.0084 53.5412 25.0298 52.2707 26.2682 50.6866C27.5067 49.1025 28.4932 47.8047 28.4718 47.7879C28.4503 47.7711 27.4289 49.0416 26.1904 50.6257C24.952 52.2098 23.9654 53.5076 23.9869 53.5244Z" fill="#4B8581"/>
<path d="M12.8326 44.6165C12.8326 44.6165 20.1031 45.7417 22.6381 52.2825L22.9525 54.5267C22.9525 54.5267 20.8552 46.7044 12.5379 45.6351C12.499 45.6047 11.0941 44.194 12.8326 44.6165Z" fill="#4B8581"/>
<path d="M9.07237 46.8601C9.07237 46.8601 16.4131 46.2917 20.3327 52.1039L21.123 54.2205C21.123 54.2205 17.2864 47.0993 8.95493 47.8924C8.98524 47.8537 7.3076 46.7919 9.07237 46.8601Z" fill="#4B8581"/>
<path d="M45.5969 60.9267C46.6131 61.4714 47.1923 62.174 47.3689 63.3113C47.4033 63.588 47.507 63.8564 47.6106 64.1248C48.4742 66.5486 50.9128 68.0804 53.4737 67.7719C54.7888 67.6134 56.0563 67.3554 57.4017 67.1582C56.9695 66.5081 56.546 65.9271 56.1139 65.277C55.241 63.9076 54.2469 62.6933 52.9022 61.7669C51.4408 60.7493 49.9312 60.7556 48.2656 61.2021C49.947 63.1411 52.135 64.3521 54.1108 65.8343C53.6869 65.8152 53.2241 65.7656 52.8825 65.561C51.7885 64.9555 50.6253 64.3584 49.6829 63.5591C48.2735 62.3948 46.9853 61.0754 45.3638 60.1824C44.8363 59.8949 44.2698 59.5769 43.7726 59.2507C43.8029 59.2119 43.7943 59.1427 43.8549 59.0652C43.9933 59.0485 44.1707 59.0623 44.2788 59.0843C45.8748 59.208 47.4881 59.4701 49.0669 59.4554C51.4849 59.4098 53.8123 58.9187 55.8333 57.3762C55.9934 57.2516 56.0844 57.1353 56.2056 56.9803L56.1191 56.8502C55.7211 57.0386 55.3533 57.1883 54.9855 57.3379C53.5276 57.7593 52.1257 58.3496 50.6723 58.5247C47.4278 58.9858 44.2013 58.4617 41.1005 57.5363C37.0483 56.3042 32.9998 55.9494 28.8724 57.219C27.6913 57.6071 26.5577 58.0948 25.3463 58.5216C27.8997 56.4585 30.7078 55.0318 34.0256 54.8778C35.9505 54.8214 37.9315 54.9338 39.9342 54.9383C42.0062 54.9344 44.022 54.7618 45.8091 53.5985C47.9166 52.186 49.0553 50.3285 48.7585 47.6608C48.5864 46.2772 48.583 44.8382 48.48 43.4462C48.48 43.4462 48.4022 43.3854 48.3244 43.3245C46.9173 45.2846 44.9529 46.4341 42.6901 47.1632C40.0294 48.0806 37.3944 49.2056 34.9237 50.5214C33.141 51.4384 31.3583 52.3554 29.5843 53.3415C29.3246 53.5132 29.065 53.6849 28.8442 53.8871C28.961 53.9784 29.0994 53.9617 29.1989 53.9146C31.6954 52.8063 34.3603 52.2043 37.0683 51.9483C38.0762 51.8619 39.1144 51.7369 40.144 51.5426C42.2638 51.0765 44.0423 49.8441 45.7345 48.4816C46.0244 48.2711 46.3144 48.0606 46.7644 47.7255C46.721 47.9414 46.6387 48.1269 46.5564 48.3124C45.1925 50.6183 42.8946 52.1942 40.2903 52.7187C37.9629 53.2097 35.5793 53.532 33.2605 54.0923C30.2192 54.7747 27.3766 55.9247 24.8839 57.9103C23.1614 59.3115 21.4779 60.7431 19.7166 62.114C15.9731 65.0577 11.8582 67.2739 6.87514 67.3125C6.80593 67.3208 6.80593 67.3208 6.73671 67.3292C6.63719 67.3763 6.53768 67.4234 6.36895 67.4788C6.48568 67.5701 6.5938 67.5922 6.74083 67.6447C8.4753 67.7517 10.2532 67.6428 11.9491 67.1576C15.4273 66.3172 18.5082 64.5416 21.4162 62.506C23.7141 60.9301 26.1156 59.6226 28.9058 59.1811C32.0335 58.6287 34.6367 59.7897 36.8371 61.9471C39.2795 64.3562 40.6358 67.3526 41.9316 70.4265C41.9791 70.5261 42.0266 70.6257 42.113 70.7557L41.9054 70.7807C41.8276 70.7199 41.7497 70.659 41.7022 70.5594C40.8379 69.2592 39.9433 67.9977 39.118 66.7279C37.8215 64.7776 36.4948 62.866 34.5059 61.5609C33.853 61.1129 33.0789 60.82 32.4043 60.4799C32.374 60.5187 32.3134 60.5962 32.322 60.6654C32.5899 61.1246 32.9573 61.5368 33.2252 61.996C34.262 64.1181 35.2382 66.3177 36.3139 68.4701C37.4285 70.653 39.2615 72.3983 41.4842 73.3242C43.8237 74.3413 46.2847 74.6417 48.7544 75.0112C48.8625 75.0333 48.9923 74.9474 49.2692 74.9141L47.138 72.7483C46.9951 73.0113 46.9042 73.1276 46.8219 73.313C45.8536 72.3062 45.3915 71.1331 45.0896 69.8353C44.8695 68.9139 44.7187 67.9841 44.4684 67.1014C43.234 62.8264 40.3852 59.9748 36.238 58.5435C34.6595 57.9964 32.977 57.7427 31.3076 57.3118C32.7697 57.2059 34.3314 57.0529 35.789 57.1932C39.2706 57.7919 42.5312 59.1545 45.5969 60.9267Z" fill="#4B8581"/>
<path d="M34.7051 67.9618C33.867 66.3073 33.0678 64.6833 32.1691 63.1063C31.5944 62.1574 30.8899 61.2944 29.653 60.9519C29.7005 61.0515 29.787 61.1815 29.8345 61.2811C30.7811 62.3959 31.1912 63.7157 31.3719 65.1685C31.4535 66.1066 31.4659 67.053 31.647 67.944C32.1642 70.9713 35.026 73.6459 38.8369 73.5027C38.7504 73.3727 38.664 73.2427 38.5473 73.1514C36.9175 71.6274 35.6469 69.8846 34.7051 67.9618Z" fill="#4B8581"/>
<path d="M61.4482 56.7699C59.6356 57.1639 57.6763 56.9435 56.0492 57.9822C57.6446 59.2294 59.3876 59.4056 61.2826 58.8262C62.9785 58.341 64.2726 57.1669 65.7915 56.1062C64.412 55.4649 63.2402 54.7985 61.9558 54.3564C60.3384 53.7789 58.7941 54.0703 57.5475 55.344C57.2056 55.7012 56.8333 56.0971 56.4611 56.4931L56.5864 56.6535C58.2172 56.4921 59.8353 55.9461 61.4482 56.7699Z" fill="#4B8581"/>
<path d="M56.6396 47.7646C55.7308 48.3656 55.0339 49.257 54.7391 50.2756C54.3403 51.5876 53.9805 52.93 53.612 54.2032L57.1574 49.6682C56.3299 51.7692 55.2215 53.5879 53.3045 54.8371C52.8847 55.1334 52.4736 55.4989 52.1013 55.8949C51.7205 56.2216 51.3396 56.5484 50.9977 56.9056L51.1705 57.1656C52.3561 56.5312 53.6585 55.9881 54.7576 55.2237C56.6443 54.0134 57.8826 52.1087 58.2776 49.9195C58.5076 48.663 58.7377 47.4064 58.9677 46.1499C58.2277 46.6955 57.4185 47.2494 56.6396 47.7646Z" fill="#4B8581"/>
<path d="M45.6433 42.1028C45.4488 41.9507 45.2628 41.8677 45.0769 41.7848C44.6055 41.6661 44.173 41.5777 43.7102 41.5282C42.2656 41.2107 40.7863 41.1783 39.3804 41.453C38.5887 41.5835 37.8618 41.9519 37.2991 42.5113L40.141 42.4848L40.1451 42.8003C39.453 42.8837 38.722 42.9367 38.0384 43.0893C37.316 43.2114 36.5763 43.1952 36.0481 44.0312C37.8604 44.1991 39.5732 44.414 41.3035 44.2055C42.7873 43.9917 44.176 43.5786 45.3575 42.6287C45.4009 42.4128 45.5221 42.2578 45.6433 42.1028Z" fill="#4B8581"/>
<path d="M41.653 45.6029C38.8025 45.5602 35.9527 44.3938 33.231 45.9506L33.2179 46.1277L34.9434 46.7273C34.952 46.7965 34.8914 46.874 34.9 46.9432L32.4648 46.8504C34.6434 49.1157 39.32 48.0256 41.653 45.6029Z" fill="#4B8581"/>
<path d="M16.4022 63.707C20.409 61.4688 23.0282 57.9583 25.522 54.2874L25.3967 54.1269C24.8643 54.6475 24.293 55.1376 23.8688 55.6803C22.4748 57.4632 21.0895 59.3154 19.3757 60.7858C15.2989 64.1559 10.6781 65.9766 5.40101 65.9102C4.52293 65.9107 3.62764 65.7728 2.74095 65.7041L2.72787 65.8812C3.44583 66.0053 4.181 66.2679 4.89035 66.3228C8.99494 66.8464 12.7934 65.7568 16.4022 63.707Z" fill="#4B8581"/>
<path d="M51.2019 55.4415C51.7171 54.7826 52.3489 54.2149 52.6478 53.5118C53.3496 51.8123 53.8741 50.0989 54.4981 48.3385C52.119 48.4145 50.1872 52.6497 51.2019 55.4415Z" fill="#4B8581"/>
</svg>
