<svg width="20" height="20" viewBox="0 0 20 20" fill="none" xmlns="http://www.w3.org/2000/svg">
<path fill-rule="evenodd" clip-rule="evenodd" d="M9.96141 19.5371C9.89619 19.5371 9.83237 19.5371 9.76715 19.5371C8.23527 19.5412 6.81994 19.5024 5.44485 19.4178C4.18354 19.3415 3.03185 18.9044 2.11467 18.1566C1.22939 17.4352 0.625797 16.4599 0.317755 15.257C0.0499527 14.2096 0.036077 13.1829 0.0222012 12.1882C0.0124882 11.4751 0.00277515 10.6302 0 9.77C0.00138758 8.90705 0.0124882 8.06215 0.0222012 7.34904C0.036077 6.35568 0.0499527 5.32764 0.317755 4.28018C0.624409 3.07733 1.22939 2.10201 2.11467 1.38058C3.03185 0.632783 4.18354 0.19715 5.44485 0.119457C6.82132 0.0362148 8.23665 -0.0026315 9.77131 0.000143238C11.3032 -0.0026315 12.7185 0.0348275 14.0936 0.119457C15.3549 0.195762 16.5066 0.632783 17.4238 1.38058C18.3091 2.10201 18.9127 3.07872 19.2207 4.28018C19.4885 5.32764 19.5024 6.35429 19.5163 7.34904C19.526 8.06215 19.5357 8.90705 19.5385 9.76722V9.77138C19.5371 10.6302 19.526 11.4765 19.5163 12.1896C19.5024 13.1829 19.4885 14.211 19.2207 15.2584C18.9141 16.4613 18.3091 17.4366 17.4238 18.158C16.5066 18.9058 15.3549 19.3415 14.0936 19.4191C12.7754 19.4996 11.4225 19.5385 9.96141 19.5385V19.5371ZM9.76715 18.011C11.2741 18.0151 12.6575 17.9763 14.0006 17.8944C14.9553 17.8362 15.7823 17.5268 16.4594 16.9746C17.0852 16.4641 17.5168 15.7593 17.7416 14.8797C17.9636 14.0084 17.9774 13.0719 17.9885 12.1674C17.9983 11.4584 18.008 10.6205 18.0107 9.76861C18.008 8.91676 17.9983 8.07879 17.9885 7.36985C17.9761 6.46528 17.9636 5.52881 17.7416 4.65754C17.5168 3.77795 17.0852 3.07317 16.4594 2.56261C15.7823 2.01044 14.9553 1.70106 14.0006 1.64279C12.6575 1.56093 11.2741 1.52347 9.77131 1.52625C8.26441 1.52209 6.88099 1.56093 5.53782 1.64279C4.58316 1.70106 3.75617 2.01044 3.07903 2.56261C2.45323 3.07317 2.0217 3.77795 1.79691 4.65754C1.5749 5.52881 1.56102 6.46528 1.54992 7.36985C1.54021 8.07879 1.5305 8.91815 1.52772 9.77C1.52911 10.6177 1.54021 11.457 1.54992 12.1674C1.56241 13.0719 1.5749 14.0084 1.79691 14.8797C2.0217 15.7593 2.45323 16.4641 3.07903 16.9746C3.75617 17.5268 4.58316 17.8362 5.53782 17.8944C6.88238 17.9763 8.26579 18.0137 9.76854 18.011H9.76715ZM9.73107 14.5398C7.10162 14.5398 4.96059 12.4004 4.96059 9.77C4.96059 7.13954 7.10023 5.00022 9.73107 5.00022C12.3619 5.00022 14.5016 7.13954 14.5016 9.77C14.5016 12.4004 12.3619 14.5398 9.73107 14.5398ZM9.73107 6.52771C7.94249 6.52771 6.48692 7.98307 6.48692 9.77138C6.48692 11.5597 7.94249 13.0151 9.73107 13.0151C11.5197 13.0151 12.9752 11.5597 12.9752 9.77138C12.9752 7.98307 11.5197 6.52771 9.73107 6.52771ZM15.0358 3.4755C14.403 3.4755 13.891 3.98744 13.891 4.62008C13.891 5.25272 14.403 5.76466 15.0358 5.76466C15.6685 5.76466 16.1805 5.25272 16.1805 4.62008C16.1805 3.98744 15.6685 3.4755 15.0358 3.4755Z" fill="white"/>
</svg>
