<svg width="15" height="18" viewBox="0 0 15 18" fill="none" xmlns="http://www.w3.org/2000/svg">
<path fill-rule="evenodd" clip-rule="evenodd" d="M12.7015 2.05588C11.2301 0.665986 9.28415 -0.0620393 7.2297 0.00414631C3.48694 0.129899 0.395088 2.96924 0.0357283 6.60283C-0.0320754 7.30439 -0.00495435 7.99936 0.130653 8.68769C0.137433 8.71416 0.150995 8.8002 0.184897 8.93257C0.300163 9.42896 0.469671 9.91211 0.686643 10.3688C1.44604 12.1227 3.10723 14.8165 6.68727 17.7154C6.92458 17.9073 7.20936 18 7.50091 18C7.79247 18 8.07724 17.9073 8.31456 17.7154C11.8946 14.8099 13.5558 12.1161 14.3152 10.3688C14.5322 9.90549 14.7017 9.42234 14.8169 8.93257C14.8508 8.8002 14.8644 8.71416 14.8712 8.68769C14.9593 8.23763 15 7.77432 15 7.31102C14.9932 5.31221 14.1796 3.44578 12.7015 2.05588ZM13.5287 8.45601C13.5287 8.46925 13.5219 8.4759 13.5219 8.48251C13.5151 8.50237 13.5083 8.55531 13.488 8.63473C13.488 8.64135 13.488 8.64135 13.488 8.64135C13.3931 9.04508 13.2574 9.44881 13.0744 9.83269C13.0676 9.8393 13.0676 9.84594 13.0676 9.85256C12.3692 11.4609 10.8369 13.9428 7.49413 16.6697C4.15141 13.9494 2.61905 11.4609 1.92067 9.85256C1.91389 9.84594 1.91389 9.8393 1.91389 9.83269C1.73082 9.44881 1.59521 9.0517 1.50028 8.64135C1.50028 8.63474 1.50028 8.63473 1.50028 8.63473C1.47994 8.55531 1.47317 8.50237 1.46639 8.48251C1.46639 8.46928 1.4596 8.46263 1.4596 8.45601C1.33756 7.88682 1.31044 7.3044 1.36468 6.72858C1.65624 3.75023 4.19209 1.42051 7.2636 1.32123C8.94513 1.26167 10.5453 1.85732 11.7522 3.00233C12.9659 4.14734 13.6304 5.67624 13.6304 7.31764C13.6371 7.6949 13.6032 8.08537 13.5287 8.45601Z" fill="white"/>
<path fill-rule="evenodd" clip-rule="evenodd" d="M7.49413 3.49211C5.2973 3.49211 3.5005 5.23942 3.5005 7.39045C3.5005 9.54148 5.29051 11.2888 7.49413 11.2888C7.86705 11.2888 8.17217 10.991 8.17217 10.6269C8.17217 10.2629 7.86705 9.96508 7.49413 9.96508C6.03636 9.96508 4.84979 8.80682 4.84979 7.38383C4.84979 5.96084 6.03636 4.80261 7.49413 4.80261C8.95191 4.80261 10.1385 5.96084 10.1385 7.38383C10.1385 7.99935 9.91472 8.59504 9.50112 9.05834C9.25703 9.33632 9.29093 9.75327 9.57571 9.99154C9.86048 10.2298 10.2876 10.1967 10.5317 9.91874C11.1487 9.21718 11.4878 8.31705 11.4878 7.39045C11.4878 5.24604 9.69775 3.49211 7.49413 3.49211Z" fill="white"/>
</svg>
