<svg width="177" height="152" viewBox="0 0 177 152" fill="none" xmlns="http://www.w3.org/2000/svg">
<path d="M7.65475 147.225V138.992H8.66575V149.103H7.79918L2.16644 140.87V149.103H1.15543V138.992H2.02201L7.65475 147.225Z" fill="white"/>
<path d="M18.4824 143.296V141.881H19.4357V149.103H18.4824V147.687C17.818 148.746 16.8456 149.276 15.565 149.276C14.5347 149.276 13.6537 148.91 12.9219 148.178C12.1998 147.446 11.8387 146.551 11.8387 145.492C11.8387 144.433 12.1998 143.537 12.9219 142.805C13.6537 142.074 14.5347 141.708 15.565 141.708C16.8456 141.708 17.818 142.237 18.4824 143.296ZM13.6152 147.528C14.164 148.077 14.838 148.352 15.6372 148.352C16.4363 148.352 17.1103 148.077 17.6592 147.528C18.208 146.96 18.4824 146.281 18.4824 145.492C18.4824 144.693 18.208 144.019 17.6592 143.47C17.1103 142.911 16.4363 142.632 15.6372 142.632C14.838 142.632 14.164 142.911 13.6152 143.47C13.0663 144.019 12.7919 144.693 12.7919 145.492C12.7919 146.281 13.0663 146.96 13.6152 147.528Z" fill="white"/>
<path d="M24.0681 139.657C24.0681 139.849 24.0007 140.013 23.8659 140.148C23.7311 140.283 23.5674 140.35 23.3748 140.35C23.1823 140.35 23.0186 140.283 22.8838 140.148C22.749 140.013 22.6816 139.849 22.6816 139.657C22.6816 139.464 22.749 139.301 22.8838 139.166C23.0186 139.031 23.1823 138.964 23.3748 138.964C23.5674 138.964 23.7311 139.031 23.8659 139.166C24.0007 139.301 24.0681 139.464 24.0681 139.657ZM23.8515 149.103H22.8982V141.881H23.8515V149.103Z" fill="white"/>
<path d="M28.2718 149.103H27.3186V138.559H28.2718V149.103Z" fill="white"/>
<path d="M43.0044 143.296V141.881H43.9576V149.103H43.0044V147.687C42.34 148.746 41.3675 149.276 40.0869 149.276C39.0566 149.276 38.1756 148.91 37.4438 148.178C36.7217 147.446 36.3606 146.551 36.3606 145.492C36.3606 144.433 36.7217 143.537 37.4438 142.805C38.1756 142.074 39.0566 141.708 40.0869 141.708C41.3675 141.708 42.34 142.237 43.0044 143.296ZM38.1371 147.528C38.6859 148.077 39.3599 148.352 40.1591 148.352C40.9583 148.352 41.6323 148.077 42.1811 147.528C42.7299 146.96 43.0044 146.281 43.0044 145.492C43.0044 144.693 42.7299 144.019 42.1811 143.47C41.6323 142.911 40.9583 142.632 40.1591 142.632C39.3599 142.632 38.6859 142.911 38.1371 143.47C37.5883 144.019 37.3138 144.693 37.3138 145.492C37.3138 146.281 37.5883 146.96 38.1371 147.528Z" fill="white"/>
<path d="M50.7998 141.708C51.6664 141.708 52.3548 141.977 52.8651 142.517C53.3755 143.046 53.6306 143.763 53.6306 144.669V149.103H52.6774V144.669C52.6774 144.023 52.5041 143.523 52.1574 143.167C51.8204 142.81 51.339 142.632 50.7132 142.632C49.991 142.632 49.4181 142.858 48.9944 143.311C48.5804 143.763 48.3734 144.433 48.3734 145.318V149.103H47.4202V141.881H48.3734V143.008C48.9126 142.141 49.7214 141.708 50.7998 141.708Z" fill="white"/>
<path d="M63.1285 143.296V138.992H64.0818V149.103H63.1285V147.687C62.4642 148.746 61.4917 149.276 60.2111 149.276C59.1808 149.276 58.2998 148.91 57.568 148.178C56.8459 147.446 56.4848 146.551 56.4848 145.492C56.4848 144.433 56.8459 143.537 57.568 142.805C58.2998 142.074 59.1808 141.708 60.2111 141.708C61.4917 141.708 62.4642 142.237 63.1285 143.296ZM58.2613 147.528C58.8101 148.077 59.4841 148.352 60.2833 148.352C61.0825 148.352 61.7565 148.077 62.3053 147.528C62.8541 146.96 63.1285 146.281 63.1285 145.492C63.1285 144.693 62.8541 144.019 62.3053 143.47C61.7565 142.911 61.0825 142.632 60.2833 142.632C59.4841 142.632 58.8101 142.911 58.2613 143.47C57.7124 144.019 57.438 144.693 57.438 145.492C57.438 146.281 57.7124 146.96 58.2613 147.528Z" fill="white"/>
<path d="M78.3476 143.86C78.8483 144.072 79.2431 144.394 79.532 144.827C79.8208 145.261 79.9652 145.747 79.9652 146.286C79.9652 147.066 79.6908 147.73 79.142 148.279C78.5932 148.828 77.9288 149.103 77.1489 149.103H72.7438V138.992H76.8167C77.5581 138.992 78.1984 139.262 78.7376 139.801C79.2672 140.331 79.532 140.966 79.532 141.708C79.532 142.651 79.1372 143.369 78.3476 143.86ZM76.8167 139.946H73.7548V143.47H76.8167C77.2789 143.47 77.6785 143.301 78.0155 142.964C78.3525 142.608 78.521 142.189 78.521 141.708C78.521 141.236 78.3525 140.822 78.0155 140.466C77.6785 140.119 77.2789 139.946 76.8167 139.946ZM73.7548 148.149H77.1489C77.6496 148.149 78.0732 147.971 78.4199 147.615C78.7761 147.259 78.9542 146.816 78.9542 146.286C78.9542 145.766 78.7761 145.328 78.4199 144.972C78.0732 144.606 77.6496 144.423 77.1489 144.423H73.7548V148.149Z" fill="white"/>
<path d="M86.3363 141.708C87.4147 141.708 88.2764 142.088 88.9216 142.849C89.5859 143.6 89.9181 144.49 89.9181 145.521C89.9181 145.569 89.9085 145.718 89.8892 145.968H83.5488C83.6451 146.691 83.9532 147.268 84.4731 147.702C84.9931 148.135 85.643 148.352 86.4229 148.352C87.5206 148.352 88.2957 147.942 88.7482 147.124L89.5859 147.615C89.2682 148.135 88.8301 148.544 88.2716 148.843C87.7228 149.131 87.1017 149.276 86.4085 149.276C85.2723 149.276 84.348 148.92 83.6354 148.207C82.9229 147.495 82.5667 146.589 82.5667 145.492C82.5667 144.404 82.9181 143.504 83.621 142.791C84.3239 142.069 85.229 141.708 86.3363 141.708ZM86.3363 142.632C85.5852 142.632 84.9546 142.854 84.4443 143.296C83.9436 143.739 83.6451 144.322 83.5488 145.044H88.936C88.8301 144.274 88.5364 143.682 88.055 143.268C87.5543 142.844 86.9814 142.632 86.3363 142.632Z" fill="white"/>
<path d="M99.0891 143.296V141.881H100.042V149.103H99.0891V147.687C98.4248 148.746 97.4523 149.276 96.1717 149.276C95.1414 149.276 94.2604 148.91 93.5286 148.178C92.8065 147.446 92.4454 146.551 92.4454 145.492C92.4454 144.433 92.8065 143.537 93.5286 142.805C94.2604 142.074 95.1414 141.708 96.1717 141.708C97.4523 141.708 98.4248 142.237 99.0891 143.296ZM94.2219 147.528C94.7707 148.077 95.4447 148.352 96.2439 148.352C97.0431 148.352 97.7171 148.077 98.2659 147.528C98.8147 146.96 99.0891 146.281 99.0891 145.492C99.0891 144.693 98.8147 144.019 98.2659 143.47C97.7171 142.911 97.0431 142.632 96.2439 142.632C95.4447 142.632 94.7707 142.911 94.2219 143.47C93.673 144.019 93.3986 144.693 93.3986 145.492C93.3986 146.281 93.673 146.96 94.2219 147.528Z" fill="white"/>
<path d="M108.589 145.665V141.881H109.542V149.103H108.589V147.976C108.05 148.843 107.241 149.276 106.162 149.276C105.296 149.276 104.607 149.011 104.097 148.481C103.587 147.942 103.332 147.22 103.332 146.315V141.881H104.285V146.315C104.285 146.96 104.453 147.461 104.79 147.817C105.137 148.173 105.623 148.352 106.249 148.352C106.971 148.352 107.539 148.125 107.953 147.673C108.377 147.22 108.589 146.551 108.589 145.665Z" fill="white"/>
<path d="M116.83 141.881V142.805H114.75V147.182C114.75 147.576 114.827 147.86 114.982 148.034C115.136 148.197 115.367 148.284 115.675 148.294C115.983 148.294 116.368 148.284 116.83 148.265V149.103C115.8 149.257 115.035 149.184 114.534 148.886C114.043 148.578 113.797 148.01 113.797 147.182V142.805H112.281V141.881H113.797V140.148L114.75 139.859V141.881H116.83Z" fill="white"/>
<path d="M122.864 147.933L125.204 141.881H126.215L123.124 149.767C122.835 150.499 122.431 151.062 121.911 151.457C121.4 151.861 120.832 152.039 120.206 151.991V151.096C121.073 151.202 121.733 150.701 122.185 149.594L122.373 149.146L119.138 141.881H120.149L122.864 147.933Z" fill="white"/>
<path d="M137.188 149.276C136.264 149.276 135.469 149.059 134.805 148.626C134.15 148.183 133.693 147.576 133.433 146.806L134.299 146.301C134.482 146.936 134.819 147.427 135.31 147.774C135.811 148.12 136.442 148.294 137.202 148.294C137.944 148.294 138.526 148.13 138.95 147.803C139.374 147.475 139.586 147.032 139.586 146.474C139.586 145.944 139.393 145.545 139.008 145.275C138.632 145.006 137.997 144.726 137.101 144.437C136.033 144.081 135.339 143.802 135.022 143.6C134.251 143.138 133.866 142.468 133.866 141.592C133.866 140.735 134.165 140.061 134.762 139.57C135.349 139.07 136.085 138.819 136.971 138.819C137.732 138.819 138.406 139.021 138.993 139.426C139.581 139.821 140.019 140.345 140.308 141L139.456 141.477C138.993 140.36 138.165 139.801 136.971 139.801C136.336 139.801 135.826 139.96 135.44 140.278C135.065 140.586 134.877 141.01 134.877 141.549C134.877 142.059 135.05 142.435 135.397 142.675C135.753 142.926 136.326 143.181 137.116 143.441L137.896 143.715C138.059 143.763 138.29 143.85 138.589 143.975C138.916 144.1 139.143 144.206 139.268 144.293C139.778 144.601 140.101 144.885 140.235 145.145C140.476 145.53 140.597 145.964 140.597 146.445C140.597 147.302 140.284 147.99 139.658 148.51C139.032 149.021 138.209 149.276 137.188 149.276Z" fill="white"/>
<path d="M149.984 143.296V141.881H150.937V149.103H149.984V147.687C149.319 148.746 148.347 149.276 147.066 149.276C146.036 149.276 145.155 148.91 144.423 148.178C143.701 147.446 143.34 146.551 143.34 145.492C143.34 144.433 143.701 143.537 144.423 142.805C145.155 142.074 146.036 141.708 147.066 141.708C148.347 141.708 149.319 142.237 149.984 143.296ZM145.116 147.528C145.665 148.077 146.339 148.352 147.138 148.352C147.937 148.352 148.611 148.077 149.16 147.528C149.709 146.96 149.984 146.281 149.984 145.492C149.984 144.693 149.709 144.019 149.16 143.47C148.611 142.911 147.937 142.632 147.138 142.632C146.339 142.632 145.665 142.911 145.116 143.47C144.567 144.019 144.293 144.693 144.293 145.492C144.293 146.281 144.567 146.96 145.116 147.528Z" fill="white"/>
<path d="M155.353 149.103H154.399V138.559H155.353V149.103Z" fill="white"/>
<path d="M164.871 148.193C164.13 148.915 163.234 149.276 162.185 149.276C161.116 149.276 160.216 148.915 159.484 148.193C158.752 147.461 158.386 146.561 158.386 145.492C158.386 144.423 158.752 143.528 159.484 142.805C160.216 142.074 161.116 141.708 162.185 141.708C163.244 141.708 164.139 142.074 164.871 142.805C165.613 143.528 165.983 144.423 165.983 145.492C165.983 146.551 165.613 147.451 164.871 148.193ZM160.163 147.528C160.712 148.077 161.386 148.352 162.185 148.352C162.984 148.352 163.658 148.077 164.207 147.528C164.756 146.96 165.03 146.281 165.03 145.492C165.03 144.693 164.756 144.019 164.207 143.47C163.658 142.911 162.984 142.632 162.185 142.632C161.386 142.632 160.712 142.911 160.163 143.47C159.614 144.019 159.34 144.693 159.34 145.492C159.34 146.281 159.614 146.96 160.163 147.528Z" fill="white"/>
<path d="M172.402 141.708C173.269 141.708 173.957 141.977 174.468 142.517C174.978 143.046 175.233 143.763 175.233 144.669V149.103H174.28V144.669C174.28 144.023 174.107 143.523 173.76 143.167C173.423 142.81 172.942 142.632 172.316 142.632C171.594 142.632 171.021 142.858 170.597 143.311C170.183 143.763 169.976 144.433 169.976 145.318V149.103H169.023V141.881H169.976V143.008C170.515 142.141 171.324 141.708 172.402 141.708Z" fill="white"/>
<path d="M83.3847 33.8801C83.1617 32.8958 82.7604 31.9563 82.3591 31.0615C81.3335 28.7799 79.6837 26.8561 77.588 25.514C75.1801 23.9929 72.5047 22.9191 69.7402 22.427C66.8418 21.8902 63.8989 21.4428 61.0006 20.9507C60.5547 20.8612 60.4655 21.0401 60.5101 21.4428C60.6885 22.3823 60.8668 23.3218 61.0006 24.306C61.2681 26.2298 61.4019 28.1535 61.714 30.0326C62.2491 33.6116 64.2556 36.3854 66.7081 38.9355L68.7592 41.083C67.5553 40.6356 66.4851 40.2329 65.3704 39.7855C63.8097 39.1592 62.2045 38.9802 60.5547 38.9802C58.5036 38.9802 56.4524 38.9355 54.3567 38.8908C54.2229 38.8908 54.1338 38.9355 54 38.9802C54.1338 39.2487 54.2229 39.4276 54.3121 39.6513C54.5351 40.1434 54.8472 40.6356 55.0256 41.1724C55.739 42.9172 56.3187 44.7068 57.1213 46.4068C57.9239 48.1069 59.217 49.4043 60.8668 50.3438C62.3829 51.1938 63.9881 51.3728 65.6825 51.4175C67.6445 51.4175 69.651 51.4175 71.613 51.4175C72.6385 51.4175 73.6195 51.4175 74.6451 51.4175C74.6451 51.3728 74.6451 51.2833 74.6451 51.1938C74.2438 51.0149 73.8424 50.7912 73.3965 50.657C71.5238 50.2096 69.6064 49.8069 67.7336 49.4043C66.0838 49.0464 64.4786 48.599 62.9625 47.7937C61.4911 46.9884 60.2871 45.8252 59.4399 44.3936C59.1724 43.9462 58.8603 43.4988 58.5927 43.0514C59.1724 43.3646 59.7075 43.7673 60.198 44.2594C62.1153 46.0937 64.5232 47.3463 67.1094 47.8832C68.4471 48.1516 69.7402 48.3306 71.0779 48.599C73.129 49.0017 75.091 49.628 77.0083 50.5228C77.1867 50.5675 77.3204 50.6122 77.4988 50.6122C77.0083 50.0754 76.3841 49.6727 75.8936 49.2253C74.6897 48.0174 73.2182 47.3016 71.7913 46.4516C70.9441 45.9594 70.0077 45.6015 69.0713 45.2436C67.154 44.4831 65.2812 43.7673 63.3638 43.0962C62.5166 42.783 61.6694 42.6935 60.8222 42.4251C59.9304 42.1567 59.0386 41.7988 58.1468 41.5303C58.1914 41.4409 58.1914 41.3961 58.236 41.3066C66.1284 41.754 73.129 44.5278 79.0595 49.9412L79.2378 49.7622C79.1486 49.5385 79.0149 49.3596 78.9257 49.1806C78.4352 48.5095 77.9001 47.7937 77.365 47.1674C76.6516 46.3173 75.8936 45.4673 75.091 44.7068C73.352 43.0514 71.5684 41.4856 69.8294 39.8303C69.2497 39.2934 68.7146 38.6671 68.1795 38.0855C69.2943 38.846 70.3199 39.6513 71.39 40.5014C72.5493 41.4409 73.7533 42.3356 74.868 43.2751C75.8044 44.0357 76.7408 44.841 77.6326 45.6463C78.2122 46.1831 78.7027 46.8095 79.2824 47.3463C79.4162 47.4806 79.6837 47.4805 79.8175 47.5253C79.6391 47.0332 79.5499 46.5858 79.2824 46.2279C78.4798 45.1542 77.6772 44.0357 76.6962 43.0962C74.868 41.3961 72.9506 39.7855 71.0779 38.1302C70.0077 37.146 68.893 36.2065 67.912 35.1327C65.9501 33.03 64.8799 30.3905 64.0327 27.6614C63.7206 26.6772 63.5422 25.6929 63.3193 24.7087L63.453 24.6639C63.4976 24.7982 63.5868 24.8876 63.6314 25.0218C64.3448 27.0351 65.1028 29.0036 66.3514 30.7484C66.7527 31.3747 67.1986 31.9563 67.5999 32.5826C68.4917 34.059 69.7848 35.088 71.0333 36.2065C72.4156 37.4144 73.9316 38.4434 75.3139 39.6513C76.7854 40.904 78.1231 42.2909 79.327 43.812C80.843 45.7357 82.047 47.749 82.7158 50.1201C82.7604 49.7622 82.8496 49.449 82.805 49.1806C82.582 47.6148 82.3591 46.0489 82.1361 44.4831C82.047 43.6778 82.0024 42.8278 81.9132 42.0225C81.6902 40.1434 81.3781 38.2644 80.7539 36.4301C79.8175 33.7906 78.346 31.5089 76.2503 29.7641C74.11 27.9746 71.6129 26.9456 69.0267 26.0508C68.0904 25.7377 67.154 25.3798 66.173 25.0666C66.173 24.9771 66.2176 24.8876 66.2176 24.8429C67.5107 25.0666 68.7592 25.2455 70.0523 25.514C72.4156 26.0061 74.6896 26.7666 76.6516 28.243C78.7473 29.8089 80.3971 31.8668 81.4227 34.2827C82.4483 36.5644 82.9834 39.025 83.2955 41.4856C83.3847 42.1567 83.2063 42.8725 83.3847 43.4988C83.786 45.1541 84.0981 46.8542 84.0535 48.599C84.0535 49.7175 84.0535 50.7912 84.0535 51.9097C84.1427 50.2096 84.0981 48.5095 84.1873 46.8095C84.2765 43.9462 84.544 41.1277 84.1427 38.2644C83.786 36.7881 83.6522 35.3117 83.3847 33.8801Z" fill="white"/>
<path d="M104.074 13.5688C103.851 13.703 103.718 13.7478 103.628 13.8372C101.934 15.0452 99.972 15.8505 97.8763 16.1189C96.3157 16.3426 94.7996 16.7005 93.3282 17.1031C90.6974 17.819 88.6908 19.3401 87.4869 21.8007C87.041 22.6955 86.7735 23.7244 86.5059 24.7087C86.1938 25.8719 85.8817 27.0798 85.6587 28.243C85.4804 29.0483 85.3912 29.8536 85.2574 30.6589H85.1236C85.0791 30.5247 85.0345 30.3457 84.9899 30.2115C84.8561 28.4667 84.6777 26.7219 84.6777 24.9771C84.6777 22.9639 85.1683 20.9954 86.1492 19.2953C87.2194 17.5058 87.9328 15.4926 88.2895 13.4346C88.5571 11.7345 88.6017 10.0792 88.022 8.46863C87.8436 7.93176 87.6207 7.35016 87.264 6.90278C86.1492 5.33694 84.544 4.35269 82.805 3.68161C80.9322 2.92106 78.9703 2.29472 77.3204 1.08678L75.9827 0.102539C75.9382 0.326231 75.9382 0.460447 75.8936 0.549923C75.7152 2.16051 75.5815 3.77109 75.4031 5.38168C75.2693 6.67909 75.091 8.02124 74.9572 9.31866C74.868 10.5713 75.091 11.824 75.8044 12.8977C76.4732 13.9715 77.2759 14.9557 78.1231 15.8505C79.7283 17.5505 81.3335 19.2506 82.1807 21.5323C82.4483 22.2928 82.7604 23.0534 83.0725 23.8139C82.9834 22.9191 82.805 22.0244 82.6712 21.1296C82.2253 18.1321 81.4227 15.2241 80.3526 12.4056C79.7283 10.8398 79.104 9.27392 78.5244 7.70807C78.2568 6.94752 78.1231 6.18697 77.9447 5.42641L78.1231 5.38168C78.346 5.96328 78.5244 6.54487 78.7919 7.12647C79.4608 8.64758 80.1742 10.0792 80.7985 11.6003C81.6457 13.6135 82.2699 15.7163 82.7158 17.8637C82.8496 18.4453 83.0279 19.0269 83.1171 19.6532C83.2063 20.1901 83.2509 20.7717 83.2955 21.3086C83.3847 21.8454 83.4738 22.427 83.563 22.9639H83.7414C84.0089 20.727 84.3656 18.49 84.4994 16.2531C84.544 15.0452 84.4102 13.8372 84.0981 12.674C83.5184 10.3476 82.2253 8.37915 80.5755 6.63435C80.2634 6.27644 79.9512 5.91853 79.6391 5.56063C79.7729 5.51589 79.8621 5.51589 79.9958 5.60537C81.066 6.58961 82.2253 7.52912 83.2063 8.64758C85.3912 11.1082 85.9709 14.1057 85.4804 17.2821C85.2574 18.7137 84.8561 20.1454 84.5886 21.577C84.544 21.8454 84.7224 22.2481 84.5886 22.427C84.0535 23.1428 84.1873 23.9034 84.1427 24.6639C83.9643 28.1088 85.0791 31.3747 85.4804 34.7748C85.5696 34.3722 85.6141 33.9248 85.6141 33.5222C85.525 31.5089 85.7925 29.4957 86.3276 27.5719C86.9518 25.2903 88.3341 23.3665 90.0731 21.7559C90.9203 20.9954 91.9013 20.3691 92.9269 19.8322C93.7741 19.4295 94.6659 18.9374 95.5577 18.669C96.4495 18.4006 97.3858 18.3558 98.2776 18.1769C98.7235 18.0874 99.1694 17.9979 99.6153 17.9084C99.6153 17.9532 99.6599 18.0427 99.6599 18.0874C98.7235 18.49 97.7872 18.8927 96.8508 19.2953C96.0036 19.698 95.0672 19.8769 94.2646 20.4138C93.6403 20.8612 92.8377 21.1296 92.258 21.6217C90.742 22.8744 89.4043 24.2613 88.5125 26.0956C87.9774 27.2588 87.5315 28.5114 87.1748 29.7641C87.0856 30.0773 87.3085 30.4799 87.3531 30.8378C89.6272 27.7509 92.6147 25.514 94.9334 22.6507C94.5321 23.5007 94.1754 24.306 93.5957 24.9771C92.4364 26.3193 91.2325 27.6614 89.9839 28.9141C88.9138 29.9878 87.9774 31.151 87.3086 32.4932C85.9263 35.3564 85.3466 38.4434 85.0791 41.6198C85.0791 41.7093 85.0791 41.754 85.1236 41.8435L85.302 41.3961C85.302 41.6198 85.3466 41.754 85.3466 41.8435C85.4804 41.3066 85.5696 40.7698 85.6587 40.2329C85.9709 38.1302 86.4613 36.0275 87.3531 34.1038C87.8882 32.9406 88.4233 31.7326 89.5826 31.0168C90.7865 30.2563 92.0351 29.5852 93.3282 29.0036C94.4875 28.422 95.6022 27.7062 96.5386 26.8114C97.6534 25.7824 98.456 24.485 99.214 23.1876C99.8829 22.0691 100.373 20.9059 100.641 19.6532C100.775 19.0716 101.042 18.5348 101.221 17.9979L101.399 18.0427C101.444 18.3111 101.488 18.6243 101.488 18.9374C101.488 19.3848 101.399 19.8769 101.265 20.3243C100.73 21.8454 100.284 23.3665 99.6153 24.8429C98.7681 26.5877 97.475 28.0193 95.9144 29.2273C95.3347 29.6747 94.5767 29.8983 94.0416 30.3457C93.3728 30.8826 92.6147 31.151 91.8567 31.3747C91.4554 31.5089 91.0541 31.5537 90.6528 31.6431C91.0095 31.7774 91.4108 31.8668 91.8121 31.8221C93.2836 31.7326 94.7551 31.6431 96.2265 31.4194C98.0101 31.1063 99.4816 30.122 100.73 28.8246C102.335 27.1246 102.915 24.9771 103.45 22.8297C103.718 21.8007 103.673 20.6375 103.762 19.5638C103.896 17.8637 104.03 16.2084 104.163 14.5083C104.163 14.1951 104.163 13.882 104.074 13.5688Z" fill="white"/>
<path d="M77.5434 22.9191C78.5244 23.1876 79.5053 23.635 80.4417 23.9929C80.5755 24.0376 80.7093 24.0376 80.843 24.0376C80.2188 23.456 79.6837 22.9191 79.1486 22.427C78.569 21.9349 77.9447 21.398 77.365 20.9059C76.4286 20.1454 75.4477 19.3848 74.5559 18.5795C74.2438 18.3111 74.0654 17.8637 73.7979 17.5058L73.9762 17.3716L79.8175 22.2033C79.7729 21.9349 79.7729 21.577 79.7283 21.2638C79.327 18.0427 78.0339 16.5663 75.1355 15.9847C74.1992 15.8057 73.352 15.4478 72.4156 15.1794C72.0143 15.0452 71.613 14.8662 71.1225 14.6425C71.3454 15.4031 71.6129 16.0742 71.7467 16.7452C72.5493 19.8769 74.4221 21.9796 77.5434 22.9191Z" fill="white"/>
<path d="M69.8294 55.9808C68.0012 55.7572 66.3068 56.7861 64.5232 56.473C66.173 55.3992 68.0904 55.2203 70.0523 54.9071C69.8294 54.7282 69.651 54.4597 69.3835 54.3703C68.3133 53.9229 67.1094 53.8781 65.9946 54.2808C64.8353 54.6834 63.8989 55.444 63.0517 56.294C62.5612 56.7861 62.1153 57.2783 61.6249 57.8151C62.3829 57.9493 63.0517 58.0388 63.676 58.2178C66.2176 58.7994 68.1796 57.9493 69.8294 55.9808Z" fill="white"/>
<path d="M71.7913 58.9336C71.4346 59.1573 70.9887 59.2915 70.7212 59.5599C70.0523 60.231 69.2051 60.3652 68.3133 60.5442C69.651 59.2915 71.2117 58.352 72.8169 57.4125C70.5874 56.3388 67.1986 59.202 66.8419 62.3784C67.6445 62.1548 68.4471 62.0205 69.2051 61.7521C70.0523 61.4837 70.8549 61.1258 71.613 60.7231C72.5939 60.1863 73.1736 58.7546 72.8169 57.8151C72.9061 58.7099 72.1926 58.6652 71.7913 58.9336Z" fill="white"/>
<path d="M84.8561 53.7439C84.8808 53.7439 84.9007 52.2617 84.9007 50.4333C84.9007 48.6049 84.8808 47.1226 84.8561 47.1226C84.8315 47.1226 84.8115 48.6049 84.8115 50.4333C84.8115 52.2617 84.8315 53.7439 84.8561 53.7439Z" fill="white"/>
<path d="M71.9697 53.6097C71.9697 53.6097 77.7663 50.3438 83.2063 53.6097L84.6777 55.0413C84.6777 55.0413 78.8365 50.6122 72.3264 54.5045C72.2818 54.5045 70.4982 54.2808 71.9697 53.6097Z" fill="white"/>
<path d="M70.5428 57.323C70.5428 57.323 75.4477 52.8044 81.4673 54.7729L83.2063 55.8466C83.2063 55.8466 76.5178 52.8939 71.0333 58.1283C71.0333 58.0836 69.2497 58.2625 70.5428 57.323Z" fill="white"/>
<path d="M104.342 46.9437C105.367 46.7647 106.17 46.9437 106.928 47.6595C107.106 47.8385 107.329 47.9727 107.552 48.1069C109.514 49.3596 112.1 49.0911 113.75 47.4358C114.597 46.5858 115.356 45.691 116.203 44.7962C115.534 44.5725 114.91 44.3936 114.241 44.1699C112.858 43.6778 111.476 43.3646 110.005 43.4541C108.4 43.5436 107.329 44.3936 106.393 45.6463C108.667 46.0937 110.897 45.7357 113.126 45.691C112.814 45.9147 112.457 46.1384 112.1 46.1831C110.986 46.3621 109.826 46.5858 108.712 46.541C107.062 46.4963 105.412 46.2726 103.762 46.541C103.227 46.6305 102.647 46.72 102.112 46.7647C102.112 46.72 102.068 46.6753 102.068 46.5858C102.157 46.4963 102.291 46.4068 102.38 46.3621C103.584 45.5568 104.877 44.841 105.992 43.9462C107.686 42.5593 109.068 40.904 109.648 38.6671C109.693 38.4881 109.693 38.3539 109.693 38.175L109.559 38.1302C109.38 38.4881 109.202 38.8013 109.024 39.1145C108.221 40.2329 107.552 41.4409 106.616 42.3804C104.565 44.5278 101.979 45.9594 99.2586 47.0332C95.6914 48.4201 92.6147 50.4333 90.3853 53.6544C89.761 54.594 89.2259 55.5782 88.6017 56.5625C89.2705 53.6545 90.4744 51.0596 92.7485 49.0911C94.0862 47.9727 95.5577 46.9437 96.9845 45.8252C98.456 44.662 99.7937 43.4093 100.418 41.5751C101.131 39.3829 100.908 37.4144 99.214 35.6696C98.3222 34.7748 97.5196 33.7458 96.6724 32.8063C96.6724 32.8063 96.5832 32.8063 96.494 32.8063C96.5832 34.9985 95.8252 36.9223 94.6213 38.7118C93.239 40.8593 91.9905 43.1409 90.9649 45.4673C90.2069 47.1226 89.4489 48.778 88.7354 50.478C88.6463 50.7465 88.5571 51.0149 88.5125 51.2833C88.6462 51.2833 88.7354 51.1938 88.78 51.1044C89.9393 48.9122 91.5 46.9884 93.2836 45.2884C93.9524 44.662 94.6213 43.991 95.2455 43.2751C96.494 41.754 97.0737 39.875 97.5196 37.9513C97.6088 37.6381 97.698 37.3249 97.8317 36.8328C97.9209 37.0118 97.9655 37.1907 98.0101 37.3697C98.3222 39.7855 97.5642 42.2014 96.0036 44.0357C94.6213 45.691 93.1052 47.2569 91.7675 48.9569C89.9839 51.1491 88.6017 53.565 87.9328 56.3835C87.4869 58.352 87.0856 60.3205 86.5951 62.289C85.5696 66.4944 83.8751 70.3866 80.3526 73.2051C80.308 73.2499 80.308 73.2499 80.2634 73.2946C80.2188 73.3841 80.1742 73.4736 80.085 73.6078C80.2188 73.6078 80.308 73.5631 80.4417 73.5183C81.7348 72.6236 82.9388 71.5498 83.8751 70.2524C85.8817 67.7023 87.0856 64.7048 88.022 61.6179C88.78 59.202 89.761 56.9204 91.5 55.0413C93.4174 52.8939 95.9144 52.2676 98.679 52.5807C101.756 52.9386 104.386 54.3255 107.017 55.8019C107.106 55.8466 107.196 55.8914 107.329 55.9361L107.196 56.0703C107.106 56.0703 107.017 56.0703 106.928 56.0256C105.59 55.5782 104.253 55.1756 102.96 54.7282C100.953 54.0571 98.9465 53.4308 96.8062 53.6097C96.0927 53.6545 95.3793 53.8781 94.7104 54.0124C94.7104 54.0571 94.7104 54.1466 94.755 54.1913C95.2009 54.3703 95.6914 54.4597 96.1373 54.6387C98.0547 55.5782 99.9721 56.6072 101.934 57.5467C103.941 58.4862 106.215 58.7099 108.31 58.1283C110.54 57.5467 112.457 56.3835 114.419 55.265C114.508 55.2203 114.553 55.0861 114.731 54.9071L112.011 54.5492C112.056 54.8176 112.056 54.9519 112.1 55.1308C110.852 54.9519 109.871 54.3703 108.935 53.6097C108.266 53.0729 107.641 52.4913 106.973 51.9991C103.718 49.628 100.106 49.1806 96.3603 50.478C94.9334 50.9701 93.5957 51.7307 92.1688 52.357C93.1498 51.4623 94.1754 50.478 95.2901 49.7622C98.0993 48.2411 101.176 47.3911 104.342 46.9437Z" fill="white"/>
<path d="M100.507 58.0836C98.9911 57.3677 97.5196 56.6519 96.0036 56.0256C95.0672 55.6677 94.0862 55.444 93.016 55.8914C93.1052 55.9361 93.239 55.9809 93.3282 56.0256C94.6213 56.294 95.6468 57.0098 96.5832 57.9493C97.1629 58.5757 97.698 59.2468 98.3222 59.7836C100.373 61.6626 103.896 61.9758 106.527 59.7389C106.393 59.6941 106.259 59.6494 106.125 59.6494C104.119 59.4705 102.246 58.9336 100.507 58.0836Z" fill="white"/>
<path d="M113.304 35.088C112.234 36.3854 110.718 37.3249 110.139 38.9802C111.967 38.9802 113.304 38.1302 114.33 36.6538C115.266 35.3564 115.534 33.7906 116.024 32.18C114.687 32.4932 113.483 32.6721 112.323 33.0748C110.852 33.5669 109.916 34.6406 109.737 36.2512C109.693 36.6986 109.648 37.1907 109.603 37.6828L109.782 37.7276C110.852 36.6986 111.699 35.4012 113.304 35.088Z" fill="white"/>
<path d="M104.877 31.33C104.565 32.2695 104.565 33.2985 104.922 34.1932C105.367 35.3564 105.858 36.5196 106.304 37.6381V32.4037C106.883 34.3722 107.106 36.2959 106.438 38.2644C106.304 38.7118 106.215 39.2039 106.17 39.6961C106.081 40.1434 105.992 40.5908 105.947 41.0382L106.215 41.1277C106.705 40.0092 107.329 38.8908 107.686 37.7276C108.355 35.8038 108.177 33.7458 107.24 31.9563C106.705 30.9273 106.17 29.8983 105.635 28.8694C105.412 29.6747 105.144 30.5247 104.877 31.33Z" fill="white"/>
<path d="M93.9078 33.4327C93.6849 33.4327 93.5065 33.4774 93.3282 33.5222C92.9269 33.7011 92.5701 33.8801 92.2134 34.1038C91.0095 34.6854 89.9393 35.4907 89.0921 36.4749C88.6017 37.0118 88.2895 37.6828 88.2003 38.3986L90.2069 36.7881L90.3852 37.0118C89.9393 37.4591 89.4489 37.9065 89.0475 38.3986C88.6016 38.8908 88.0666 39.2934 88.1557 40.1882C89.538 39.2934 90.8757 38.4881 91.9905 37.3697C92.9269 36.3854 93.6849 35.3117 93.997 33.9695C93.9078 33.7906 93.9078 33.6116 93.9078 33.4327Z" fill="white"/>
<path d="M93.016 38.175C90.9649 39.7408 88.2895 40.5013 87.2194 43.1409L87.3086 43.2751L88.8692 42.7383C88.9138 42.783 88.9138 42.8725 88.9584 42.9172L87.1748 44.2146C89.9839 44.6173 92.7039 41.2172 93.016 38.175Z" fill="white"/>
<path d="M85.1236 65.2864C86.7289 61.4389 86.6397 57.4572 86.3722 53.4308L86.1938 53.386C86.1046 54.0571 85.9709 54.7282 85.9709 55.3545C85.9709 57.4125 86.0154 59.5152 85.6141 61.5284C84.5886 66.226 82.3145 70.1182 78.5244 73.0262C77.9001 73.5183 77.1867 73.921 76.5178 74.3684L76.607 74.5026C77.1867 74.1894 77.8555 73.9657 78.3906 73.6078C81.6011 71.684 83.6968 68.776 85.1236 65.2864Z" fill="white"/>
<path d="M105.278 39.875C105.278 39.1145 105.412 38.3539 105.234 37.6828C104.788 36.0722 104.208 34.5511 103.673 32.9406C102.023 34.3274 103.004 38.4434 105.278 39.875Z" fill="white"/>
<path d="M15.7343 122.67L15.4941 124.11L1.40128 123.99L1.68153 122.55C2.48226 122.27 3.28299 122.03 4.04368 121.83C4.84441 121.67 5.68517 121.51 6.60601 121.39L13.1319 91.6698L5.48499 91.6298L1.28117 98.7498H0C0.0400364 98.0698 0.120112 97.3098 0.240221 96.4698C0.36033 95.6298 0.480441 94.7498 0.640587 93.8698C0.760696 92.9898 0.920837 92.1098 1.08098 91.2698C1.24113 90.4298 1.40128 89.6698 1.56142 88.9898L30.5878 89.1898C30.4677 89.8698 30.2675 90.5898 30.0673 91.4298C29.8672 92.2698 29.6269 93.1098 29.3867 93.9898C29.1465 94.8698 28.9063 95.7498 28.626 96.5898C28.3858 97.4298 28.1056 98.2298 27.8653 98.9098H26.5842L25.5833 91.7498L17.9363 91.7098L11.4104 121.43C12.2111 121.59 12.9718 121.79 13.6925 121.95C14.4131 122.11 15.0937 122.35 15.7343 122.67Z" fill="white"/>
<path d="M50.2857 90.7498L50.6461 89.3098L62.0164 89.3498L61.6561 90.7898C61.0555 91.0698 60.3749 91.3498 59.6542 91.5498C58.9336 91.7498 58.253 91.9098 57.6124 92.0298L44.6005 105.47C45.2011 106.59 45.8817 107.79 46.6824 109.11C47.4431 110.43 48.2839 111.83 49.1647 113.27C50.0455 114.71 50.9663 116.15 51.8872 117.63C52.848 119.11 53.7689 120.51 54.6897 121.83L56.8517 123.03L56.6115 124.27L50.566 124.23L49.1247 123.03C47.6433 120.71 46.202 118.23 44.8007 115.55C43.3995 112.87 42.1183 110.19 40.8772 107.43H38.2348L35.232 121.51C36.5933 121.79 37.7543 122.19 38.6752 122.71L38.4349 124.15L25.7834 124.11L26.0237 122.67C27.545 122.07 28.9864 121.67 30.4277 121.47L36.7935 91.8298C36.0728 91.7098 35.3521 91.5098 34.7116 91.3098C34.071 91.1098 33.4704 90.8698 32.95 90.5498L33.3103 89.1098L45.9618 89.1498L45.6415 90.5898C44.5205 91.1098 43.1592 91.5498 41.5978 91.8298L38.6351 105.67L41.6379 104.99L53.6888 91.9098C53.0082 91.7498 52.4076 91.5498 51.8872 91.3898C51.2866 91.3098 50.7662 91.0698 50.2857 90.7498Z" fill="white"/>
<path d="M89.5214 118.43L91.323 110.15C91.5633 109.11 91.7634 108.15 91.9636 107.27C92.1638 106.39 92.2439 105.51 92.2439 104.63C92.2439 103.87 92.0837 103.23 91.7234 102.67C91.3631 102.15 90.8026 101.87 90.0419 101.87C89.1611 101.87 88.2402 102.23 87.2794 102.95C86.3585 103.67 85.4777 104.55 84.677 105.59C83.8763 106.63 83.1556 107.71 82.515 108.83C81.8744 109.95 81.354 110.87 81.0337 111.59L78.3913 124.35H74.1874L78.5915 102.27L75.5487 101.83L75.6688 100.59C76.1492 100.35 76.6697 100.15 77.2302 99.9098C77.8308 99.7098 78.4313 99.5098 79.0319 99.3498C79.6324 99.1898 80.2329 99.0698 80.8335 98.9498C81.434 98.8698 81.9545 98.7898 82.475 98.7898L83.4759 99.3898L81.5542 108.23H81.7944C82.4349 106.91 83.1556 105.67 83.9563 104.51C84.7571 103.35 85.6379 102.35 86.5587 101.51C87.4795 100.67 88.4404 99.9898 89.4413 99.5098C90.4422 99.0298 91.4431 98.7898 92.4841 98.7898C93.8854 98.7898 94.9263 99.2298 95.5669 100.11C96.2075 100.99 96.5278 102.11 96.5278 103.43C96.5278 104.15 96.4477 105.07 96.2875 106.19C96.1274 107.27 95.9272 108.31 95.687 109.27L92.8444 121.55H96.5278V122.83C95.8472 123.35 95.0464 123.79 94.0855 124.11C93.1247 124.43 92.2038 124.59 91.323 124.59C90.3622 124.59 89.6815 124.39 89.3212 123.99C88.9609 123.59 88.7607 123.15 88.7607 122.67C88.7607 122.03 88.8408 121.35 89.0009 120.59C89.2011 119.95 89.3613 119.19 89.5214 118.43Z" fill="white"/>
<path d="M109.78 121.87C110.661 121.87 111.581 121.43 112.462 120.59C113.343 119.75 114.224 118.71 115.025 117.51C115.825 116.31 116.546 115.07 117.187 113.75C117.827 112.43 118.308 111.35 118.668 110.51L120.229 101.95C119.749 101.63 119.308 101.39 118.868 101.27C118.428 101.15 117.827 101.07 117.066 101.07C115.545 101.07 114.144 101.55 112.903 102.51C111.662 103.47 110.581 104.71 109.7 106.19C108.819 107.71 108.138 109.35 107.658 111.19C107.177 113.03 106.937 114.83 106.937 116.59C106.937 118.27 107.137 119.59 107.578 120.51C108.018 121.39 108.739 121.87 109.78 121.87ZM117.867 114.55H117.667C117.227 115.75 116.706 116.95 116.066 118.19C115.425 119.43 114.664 120.55 113.823 121.55C112.983 122.55 112.022 123.39 111.021 123.99C109.98 124.63 108.899 124.95 107.738 124.95C104.255 124.95 102.533 122.43 102.533 117.43C102.533 115.11 102.854 112.83 103.534 110.59C104.215 108.39 105.176 106.39 106.417 104.67C107.698 102.95 109.219 101.55 111.021 100.47C112.823 99.4298 114.904 98.8698 117.187 98.8698C118.027 98.8698 118.668 98.9498 119.188 99.1098C119.669 99.2698 120.269 99.4698 120.99 99.7898C122.311 99.0698 123.712 98.7498 125.194 98.7498L120.71 121.59H124.353V122.83C123.672 123.35 122.872 123.79 121.951 124.15C121.03 124.47 120.109 124.67 119.188 124.67C118.228 124.67 117.507 124.47 117.106 124.07C116.706 123.67 116.466 123.23 116.466 122.75C116.466 122.15 116.586 121.15 116.826 119.79C117.066 118.35 117.427 116.63 117.867 114.55Z" fill="white"/>
<path d="M134.402 102.23L131.199 101.75V100.51C131.68 100.31 132.28 100.11 132.881 99.8698C133.521 99.6298 134.162 99.4698 134.843 99.2698C135.523 99.1098 136.124 98.9498 136.724 98.8298C137.325 98.7098 137.845 98.6298 138.326 98.6298L139.247 99.2298L134.642 121.47H138.326V122.75C137.645 123.27 136.804 123.71 135.884 124.07C134.963 124.39 134.042 124.59 133.121 124.59C132.16 124.59 131.48 124.39 131.039 123.95C130.639 123.51 130.399 123.03 130.399 122.47C130.399 121.79 130.439 121.15 130.559 120.51C130.639 119.87 130.799 119.19 130.959 118.39L134.402 102.23ZM135.163 90.6298C135.163 89.7498 135.403 89.0698 135.964 88.5898C136.484 88.0698 137.205 87.8298 138.046 87.8298C138.966 87.8298 139.727 88.0698 140.248 88.5898C140.768 89.0698 141.048 89.7498 141.048 90.6298C141.048 91.4698 140.808 92.1098 140.248 92.5898C139.727 93.0698 138.966 93.3098 138.046 93.3098C137.165 93.3098 136.484 93.0698 135.924 92.6298C135.363 92.1898 135.163 91.4698 135.163 90.6298Z" fill="white"/>
<path d="M145.052 118.31L150.737 90.0698L147.174 89.6298V88.3898C147.654 88.1898 148.175 87.9898 148.815 87.7898C149.416 87.5898 150.096 87.3898 150.777 87.1898C151.458 86.9898 152.138 86.8298 152.819 86.7098C153.5 86.5898 154.1 86.5098 154.621 86.5098L155.622 87.0698L148.935 121.35L152.579 121.31V122.59C151.898 123.11 151.097 123.55 150.177 123.91C149.216 124.23 148.295 124.43 147.414 124.43C146.453 124.43 145.733 124.23 145.292 123.79C144.852 123.35 144.611 122.87 144.611 122.31C144.611 121.63 144.652 120.99 144.772 120.35C144.732 119.79 144.892 119.07 145.052 118.31Z" fill="white"/>
<path d="M169.434 118.15C169.394 117.35 169.154 116.67 168.753 116.07C168.313 115.47 167.793 114.95 167.152 114.39C166.511 113.87 165.791 113.35 165.07 112.79C164.349 112.27 163.629 111.67 162.988 111.03C162.348 110.39 161.787 109.63 161.387 108.79C160.946 107.95 160.746 106.91 160.746 105.71C160.746 104.51 160.946 103.47 161.427 102.55C161.867 101.63 162.508 100.87 163.349 100.27C164.149 99.6698 165.15 99.1898 166.311 98.8698C167.472 98.5498 168.713 98.3898 170.075 98.3498C170.955 98.3498 171.916 98.4298 172.997 98.5498C174.078 98.7098 175.119 99.0298 176.08 99.5898C176.08 99.9498 176 100.39 175.88 100.87C175.76 101.35 175.56 101.83 175.359 102.27C175.159 102.71 174.919 103.15 174.639 103.51C174.359 103.91 174.078 104.15 173.798 104.31L170.075 100.47C169.354 100.51 168.713 100.59 168.113 100.75C167.512 100.87 166.992 101.11 166.551 101.43C166.111 101.75 165.751 102.11 165.51 102.63C165.27 103.11 165.15 103.71 165.15 104.47C165.15 105.35 165.39 106.07 165.831 106.71C166.271 107.31 166.832 107.91 167.472 108.43C168.113 108.99 168.833 109.51 169.594 110.03C170.355 110.55 171.036 111.11 171.716 111.75C172.357 112.39 172.917 113.15 173.358 113.99C173.798 114.83 174.038 115.83 174.038 116.99C174.038 118.19 173.798 119.27 173.238 120.19C172.677 121.11 171.956 121.91 170.995 122.59C170.035 123.23 168.954 123.75 167.712 124.11C166.471 124.47 165.15 124.63 163.749 124.63C162.348 124.63 161.066 124.51 159.905 124.23C158.744 123.95 157.823 123.59 157.183 123.19C157.343 122.31 157.543 121.47 157.783 120.67C158.024 119.83 158.504 119.07 159.225 118.39L163.749 122.51C164.47 122.51 165.15 122.43 165.831 122.23C166.511 122.07 167.112 121.79 167.672 121.43C168.233 121.07 168.673 120.59 169.034 120.07C169.194 119.55 169.394 118.91 169.434 118.15Z" fill="white"/>
</svg>
