<svg width="99" height="47" viewBox="0 0 99 47" fill="none" xmlns="http://www.w3.org/2000/svg">
<path fill-rule="evenodd" clip-rule="evenodd" d="M80.6327 22.7103L75.7422 17.9853C75.617 17.8648 75.4487 17.8025 75.2804 17.8025C75.1161 17.8011 74.9492 17.8634 74.8226 17.9853L74.8037 18.0043C74.692 18.1221 74.6354 18.2739 74.6354 18.4229C74.6368 18.5705 74.692 18.7195 74.8024 18.8347C76.0829 20.0606 77.3526 21.2987 78.6264 22.5301H0.646311C0.465882 22.5301 0.301612 22.6005 0.184468 22.7143C0.0713635 22.8254 0 22.9798 0 23.1478C0 23.3158 0.0713635 23.4702 0.184468 23.5813C0.301612 23.6937 0.465882 23.7655 0.646311 23.7655H78.6264C77.3526 24.9969 76.0721 26.2228 74.8037 27.4596C74.692 27.5747 74.6368 27.7251 74.6368 27.8727C74.6354 28.0217 74.692 28.1721 74.8037 28.2899L74.8226 28.3103C74.9492 28.4322 75.1148 28.4931 75.2804 28.4931C75.446 28.4931 75.6157 28.4322 75.7422 28.3103L80.6582 23.5582C80.7687 23.4431 80.8239 23.2941 80.8239 23.1478C80.8225 23.0001 80.7673 22.8511 80.6582 22.736L80.6327 22.7103Z" fill="#00A9A2"/>
<path d="M75.6426 0C82.0922 0 87.9333 2.63068 92.1585 6.88284C96.3851 11.135 99 17.01 99 23.5C99 29.9886 96.3851 35.865 92.1585 40.1172C87.9333 44.368 82.0922 47 75.6426 47C69.1916 47 63.3519 44.368 59.1253 40.1172C54.8987 35.865 52.2839 29.9886 52.2839 23.5C52.2839 17.01 54.8987 11.135 59.1253 6.88284C63.3519 2.63068 69.1916 0 75.6426 0ZM91.3385 7.70916C87.322 3.66832 81.7718 1.16769 75.6426 1.16769C69.5121 1.16769 63.9619 3.66832 59.9453 7.70916C55.9301 11.7486 53.4445 17.3324 53.4445 23.5C53.4445 29.6662 55.9301 35.25 59.9453 39.2908C63.9619 43.3317 69.5121 45.8323 75.6426 45.8323C81.7718 45.8323 87.322 43.3317 91.3385 39.2908C95.3551 35.25 97.8393 29.6662 97.8393 23.5C97.8393 17.3324 95.3551 11.7486 91.3385 7.70916Z" fill="#00A9A2"/>
</svg>
