<svg width="99" height="47" viewBox="0 0 99 47" fill="none" xmlns="http://www.w3.org/2000/svg">
<path fill-rule="evenodd" clip-rule="evenodd" d="M18.3673 24.2897L23.2578 29.0147C23.383 29.1352 23.5513 29.1975 23.7196 29.1975C23.8839 29.1989 24.0508 29.1366 24.1774 29.0147L24.1963 28.9957C24.308 28.8779 24.3646 28.7261 24.3646 28.5771C24.3632 28.4295 24.308 28.2805 24.1976 28.1653C22.9171 26.9394 21.6474 25.7013 20.3736 24.4699L98.3537 24.4699C98.5341 24.4699 98.6984 24.3995 98.8155 24.2857C98.9286 24.1746 99 24.0202 99 23.8522C99 23.6842 98.9286 23.5298 98.8155 23.4187C98.6984 23.3063 98.5341 23.2345 98.3537 23.2345L20.3736 23.2345C21.6474 22.0031 22.9279 20.7772 24.1963 19.5404C24.308 19.4253 24.3632 19.2749 24.3632 19.1273C24.3646 18.9783 24.308 18.8279 24.1963 18.7101L24.1774 18.6897C24.0508 18.5678 23.8852 18.5069 23.7196 18.5069C23.554 18.5069 23.3843 18.5678 23.2578 18.6897L18.3418 23.4418C18.2313 23.5569 18.1761 23.7059 18.1761 23.8522C18.1775 23.9999 18.2327 24.1489 18.3418 24.264L18.3673 24.2897Z" fill="#00A9A2"/>
<path d="M23.3574 47C16.9078 47 11.0667 44.3693 6.84146 40.1172C2.61486 35.865 0 29.99 0 23.5C0 17.0114 2.61486 11.135 6.84146 6.88284C11.0667 2.63203 16.9078 0 23.3574 0C29.8084 0 35.6481 2.63203 39.8747 6.88284C44.1013 11.135 46.7161 17.0114 46.7161 23.5C46.7161 29.99 44.1013 35.865 39.8747 40.1172C35.6481 44.3693 29.8084 47 23.3574 47ZM7.66148 39.2908C11.678 43.3317 17.2282 45.8323 23.3574 45.8323C29.4879 45.8323 35.0381 43.3317 39.0547 39.2908C43.0699 35.2514 45.5555 29.6676 45.5555 23.5C45.5555 17.3338 43.0699 11.75 39.0547 7.70916C35.0381 3.66832 29.4879 1.16769 23.3574 1.16769C17.2282 1.16769 11.678 3.66832 7.66148 7.70916C3.64492 11.75 1.16066 17.3338 1.16066 23.5C1.16066 29.6676 3.64492 35.2514 7.66148 39.2908Z" fill="#00A9A2"/>
</svg>
