<svg width="562" height="566" viewBox="0 0 562 566" fill="none" xmlns="http://www.w3.org/2000/svg">
<path d="M329.302 251.131C336.132 245.599 343.953 241.339 351.533 237.385C370.877 227.316 392.602 223.078 414.276 225.237C439.065 227.862 463.294 234.999 485.01 246.601C507.889 258.622 530.595 271.496 553.234 283.823C556.791 285.625 556.444 287.333 553.971 289.849C547.689 295.316 541.406 300.784 535.191 306.799C523 318.523 511.732 330.971 499.475 342.148C476.537 363.758 447.78 371.884 417.15 376.064L391.453 379.66C402.164 383.117 411.711 386.156 421.806 389.129C435.94 393.293 447.975 400.761 459.355 409.696C473.504 420.804 487.893 431.606 502.59 442.65C503.512 443.374 503.887 444.163 504.569 445.194C502.203 446.308 500.625 447.05 498.807 448.099C494.623 450.261 489.824 451.941 485.706 454.651C471.402 462.735 457.78 471.849 443.102 479.144C428.423 486.438 412.527 488.319 396.094 485.817C381.065 483.427 369.03 475.959 357.102 467.089C343.568 456.464 329.727 445.597 316.194 434.971C309.119 429.417 302.353 424.105 295.278 418.55C295.519 418.244 296 417.631 296.481 417.019C300.212 417.967 304.183 418.608 307.98 420.104C323.305 427.183 338.696 434.81 353.779 442.195C367.084 448.679 380.563 454.309 395.351 457.006C409.832 459.46 424.391 458.016 437.934 452.801C442.185 451.186 446.744 449.813 450.996 448.199C445.313 447.204 439.457 447.063 433.427 447.776C410.337 449.953 386.992 445.49 366.265 435.16C355.594 429.754 345.712 423.976 335.041 418.569C318.727 410.218 301.826 403.882 283.788 399.625C282.317 398.965 281.154 398.547 279.924 397.581C286.194 396.561 292.665 397.185 298.455 396.778C313.255 395.027 327.254 398.094 341.668 400.001C350.158 401.219 358.542 403.84 366.926 406.46C384.242 411.636 401.009 416.877 417.844 422.666C425.372 425.11 431.697 429.085 438.985 431.835C446.58 434.827 454.656 437.206 462.251 440.198C462.425 439.344 462.665 439.037 462.839 438.183C405.992 398.503 342.786 379.583 272.767 384.534L272.499 382.342C274.317 381.294 276.202 380.793 277.78 380.05C284.772 378.112 292.312 376.108 299.371 374.717C308.864 372.76 318.664 371.045 328.29 370.184C349.187 368.267 369.911 367.204 390.808 365.287C397.693 364.75 404.752 363.359 411.571 362.275C399.792 361.445 388.387 361.405 376.434 361.43C363.385 361.585 350.268 361.192 337.527 361.588C326.978 361.725 316.188 362.168 305.706 362.852C298.82 363.389 292.069 365.021 285.183 365.558C283.539 365.753 281.693 364.304 280.53 363.886C284.407 361.482 287.428 358.901 291.198 357.9C302.508 354.894 314.059 351.582 325.878 350.462C347.631 348.721 369.518 348.077 391.338 346.884C404.012 345.94 416.754 345.544 429.295 343.505C454.136 339.732 475.712 327.453 496.232 313.354C503.677 308.305 510.201 302.531 517.031 296.999L516.349 295.968C515.32 296.646 514.224 296.775 513.194 297.453C497.447 307.375 481.632 316.749 463.637 321.935C457.501 324.05 451.298 325.618 445.161 327.733C431.07 333.013 416.617 333.056 401.99 333.953C385.96 334.738 369.969 333.574 353.938 334.359C337.052 334.968 320.366 337.22 303.882 341.115C283.079 346.078 263.948 353.343 246.584 365.957C248.201 363.265 249.27 360.638 251.021 359.041C260.979 349.526 270.937 340.012 280.896 330.497C285.841 325.466 290.72 319.887 295.665 314.855C307.308 303.196 319.565 292.02 333.735 282.841C354.389 269.837 376.809 262.183 400.648 261.585C425.035 260.922 447.793 267.4 470.444 275.279C478.587 278.206 486.971 280.826 495.422 283.995C495.903 283.382 496.076 282.528 496.317 282.221C486.194 276.75 476.62 271.214 466.257 266.049C447.308 256.62 427.532 249.512 406.059 248.996C383.183 248.368 360.736 253.525 340.67 264.514C321.326 274.583 304.403 288.534 289.018 303.693C284.794 307.805 282.175 313.673 277.576 316.996C265.906 326.157 254.611 336.108 245.536 348.297C239.521 355.956 233.747 363.308 227.733 370.967C236.26 358.842 245.71 347.443 254.237 335.319C269.019 315.229 282.33 294.481 300.496 277.048C310.895 268.87 319.758 259.485 329.302 251.131Z" fill="#F3F3F3"/>
<path d="M295.81 0C296.626 2.12647 297.308 3.15727 297.442 4.25293C302.635 21.7008 311.838 37.8404 324.85 51.0284C334.413 61.0121 342.945 71.6734 350.93 82.3996C365.228 101.549 370.889 122.831 365.962 146.201C364.226 154.742 360.538 163.237 357.091 171.426C352.989 181.081 348.646 191.043 343.929 200.216C340.828 206.696 337.113 212.693 333.705 218.932L334.628 219.656C335.657 218.979 336.927 217.995 337.957 217.317C348.262 206.094 358.875 195.113 368.258 183.165C379.084 169.379 386.286 153.244 388.662 136.29C390.903 118.24 396.808 100.591 405.415 84.5671C412.711 71.477 421.305 59.9007 433.965 52.0115C438.082 49.3013 442.748 46.5262 447.614 45.3946C463.724 40.7096 480.089 42.6635 495.694 47.4862C512.702 52.4208 529.604 58.7573 547.48 59.421L562 59.9259C561.105 61.6992 560.383 62.6182 560.209 63.4723C552.779 75.4668 545.04 87.2197 537.61 99.2142C531.555 108.823 525.568 118.979 519.514 128.588C513.393 137.648 505.119 145.019 494.423 148.507C484.036 152.237 473.207 154.63 462.551 156.169C442.336 159.116 422.121 162.064 404.007 173.099C398.072 176.858 391.829 180.376 385.586 183.893C391.013 178.249 397.055 173.089 402.789 167.686C421.984 149.576 443.158 134.01 465.697 120.506C478.423 113.164 491.15 105.823 503.569 98.2402C509.504 94.4812 514.517 89.9977 519.837 85.7558L518.847 84.4835C514.182 87.2586 509.824 90.2751 504.851 92.8087C492.057 99.6022 479.438 105.542 466.952 112.577C450.281 121.774 434.668 132.791 420.044 145.081C415.994 148.339 411.636 151.356 407.653 155.162C404.15 158.355 400.715 162.096 397.521 165.531C394.018 168.724 390.276 172.223 386.774 175.417L385.543 174.451C395.727 157.684 405.296 140.435 416.402 124.393C422.59 115.88 430.009 108.333 438.417 102.059C454.926 89.2682 474.431 82.792 495.194 79.7794C499.272 79.0191 503.35 78.2587 507.427 77.4983C506.745 76.4675 506.13 75.9846 504.726 75.8728C492.051 76.8168 479.002 76.9714 466.221 79.3174C437.917 84.3336 417.8 101.72 404.102 126.127C397.941 137.137 393.011 149.114 387.157 160.366C386.021 162.445 382.626 164.236 382.586 166.186C382.428 173.986 377.415 178.469 373.633 183.918C356.338 208.473 331.086 224.799 310.034 245.908C311.584 242.668 313.682 239.363 315.847 236.606C327.289 223.303 336.27 208.069 342.924 191.998C350.887 172.994 351.698 152.335 348.363 131.888C346.609 122.092 343.21 112.491 339.023 103.26C335.344 95.9148 331.839 87.7152 327.131 81.0474C322.423 74.3796 316.204 69.0021 311.015 62.947C308.421 59.9194 305.826 56.8918 303.231 53.8643C302.991 54.1706 302.202 54.5418 301.961 54.8482C306.255 62.6765 310.549 70.5048 314.843 78.3331C318.522 85.6785 324.019 91.9752 326.668 99.9981C328.568 106.442 332.661 112.627 334.013 119.136C337.735 135.925 339.504 152.666 335.792 170.056C333.227 180.919 329.567 191.911 325.291 202.421C324.222 205.048 320.519 206.598 318.287 208.807C319.201 175.354 310.622 143.857 310.025 111.693C308.222 119.687 306.353 127.133 306.742 134.868C307.522 150.337 308.609 166.047 310.485 181.387C312.093 194.535 312.297 207.571 309.693 220.384C303.83 247.476 291.229 271.753 275.993 294.953C275.512 295.565 275.271 295.872 274.482 296.243L275.658 292.213C274.455 293.745 273.426 294.423 272.944 295.036C274.909 290.635 277.18 286.476 279.452 282.317C288.607 266.228 296.531 249.173 300.724 231.171C303.288 220.308 306.093 209.139 301.946 197.958C297.731 186.23 292.727 174.873 286.935 163.888C282.066 153.627 278.226 142.688 276.578 131.49C274.422 118.407 275.863 105.176 277.611 92.1866C279.012 80.9056 281.883 70.2842 286.774 60.2576C288.979 55.5506 290.021 50.4256 291.677 45.7835L290.207 45.1239C288.456 46.7205 286.464 48.6234 284.78 50.7678C282.374 53.8313 280.343 57.684 278.859 61.472C274.371 74.7856 269.267 87.6163 265.941 101.348C262.402 117.884 263.623 134.69 267.893 151.413C269.485 157.616 273.511 163.253 274.797 169.215C276.523 176.513 280.309 182.456 284.334 188.093C286.381 191.186 288.908 193.665 291.195 196.451C288.013 195.439 284.764 193.878 282.236 191.398C272.567 182.816 262.898 174.235 253.951 164.734C243.332 152.93 238.475 138.221 236.84 122.576C234.909 102.241 242.458 84.3971 250.316 66.7946C254.003 58.2997 260.566 50.5761 265.725 42.7408C273.944 30.3752 281.923 18.3159 290.143 5.95028C291.827 3.80584 293.511 1.66147 295.81 0Z" fill="#F3F3F3"/>
<path d="M428.537 207.711C420.327 204.236 411.154 201.987 402.771 199.367C401.607 198.948 400.685 198.224 399.762 197.499C407.196 196.898 413.773 196.119 420.111 195.648C426.756 195.417 433.949 195.122 440.594 194.891C451.143 194.754 461.999 194.859 472.482 194.175C476.078 194.027 479.714 191.93 483.484 190.928L482.976 189.043L416.7 190.493C418.451 188.897 420.376 186.446 422.367 184.543C442.458 164.66 459.317 161.553 482.437 173.267C489.858 177.113 497.627 179.251 505.53 182.484C509.02 183.738 512.75 184.686 517.336 185.811C511.709 189.811 506.254 192.957 501.723 196.828C479.346 213.926 455.12 218.182 428.537 207.711Z" fill="#F3F3F3"/>
<path d="M303.957 475.878C317.771 484.247 323.925 500.47 337.913 507.985C332.306 491.698 320.043 480.088 308.193 467.319C310.694 467.301 313.367 466.428 315.694 467.265C325.482 469.997 334.027 476.211 339.551 485.005C345.383 494.041 347.752 504.32 349.025 514.729C349.762 520.755 350.191 526.539 350.688 532.872C344.737 529.686 339.642 526.676 334.374 524.521C313.714 514.739 304.752 498.293 303.957 475.878Z" fill="#F3F3F3"/>
<path d="M274.545 485.472C275.803 488.935 278.157 492.269 278.559 495.556C279.564 503.774 284.686 509.281 289.875 515.336C287.384 499.514 281.671 484.629 275.651 469.502C296.804 474.224 304.782 512.183 290.162 535.865C285.828 529.987 281.013 524.721 277.228 518.778C272.828 512.352 269.216 505.554 266.152 498.692C262.273 489.703 265.973 476.76 273.486 472.259C268.059 477.903 273.221 481.46 274.545 485.472Z" fill="#F3F3F3"/>
<path d="M212.333 379.18C212.163 379.047 219.996 368.789 229.828 356.269C239.661 343.749 247.769 333.707 247.939 333.841C248.109 333.974 240.276 344.232 230.443 356.752C220.611 369.272 212.502 379.313 212.333 379.18Z" fill="#F3F3F3"/>
<path d="M301.944 448.051C301.944 448.051 279.522 394.294 224.435 387.196L206.586 389.03C206.586 389.03 270.696 390.336 294.672 452.246C294.98 452.487 308.486 460.615 301.944 448.051Z" fill="#F3F3F3"/>
<path d="M291.818 481.205C291.818 481.205 282.284 423.7 230.175 404.579L212.406 402.513C212.406 402.513 274.421 418.517 284.105 484.063C284.345 483.756 295.686 494.641 291.818 481.205Z" fill="#F3F3F3"/>
<path d="M114.49 227.086C108.378 220.306 101.879 217.185 92.8006 217.981C90.608 218.241 88.3484 217.952 86.0887 217.664C65.8189 215.616 49.4229 199.772 46.9441 179.502C45.6713 169.093 45.2541 158.861 44.2218 148.146C50.0383 150.236 55.3068 152.392 61.1233 154.482C73.3047 158.599 84.5237 163.94 94.1926 172.522C104.784 181.828 107.595 193.445 107.318 207.093C89.2256 197.841 75.7713 183.316 60.633 170.935C61.5831 174.157 62.8409 177.621 65.0609 179.859C71.788 187.122 78.5821 194.932 86.5121 200.663C98.1331 209.292 110.716 216.695 120.653 227.468C123.863 230.979 127.38 234.731 130.831 237.935C131.071 237.628 131.62 237.564 132.101 236.951C131.967 235.855 131.525 234.518 131.151 233.729C127.176 221.694 122.106 209.79 119.228 197.626C114.998 178.952 114.365 160.132 122.396 141.675C123.05 140.208 123.772 139.289 124.734 138.064L125.898 138.482C125.203 141.898 124.75 145.009 124.296 148.119C123.818 160.125 121.936 172.018 123.343 183.523C125.943 209.336 136.084 233.145 149.072 255.228C166.22 284.044 176.617 314.492 174.674 348.623C173.928 358.437 172.326 368.075 171.339 378.195C182.363 354.66 188.013 330.372 182.912 304.577C179.699 289.674 175.082 274.659 171.255 259.272C167.36 243.338 164.869 227.516 170.426 211.575C177.294 192.7 189.417 180.428 210.488 177.657C221.451 176.36 232.521 173.661 243.417 171.816C243.417 171.816 244.033 172.299 244.648 172.782C232.244 187.31 227.128 204.588 225.809 223.362C223.796 245.553 220.138 267.938 214.702 289.422C211.03 304.862 207.357 320.303 203.136 335.807C202.307 338.129 201.479 340.45 200.343 342.529C199.421 341.805 199.286 340.709 199.46 339.855C203.252 318.565 202.831 296.94 199.67 275.64C198.425 267.728 197.42 259.511 196.963 251.229C196.531 234.051 202.637 218.045 209.906 202.458C210.975 199.83 212.044 197.203 213.768 193.108C212.19 193.851 210.92 194.835 209.65 195.819C194.506 210.671 186.743 231.319 187.645 252.331C188.278 271.152 190.315 290.085 190.4 308.971C190.915 333.641 187.458 357.67 176.915 380.592C169.405 396.486 161.588 412.139 154.386 428.274C138.845 462.625 129.602 498.454 138.744 536.831C138.811 537.379 138.811 537.379 138.878 537.927C138.705 538.781 138.531 539.635 138.424 541.037C137.502 540.313 137.127 539.523 136.445 538.493C132.337 525.363 129.806 511.49 130.324 497.535C130.196 469.206 138.011 442.161 148.152 415.952C155.915 395.304 161.418 374.367 159.526 352.083C157.849 326.994 143.992 309.182 123.238 296.354C100.091 282.143 74.4858 277.392 48.3994 273.253C47.5437 273.077 46.6879 272.9 45.5245 272.482L45.7256 274.126C46.3407 274.608 46.9558 275.091 47.8116 275.268C59.4447 279.449 70.8374 283.937 82.163 287.876C99.6128 294.148 116.822 300.726 130.623 313.543C135.304 317.713 139.022 323.108 142.914 327.65C142.674 327.956 142.193 328.569 141.644 328.634C137.606 327.444 133.742 325.4 129.704 324.211C111.426 320.26 92.6663 316.922 74.0806 312.73C55.1873 308.297 38.2979 297.513 26.9693 282.18C14.718 266.124 7.74727 247.775 0.228432 229.49C-0.146135 228.701 0.267957 227.541 0 225.349L20.687 237.629C18.9359 239.226 18.2142 240.145 16.9442 241.129C26.5188 246.665 36.413 247.995 46.962 247.858C54.4627 247.805 61.8965 247.203 69.1565 247.455C104.361 248.848 131.68 265.344 150.54 294.513C157.736 305.611 162.873 318.063 169.348 330.08C167.393 318.64 165.611 306.346 161.771 295.407C150.574 269.778 133.922 247.295 114.49 227.086Z" fill="#F3F3F3"/>
<path d="M81.0361 324.134C95.3431 327.443 109.342 330.51 123.168 334.432C131.552 337.053 139.522 340.834 144.498 349.693C143.642 349.516 142.479 349.098 141.623 348.921C131.26 343.756 120.336 343.104 108.825 344.466C101.458 345.615 94.1584 347.313 86.9653 347.608C62.7122 349.366 36.7294 332.433 30.6114 302.868C31.7748 303.286 32.938 303.704 33.8608 304.429C48.6641 314.07 64.4695 320.537 81.0361 324.134Z" fill="#F3F3F3"/>
<path d="M116.421 97.3652C116.826 112.045 122.231 126.689 117.328 141.163C104.717 131.262 100.061 118.197 100.926 102.533C101.444 88.5779 108.019 76.4068 113.297 62.722C120.84 72.111 128.182 79.8565 134.014 88.8923C141.518 100.231 142.203 112.655 134.772 124.649C132.674 127.954 130.335 131.565 127.996 135.177L126.525 134.517C124.677 121.675 125.81 108.203 116.421 97.3652Z" fill="#F3F3F3"/>
<path d="M194.762 117.273C191.863 125.397 186.329 132.443 179.057 136.638C169.726 142.188 160.088 147.497 150.997 152.74L179.146 116.898C164.562 127.238 152.679 139.203 146.707 156.305C145.223 160.093 143.192 163.945 140.853 167.557C139.063 171.103 137.272 174.65 135.174 177.955L132.847 177.118C135.478 166.803 137.187 155.764 140.981 145.867C146.713 129.072 159.01 115.946 175.092 108.763C184.317 104.615 193.541 100.467 202.765 96.3186C199.973 103.04 197.247 110.31 194.762 117.273Z" fill="#F3F3F3"/>
<path d="M259.119 191.077C260.657 192.284 261.647 193.557 262.636 194.829C264.442 198.228 265.941 201.385 267.198 204.849C272.375 215.351 275.427 226.661 275.978 237.989C276.474 244.322 275.018 250.607 271.784 255.992L266.604 234.096L264.171 234.662C264.841 240.14 265.819 245.86 265.94 251.403C266.37 257.188 267.895 262.843 262.469 268.487C257.745 254.874 252.848 242.115 251.174 228.419C250.007 216.609 250.552 205.151 255.617 194.27C257.194 193.528 258.157 192.302 259.119 191.077Z" fill="#F3F3F3"/>
<path d="M239.769 228.379C245.497 250.21 259.862 269.907 253.049 293.777L251.712 294.213L243.834 282.085C243.286 282.15 242.805 282.763 242.257 282.827L247.583 301.371C226.04 288.914 225.562 250.901 239.769 228.379Z" fill="#F3F3F3"/>
<path d="M148.417 456.769C158.034 421.729 180.061 394.947 203.559 368.825L205.03 369.485C202.036 374.563 199.35 379.883 195.982 384.171C184.915 398.263 173.3 412.42 165.242 428.379C147.055 466.1 141.811 505.068 152.317 545.507C153.977 552.257 156.733 558.878 158.941 565.564L157.604 566C155.289 560.716 151.879 555.562 150.112 550.214C138.312 519.654 139.494 488.391 148.417 456.769Z" fill="#F3F3F3"/>
<path d="M146.043 173.612C150.132 168.404 153.3 162.472 158.139 158.842C169.876 150.229 182.054 142.952 194.406 134.822C198.328 153.253 169.428 176.125 146.043 173.612Z" fill="#F3F3F3"/>
</svg>
