<svg width="29" height="29" viewBox="0 0 29 29" fill="none" xmlns="http://www.w3.org/2000/svg">
<path d="M0.500397 27.8941C0.730014 28.0245 1.00187 28.0587 1.25666 27.9894C1.51145 27.9201 1.72848 27.7528 1.8604 27.5241C2.5004 26.4041 3.2504 25.1041 4.1004 23.7041C6.23719 24.1101 8.40553 24.3276 10.5804 24.3541C14.4204 24.3541 17.4604 23.5241 19.7904 21.8741C24.2904 18.6641 25.1204 12.9841 25.7904 8.41408C26.2004 5.60408 26.5804 2.95408 27.7204 1.81408C27.8537 1.67999 27.9462 1.51086 27.9873 1.32631C28.0283 1.14176 28.0162 0.949356 27.9524 0.771405C27.8885 0.593454 27.7755 0.437249 27.6265 0.320907C27.4775 0.204564 27.2985 0.132851 27.1104 0.114083C26.5004 0.024083 12.5504 -1.14592 5.6904 6.58408C2.3204 10.3941 1.2904 15.6641 2.6404 22.2641C1.6404 23.8241 0.840397 25.2641 0.130397 26.5341C2.43336e-05 26.7637 -0.0342419 27.0356 0.0350749 27.2903C0.104392 27.5451 0.271665 27.7622 0.500397 27.8941ZM7.1804 7.89408C12.0004 2.43408 21.3504 2.02408 25.1904 2.02408C24.4549 3.98568 23.9874 6.03751 23.8004 8.12408C23.1604 12.5341 22.4304 17.5241 18.6304 20.2441C15.7004 22.3241 11.3004 22.8541 5.2504 21.8641C8.7304 16.4041 13.5504 10.1941 19.3504 8.02408C19.584 7.92104 19.7693 7.73256 19.8684 7.49726C19.9675 7.26196 19.9728 6.99768 19.8833 6.75857C19.7938 6.51946 19.6163 6.32365 19.387 6.21126C19.1578 6.09886 18.8942 6.07841 18.6504 6.15408C12.6504 8.38408 7.8304 14.2941 4.2504 19.7241C3.6404 14.7841 4.6204 10.8241 7.1904 7.91408L7.1804 7.89408Z" fill="#00A9A2"/>
</svg>
