<svg width="210" height="58" viewBox="0 0 210 58" fill="none" xmlns="http://www.w3.org/2000/svg">
<path d="M67.5881 51.7262V44.7963H68.4391V53.3066H67.7096L62.9682 46.3768V53.3066H62.1171V44.7963H62.8466L67.5881 51.7262Z" fill="#5F7271"/>
<path d="M76.7025 48.4193V47.2278H77.5049V53.3066H76.7025V52.1152C76.1432 53.0068 75.3246 53.4525 74.2467 53.4525C73.3794 53.4525 72.6378 53.1445 72.0218 52.5286C71.4139 51.9126 71.11 51.1588 71.11 50.2672C71.11 49.3757 71.4139 48.6219 72.0218 48.0059C72.6378 47.3899 73.3794 47.0819 74.2467 47.0819C75.3246 47.0819 76.1432 47.5277 76.7025 48.4193ZM72.6054 51.9815C73.0674 52.4435 73.6347 52.6744 74.3074 52.6744C74.9802 52.6744 75.5475 52.4435 76.0095 51.9815C76.4715 51.5033 76.7025 50.9319 76.7025 50.2672C76.7025 49.5945 76.4715 49.0272 76.0095 48.5652C75.5475 48.0951 74.9802 47.86 74.3074 47.86C73.6347 47.86 73.0674 48.0951 72.6054 48.5652C72.1434 49.0272 71.9124 49.5945 71.9124 50.2672C71.9124 50.9319 72.1434 51.5033 72.6054 51.9815Z" fill="#5F7271"/>
<path d="M81.4044 45.3556C81.4044 45.5177 81.3476 45.6554 81.2341 45.7689C81.1207 45.8824 80.9829 45.9391 80.8208 45.9391C80.6587 45.9391 80.5209 45.8824 80.4074 45.7689C80.294 45.6554 80.2372 45.5177 80.2372 45.3556C80.2372 45.1935 80.294 45.0557 80.4074 44.9422C80.5209 44.8287 80.6587 44.772 80.8208 44.772C80.9829 44.772 81.1207 44.8287 81.2341 44.9422C81.3476 45.0557 81.4044 45.1935 81.4044 45.3556ZM81.222 53.3066H80.4196V47.2278H81.222V53.3066Z" fill="#5F7271"/>
<path d="M84.9429 53.3066H84.1405V44.4316H84.9429V53.3066Z" fill="#5F7271"/>
<path d="M97.3443 48.4193V47.2278H98.1467V53.3066H97.3443V52.1152C96.7851 53.0068 95.9665 53.4525 94.8885 53.4525C94.0212 53.4525 93.2796 53.1445 92.6636 52.5286C92.0558 51.9126 91.7518 51.1588 91.7518 50.2672C91.7518 49.3757 92.0558 48.6219 92.6636 48.0059C93.2796 47.3899 94.0212 47.0819 94.8885 47.0819C95.9665 47.0819 96.7851 47.5277 97.3443 48.4193ZM93.2472 51.9815C93.7092 52.4435 94.2766 52.6744 94.9493 52.6744C95.622 52.6744 96.1893 52.4435 96.6513 51.9815C97.1133 51.5033 97.3443 50.9319 97.3443 50.2672C97.3443 49.5945 97.1133 49.0272 96.6513 48.5652C96.1893 48.0951 95.622 47.86 94.9493 47.86C94.2766 47.86 93.7092 48.0951 93.2472 48.5652C92.7852 49.0272 92.5542 49.5945 92.5542 50.2672C92.5542 50.9319 92.7852 51.5033 93.2472 51.9815Z" fill="#5F7271"/>
<path d="M103.906 47.0819C104.636 47.0819 105.215 47.3089 105.645 47.7628C106.074 48.2085 106.289 48.8124 106.289 49.5742V53.3066H105.487V49.5742C105.487 49.0312 105.341 48.6097 105.049 48.3099C104.765 48.01 104.36 47.86 103.833 47.86C103.225 47.86 102.743 48.0505 102.387 48.4314C102.038 48.8124 101.864 49.3757 101.864 50.1213V53.3066H101.061V47.2278H101.864V48.1761C102.318 47.4467 102.999 47.0819 103.906 47.0819Z" fill="#5F7271"/>
<path d="M114.284 48.4193V44.7963H115.087V53.3066H114.284V52.1152C113.725 53.0068 112.906 53.4525 111.828 53.4525C110.961 53.4525 110.22 53.1445 109.604 52.5286C108.996 51.9126 108.692 51.1588 108.692 50.2672C108.692 49.3757 108.996 48.6219 109.604 48.0059C110.22 47.3899 110.961 47.0819 111.828 47.0819C112.906 47.0819 113.725 47.5277 114.284 48.4193ZM110.187 51.9815C110.649 52.4435 111.216 52.6744 111.889 52.6744C112.562 52.6744 113.129 52.4435 113.591 51.9815C114.053 51.5033 114.284 50.9319 114.284 50.2672C114.284 49.5945 114.053 49.0272 113.591 48.5652C113.129 48.0951 112.562 47.86 111.889 47.86C111.216 47.86 110.649 48.0951 110.187 48.5652C109.725 49.0272 109.494 49.5945 109.494 50.2672C109.494 50.9319 109.725 51.5033 110.187 51.9815Z" fill="#5F7271"/>
<path d="M127.095 48.8934C127.517 49.0717 127.849 49.3433 128.092 49.708C128.335 50.0727 128.457 50.482 128.457 50.9359C128.457 51.5924 128.226 52.1517 127.764 52.6137C127.302 53.0756 126.743 53.3066 126.086 53.3066H122.378V44.7963H125.807C126.431 44.7963 126.97 45.0232 127.424 45.4771C127.869 45.9229 128.092 46.4578 128.092 47.0819C128.092 47.8762 127.76 48.4801 127.095 48.8934ZM125.807 45.5987H123.229V48.5652H125.807C126.196 48.5652 126.532 48.4233 126.816 48.1397C127.099 47.8398 127.241 47.4872 127.241 47.0819C127.241 46.6848 127.099 46.3363 126.816 46.0364C126.532 45.7446 126.196 45.5987 125.807 45.5987ZM123.229 52.5042H126.086C126.508 52.5042 126.864 52.3543 127.156 52.0544C127.456 51.7545 127.606 51.3817 127.606 50.9359C127.606 50.4982 127.456 50.1294 127.156 49.8296C126.864 49.5216 126.508 49.3676 126.086 49.3676H123.229V52.5042Z" fill="#5F7271"/>
<path d="M133.82 47.0819C134.728 47.0819 135.453 47.4021 135.996 48.0424C136.555 48.6746 136.835 49.4243 136.835 50.2915C136.835 50.3321 136.827 50.4577 136.811 50.6684H131.473C131.554 51.2763 131.814 51.7626 132.252 52.1273C132.689 52.4921 133.236 52.6744 133.893 52.6744C134.817 52.6744 135.469 52.33 135.85 51.641L136.555 52.0544C136.288 52.4921 135.919 52.8365 135.449 53.0878C134.987 53.331 134.464 53.4525 133.881 53.4525C132.924 53.4525 132.146 53.1526 131.546 52.5529C130.947 51.9531 130.647 51.1912 130.647 50.2672C130.647 49.3514 130.943 48.5935 131.534 47.9938C132.126 47.3859 132.888 47.0819 133.82 47.0819ZM133.82 47.86C133.188 47.86 132.657 48.0464 132.227 48.4193C131.806 48.7921 131.554 49.2825 131.473 49.8904H136.008C135.919 49.2419 135.672 48.7435 135.267 48.395C134.845 48.0383 134.363 47.86 133.82 47.86Z" fill="#5F7271"/>
<path d="M144.555 48.4193V47.2278H145.357V53.3066H144.555V52.1152C143.996 53.0068 143.177 53.4525 142.099 53.4525C141.232 53.4525 140.49 53.1445 139.874 52.5286C139.266 51.9126 138.962 51.1588 138.962 50.2672C138.962 49.3757 139.266 48.6219 139.874 48.0059C140.49 47.3899 141.232 47.0819 142.099 47.0819C143.177 47.0819 143.996 47.5277 144.555 48.4193ZM140.458 51.9815C140.92 52.4435 141.487 52.6744 142.16 52.6744C142.833 52.6744 143.4 52.4435 143.862 51.9815C144.324 51.5033 144.555 50.9319 144.555 50.2672C144.555 49.5945 144.324 49.0272 143.862 48.5652C143.4 48.0951 142.833 47.86 142.16 47.86C141.487 47.86 140.92 48.0951 140.458 48.5652C139.996 49.0272 139.765 49.5945 139.765 50.2672C139.765 50.9319 139.996 51.5033 140.458 51.9815Z" fill="#5F7271"/>
<path d="M152.551 50.4131V47.2278H153.354V53.3066H152.551V52.3583C152.098 53.0878 151.417 53.4525 150.509 53.4525C149.779 53.4525 149.2 53.2296 148.77 52.7839C148.341 52.33 148.126 51.7221 148.126 50.9602V47.2278H148.928V50.9602C148.928 51.5033 149.07 51.9247 149.354 52.2246C149.646 52.5245 150.055 52.6744 150.582 52.6744C151.19 52.6744 151.668 52.484 152.016 52.103C152.373 51.7221 152.551 51.1588 152.551 50.4131Z" fill="#5F7271"/>
<path d="M159.489 47.2278V48.0059H157.738V51.6897C157.738 52.022 157.803 52.2611 157.933 52.407C158.062 52.5448 158.257 52.6177 158.516 52.6258C158.776 52.6258 159.1 52.6177 159.489 52.6015V53.3066C158.622 53.4363 157.977 53.3755 157.556 53.1243C157.142 52.8649 156.936 52.3867 156.936 51.6897V48.0059H155.659V47.2278H156.936V45.7689L157.738 45.5258V47.2278H159.489Z" fill="#5F7271"/>
<path d="M164.568 52.3219L166.537 47.2278H167.388L164.787 53.8659C164.543 54.4819 164.203 54.956 163.765 55.2883C163.336 55.6287 162.858 55.7787 162.331 55.7382V54.9844C163.06 55.0736 163.615 54.6521 163.996 53.72L164.154 53.3431L161.431 47.2278H162.282L164.568 52.3219Z" fill="#5F7271"/>
<path d="M176.625 53.4525C175.847 53.4525 175.179 53.2702 174.619 52.9054C174.068 52.5326 173.683 52.022 173.464 51.3736L174.194 50.9481C174.348 51.483 174.631 51.8964 175.045 52.1881C175.466 52.4799 175.997 52.6258 176.637 52.6258C177.262 52.6258 177.752 52.488 178.109 52.2125C178.465 51.9369 178.643 51.564 178.643 51.094C178.643 50.6482 178.481 50.3118 178.157 50.0849C177.841 49.8579 177.306 49.6229 176.552 49.3797C175.653 49.0798 175.069 48.8448 174.802 48.6746C174.153 48.2855 173.829 47.7222 173.829 46.9847C173.829 46.2633 174.08 45.696 174.583 45.2826C175.077 44.8611 175.697 44.6504 176.443 44.6504C177.083 44.6504 177.651 44.8206 178.145 45.161C178.639 45.4933 179.008 45.9351 179.251 46.4862L178.534 46.8874C178.145 45.9472 177.448 45.4771 176.443 45.4771C175.908 45.4771 175.478 45.6109 175.154 45.8783C174.838 46.1377 174.68 46.4943 174.68 46.9482C174.68 47.3778 174.826 47.6939 175.118 47.8965C175.418 48.1072 175.9 48.322 176.565 48.5409L177.221 48.7718C177.359 48.8124 177.553 48.8853 177.805 48.9907C178.08 49.0961 178.271 49.1852 178.376 49.2582C178.806 49.5175 179.077 49.7566 179.191 49.9755C179.393 50.2997 179.495 50.6644 179.495 51.0696C179.495 51.791 179.231 52.3705 178.704 52.8082C178.177 53.2377 177.484 53.4525 176.625 53.4525Z" fill="#5F7271"/>
<path d="M187.396 48.4193V47.2278H188.199V53.3066H187.396V52.1152C186.837 53.0068 186.018 53.4525 184.94 53.4525C184.073 53.4525 183.331 53.1445 182.716 52.5286C182.108 51.9126 181.804 51.1588 181.804 50.2672C181.804 49.3757 182.108 48.6219 182.716 48.0059C183.331 47.3899 184.073 47.0819 184.94 47.0819C186.018 47.0819 186.837 47.5277 187.396 48.4193ZM183.299 51.9815C183.761 52.4435 184.328 52.6744 185.001 52.6744C185.674 52.6744 186.241 52.4435 186.703 51.9815C187.165 51.5033 187.396 50.9319 187.396 50.2672C187.396 49.5945 187.165 49.0272 186.703 48.5652C186.241 48.0951 185.674 47.86 185.001 47.86C184.328 47.86 183.761 48.0951 183.299 48.5652C182.837 49.0272 182.606 49.5945 182.606 50.2672C182.606 50.9319 182.837 51.5033 183.299 51.9815Z" fill="#5F7271"/>
<path d="M191.916 53.3066H191.113V44.4316H191.916V53.3066Z" fill="#5F7271"/>
<path d="M199.928 52.5407C199.304 53.1486 198.55 53.4525 197.667 53.4525C196.767 53.4525 196.009 53.1486 195.393 52.5407C194.777 51.9247 194.469 51.1669 194.469 50.2672C194.469 49.3676 194.777 48.6138 195.393 48.0059C196.009 47.3899 196.767 47.0819 197.667 47.0819C198.558 47.0819 199.312 47.3899 199.928 48.0059C200.552 48.6138 200.864 49.3676 200.864 50.2672C200.864 51.1588 200.552 51.9166 199.928 52.5407ZM195.965 51.9815C196.427 52.4435 196.994 52.6744 197.667 52.6744C198.34 52.6744 198.907 52.4435 199.369 51.9815C199.831 51.5033 200.062 50.9319 200.062 50.2672C200.062 49.5945 199.831 49.0272 199.369 48.5652C198.907 48.0951 198.34 47.86 197.667 47.86C196.994 47.86 196.427 48.0951 195.965 48.5652C195.503 49.0272 195.272 49.5945 195.272 50.2672C195.272 50.9319 195.503 51.5033 195.965 51.9815Z" fill="#5F7271"/>
<path d="M206.268 47.0819C206.997 47.0819 207.577 47.3089 208.006 47.7628C208.436 48.2085 208.651 48.8124 208.651 49.5742V53.3066H207.848V49.5742C207.848 49.0312 207.702 48.6097 207.411 48.3099C207.127 48.01 206.722 47.86 206.195 47.86C205.587 47.86 205.105 48.0505 204.748 48.4314C204.4 48.8124 204.225 49.3757 204.225 50.1213V53.3066H203.423V47.2278H204.225V48.1761C204.679 47.4467 205.36 47.0819 206.268 47.0819Z" fill="#5F7271"/>
<path d="M74.7818 34.3364L74.5796 35.5485L62.7167 35.4475L62.9526 34.2354C63.6266 33.9997 64.3006 33.7976 64.941 33.6293C65.615 33.4946 66.3227 33.3599 67.0979 33.2589L72.5912 8.24148L66.1542 8.20781L62.6156 14.2012H61.5371C61.5708 13.6288 61.6382 12.9891 61.7393 12.282C61.8404 11.5749 61.9415 10.8341 62.0763 10.0934C62.1774 9.35262 62.3122 8.61186 62.447 7.90478C62.5819 7.19769 62.7167 6.55794 62.8515 5.98554L87.285 6.15389C87.1839 6.7263 87.0154 7.33237 86.8469 8.03946C86.6784 8.74654 86.4762 9.45363 86.274 10.1944C86.0718 10.9352 85.8696 11.6759 85.6337 12.383C85.4314 13.0901 85.1955 13.7635 84.9933 14.3359H83.9149L83.0723 8.30882L76.6354 8.27516L71.142 33.2926C71.8161 33.4273 72.4564 33.5956 73.063 33.7303C73.6696 33.865 74.2426 34.067 74.7818 34.3364Z" fill="#32A09A"/>
<path d="M103.866 7.46705L104.169 6.25491L113.741 6.28858L113.437 7.50073C112.932 7.73642 112.359 7.97212 111.752 8.14047C111.146 8.30882 110.573 8.44351 110.034 8.54452L99.0805 19.8579C99.5861 20.8007 100.159 21.8108 100.833 22.922C101.473 24.0331 102.181 25.2116 102.923 26.4237C103.664 27.6359 104.439 28.848 105.214 30.0939C106.023 31.3397 106.798 32.5182 107.573 33.6293L109.393 34.6394L109.191 35.6832L104.102 35.6495L102.889 34.6394C101.642 32.6865 100.429 30.5989 99.249 28.343C98.0695 26.087 96.9911 23.8311 95.9463 21.5078H93.722L91.1944 33.3599C92.3402 33.5956 93.3176 33.9323 94.0927 34.3701L93.8905 35.5822L83.2409 35.5485L83.4431 34.3364C84.7237 33.8313 85.937 33.4946 87.1502 33.3263L92.5088 8.37616C91.9021 8.27515 91.2955 8.1068 90.7563 7.93845C90.2171 7.77009 89.7115 7.56807 89.2734 7.2987L89.5767 6.08655L100.226 6.12022L99.9568 7.33237C99.0131 7.77009 97.8673 8.14047 96.5529 8.37616L94.059 20.0263L96.5866 19.4539L106.731 8.44351C106.158 8.30883 105.652 8.14047 105.214 8.00579C104.709 7.93845 104.271 7.73642 103.866 7.46705Z" fill="#32A09A"/>
<path d="M136.894 30.7673L138.41 23.7974C138.612 22.922 138.781 22.1139 138.949 21.3731C139.118 20.6323 139.185 19.8916 139.185 19.1508C139.185 18.5111 139.05 17.9724 138.747 17.501C138.444 17.0632 137.972 16.8275 137.332 16.8275C136.59 16.8275 135.815 17.1306 135.006 17.7367C134.231 18.3427 133.49 19.0835 132.816 19.9589C132.142 20.8344 131.535 21.7435 130.996 22.6863C130.457 23.6291 130.018 24.4035 129.749 25.0096L127.525 35.7506H123.986L127.693 17.1643L125.132 16.7939L125.233 15.7501C125.637 15.548 126.075 15.3797 126.547 15.1777C127.053 15.0093 127.558 14.841 128.064 14.7063C128.569 14.5716 129.075 14.4706 129.58 14.3696C130.086 14.3022 130.524 14.2349 130.962 14.2349L131.805 14.74L130.187 22.1812H130.389C130.928 21.0701 131.535 20.0263 132.209 19.0498C132.883 18.0734 133.625 17.2316 134.4 16.5245C135.175 15.8174 135.984 15.245 136.826 14.841C137.669 14.4369 138.511 14.2349 139.387 14.2349C140.567 14.2349 141.443 14.6053 141.983 15.346C142.522 16.0868 142.791 17.0296 142.791 18.1407C142.791 18.7468 142.724 19.5212 142.589 20.464C142.454 21.3731 142.286 22.2485 142.084 23.0566L139.691 33.3936H142.791V34.4711C142.218 34.9088 141.544 35.2792 140.736 35.5485C139.927 35.8179 139.152 35.9526 138.41 35.9526C137.601 35.9526 137.028 35.7842 136.725 35.4475C136.422 35.1108 136.253 34.7404 136.253 34.3364C136.253 33.7976 136.321 33.2252 136.455 32.5855C136.624 32.0468 136.759 31.407 136.894 30.7673Z" fill="#32A09A"/>
<path d="M153.947 33.663C154.688 33.663 155.463 33.2926 156.205 32.5855C156.946 31.8784 157.687 31.003 158.361 29.9928C159.035 28.9827 159.642 27.9389 160.181 26.8278C160.721 25.7166 161.125 24.8075 161.428 24.1004L162.743 16.8949C162.338 16.6255 161.967 16.4235 161.597 16.3225C161.226 16.2215 160.72 16.1541 160.08 16.1541C158.8 16.1541 157.62 16.5582 156.575 17.3663C155.53 18.1744 154.621 19.2182 153.879 20.464C153.138 21.7435 152.565 23.124 152.16 24.6728C151.756 26.2217 151.554 27.7369 151.554 29.2184C151.554 30.6326 151.722 31.7437 152.093 32.5182C152.464 33.2589 153.07 33.663 153.947 33.663ZM160.754 27.5012H160.586C160.215 28.5113 159.777 29.5214 159.238 30.5652C158.698 31.609 158.058 32.5518 157.35 33.3936C156.643 34.2354 155.834 34.9424 154.991 35.4475C154.115 35.9862 153.205 36.2556 152.228 36.2556C149.296 36.2556 147.847 34.1343 147.847 29.9255C147.847 27.9726 148.116 26.0534 148.689 24.1678C149.262 22.3159 150.071 20.6323 151.116 19.1845C152.194 17.7367 153.475 16.5582 154.991 15.6491C156.508 14.7736 158.26 14.3022 160.181 14.3022C160.889 14.3022 161.428 14.3696 161.866 14.5043C162.271 14.6389 162.776 14.8073 163.383 15.0767C164.495 14.4706 165.675 14.2012 166.922 14.2012L163.147 33.4273H166.214V34.4711C165.641 34.9088 164.967 35.2792 164.192 35.5822C163.417 35.8516 162.641 36.0199 161.866 36.0199C161.058 36.0199 160.451 35.8516 160.114 35.5149C159.777 35.1781 159.575 34.8078 159.575 34.4037C159.575 33.8987 159.676 33.0569 159.878 31.9121C160.08 30.6999 160.383 29.2521 160.754 27.5012Z" fill="#32A09A"/>
<path d="M174.673 17.1306L171.977 16.7265V15.6827C172.381 15.5144 172.887 15.346 173.392 15.144C173.931 14.942 174.471 14.8073 175.044 14.6389C175.617 14.5043 176.122 14.3696 176.628 14.2686C177.133 14.1675 177.571 14.1002 177.976 14.1002L178.751 14.6053L174.875 33.3263H177.976V34.4037C177.403 34.8414 176.695 35.2118 175.92 35.5149C175.145 35.7842 174.37 35.9526 173.594 35.9526C172.786 35.9526 172.213 35.7842 171.842 35.4138C171.505 35.0435 171.303 34.6394 171.303 34.168C171.303 33.5956 171.336 33.0569 171.438 32.5182C171.505 31.9794 171.64 31.407 171.775 30.7336L174.673 17.1306ZM175.313 7.36604C175.313 6.62528 175.515 6.05288 175.987 5.64883C176.425 5.21111 177.032 5.00908 177.74 5.00908C178.515 5.00908 179.155 5.21111 179.593 5.64883C180.031 6.05288 180.267 6.62528 180.267 7.36604C180.267 8.07313 180.065 8.61187 179.593 9.01591C179.155 9.41996 178.515 9.62199 177.74 9.62199C176.998 9.62199 176.425 9.41996 175.954 9.04958C175.482 8.6792 175.313 8.07313 175.313 7.36604Z" fill="#32A09A"/>
<path d="M183.637 30.6663L188.423 6.89465L185.424 6.52427V5.48048C185.828 5.31212 186.266 5.14377 186.805 4.97541C187.311 4.80706 187.884 4.63871 188.457 4.47035C189.03 4.302 189.603 4.16732 190.176 4.0663C190.749 3.96529 191.254 3.89795 191.692 3.89795L192.535 4.36934L186.907 33.2252L189.973 33.1916V34.269C189.4 34.7068 188.726 35.0771 187.951 35.3802C187.142 35.6495 186.367 35.8179 185.626 35.8179C184.817 35.8179 184.21 35.6495 183.84 35.2792C183.469 34.9088 183.267 34.5047 183.267 34.0333C183.267 33.4609 183.3 32.9222 183.402 32.3835C183.368 31.9121 183.503 31.306 183.637 30.6663Z" fill="#32A09A"/>
<path d="M204.162 30.5316C204.128 29.8582 203.926 29.2858 203.589 28.7807C203.218 28.2756 202.78 27.8379 202.241 27.3665C201.701 26.9288 201.095 26.4911 200.488 26.0197C199.882 25.582 199.275 25.0769 198.736 24.5382C198.197 23.9994 197.725 23.3597 197.388 22.6526C197.017 21.9455 196.848 21.0701 196.848 20.0599C196.848 19.0498 197.017 18.1744 197.421 17.4C197.792 16.6255 198.331 15.9858 199.039 15.4807C199.713 14.9757 200.556 14.5716 201.533 14.3022C202.51 14.0329 203.555 13.8982 204.701 13.8645C205.442 13.8645 206.251 13.9319 207.161 14.0329C208.071 14.1676 208.947 14.4369 209.756 14.9083C209.756 15.2113 209.689 15.5817 209.588 15.9858C209.487 16.3898 209.318 16.7939 209.15 17.1643C208.981 17.5346 208.779 17.905 208.543 18.2081C208.307 18.5448 208.071 18.7468 207.835 18.8815L204.701 15.6491C204.094 15.6827 203.555 15.7501 203.05 15.8848C202.544 15.9858 202.106 16.1878 201.735 16.4572C201.364 16.7265 201.061 17.0296 200.859 17.4673C200.657 17.8713 200.556 18.3764 200.556 19.0161C200.556 19.7569 200.758 20.363 201.129 20.9017C201.499 21.4068 201.971 21.9118 202.51 22.3496C203.05 22.821 203.656 23.2587 204.296 23.6964C204.937 24.1341 205.51 24.6055 206.083 25.1442C206.622 25.683 207.094 26.3227 207.464 27.0298C207.835 27.7369 208.037 28.5787 208.037 29.5551C208.037 30.5652 207.835 31.4744 207.363 32.2488C206.892 33.0232 206.285 33.6966 205.476 34.269C204.667 34.8078 203.757 35.2455 202.713 35.5485C201.668 35.8516 200.556 35.9862 199.376 35.9862C198.197 35.9862 197.118 35.8852 196.141 35.6495C195.163 35.4138 194.388 35.1108 193.849 34.7741C193.984 34.0333 194.152 33.3263 194.355 32.6528C194.557 31.9457 194.961 31.306 195.568 30.7336L199.376 34.2017C199.983 34.2017 200.556 34.1343 201.129 33.966C201.701 33.8313 202.207 33.5956 202.679 33.2926C203.151 32.9895 203.521 32.5855 203.825 32.1478C203.959 31.7101 204.128 31.1713 204.162 30.5316Z" fill="#32A09A"/>
<path d="M22.6945 26.2717C22.5224 25.5062 22.2124 24.7754 21.9025 24.0795C21.1104 22.3049 19.8362 20.8086 18.2176 19.7647C16.358 18.5816 14.2917 17.7465 12.1566 17.3637C9.9181 16.9461 7.6452 16.5982 5.40674 16.2154C5.06236 16.1458 4.99349 16.285 5.02793 16.5981C5.16568 17.3289 5.30342 18.0596 5.40674 18.8252C5.61337 20.3214 5.71668 21.8177 5.95775 23.2792C6.371 26.0629 7.92071 28.2203 9.81479 30.2038L11.3989 31.874C10.4691 31.5261 9.6426 31.2129 8.78165 30.8649C7.57633 30.3777 6.33656 30.2386 5.06236 30.2386C3.47822 30.2386 1.89408 30.2038 0.275499 30.169C0.172185 30.169 0.103314 30.2038 0 30.2386C0.103314 30.4473 0.172183 30.5865 0.241059 30.7605C0.413248 31.1433 0.654315 31.5261 0.792067 31.9436C1.34307 33.3007 1.79077 34.6926 2.41065 36.0149C3.03053 37.3371 4.02923 38.3463 5.30343 39.077C6.47432 39.7381 7.71408 39.8773 9.02271 39.9121C10.538 39.9121 12.0877 39.9121 13.603 39.9121C14.395 39.9121 15.1527 39.9121 15.9447 39.9121C15.9447 39.8773 15.9447 39.8077 15.9447 39.7381C15.6348 39.5989 15.3248 39.425 14.9805 39.3206C13.5341 38.9726 12.0532 38.6594 10.6069 38.3462C9.33266 38.0679 8.0929 37.7199 6.92201 37.0936C5.78556 36.4672 4.85573 35.5625 4.20141 34.449C3.99479 34.101 3.75372 33.7531 3.5471 33.4051C3.99479 33.6487 4.40804 33.9618 4.78686 34.3446C6.26769 35.7713 8.12733 36.7456 10.1247 37.1632C11.1579 37.3719 12.1566 37.5111 13.1897 37.7199C14.7738 38.0331 16.2891 38.5202 17.7699 39.2162C17.9077 39.251 18.011 39.2858 18.1488 39.2858C17.7699 38.8682 17.2878 38.555 16.909 38.2071C15.9792 37.2675 14.8427 36.7108 13.7407 36.0497C13.0864 35.6669 12.3632 35.3885 11.64 35.1101C10.1592 34.5186 8.71278 33.9618 7.23195 33.4399C6.57763 33.1963 5.92331 33.1267 5.26899 32.9179C4.58023 32.7091 3.89147 32.4308 3.20272 32.222C3.23715 32.1524 3.23716 32.1176 3.2716 32.048C9.3671 32.396 14.7738 34.5534 19.3541 38.7638L19.4918 38.6246C19.423 38.4506 19.3196 38.3115 19.2508 38.1723C18.8719 37.6503 18.4587 37.0936 18.0454 36.6064C17.4944 35.9453 16.909 35.2841 16.2891 34.6926C14.946 33.4051 13.5685 32.1872 12.2254 30.8997C11.7777 30.4821 11.3645 29.995 10.9512 29.5426C11.8122 30.1342 12.6043 30.7605 13.4308 31.4217C14.3262 32.1524 15.256 32.8483 16.1169 33.5791C16.8401 34.1706 17.5633 34.797 18.2521 35.4233C18.6998 35.8409 19.0786 36.328 19.5263 36.7456C19.6296 36.85 19.8362 36.85 19.9395 36.8848C19.8018 36.502 19.7329 36.154 19.5263 35.8757C18.9064 35.0405 18.2865 34.1706 17.5289 33.4399C16.1169 32.1176 14.6361 30.8649 13.1897 29.5774C12.3632 28.8119 11.5022 28.0812 10.7446 27.246C9.22934 25.6106 8.40284 23.5575 7.74852 21.4349C7.50745 20.6694 7.3697 19.9039 7.19751 19.1383L7.30082 19.1035C7.33526 19.2079 7.40414 19.2775 7.43858 19.3819C7.98959 20.9478 8.57502 22.4788 9.53928 23.8359C9.84922 24.3231 10.1936 24.7754 10.5035 25.2626C11.1923 26.4109 12.191 27.2112 13.1553 28.0811C14.2228 29.0207 15.3937 29.821 16.4613 30.7605C17.5977 31.7348 18.6309 32.8135 19.5607 33.9966C20.7316 35.4929 21.6614 37.0588 22.178 38.903C22.2124 38.6246 22.2813 38.381 22.2469 38.1723C22.0747 36.9544 21.9025 35.7365 21.7303 34.5186C21.6614 33.8922 21.627 33.2311 21.5581 32.6048C21.3859 31.1433 21.1448 29.6818 20.6627 28.2551C19.9395 26.2021 18.8031 24.4275 17.1845 23.0704C15.5315 21.6785 13.6029 20.8782 11.6056 20.1822C10.8824 19.9387 10.1592 19.6603 9.40153 19.4167C9.40153 19.3471 9.43597 19.2775 9.43597 19.2427C10.4347 19.4167 11.3989 19.5559 12.3976 19.7647C14.2228 20.1474 15.9792 20.739 17.4944 21.8873C19.113 23.1052 20.3872 24.7058 21.1793 26.5849C21.9714 28.3595 22.3846 30.2734 22.6257 32.1872C22.6946 32.7091 22.5568 33.2659 22.6945 33.7531C23.0045 35.0405 23.2456 36.3628 23.2111 37.7199C23.2111 38.5898 23.2111 39.425 23.2111 40.2949C23.28 38.9726 23.2456 37.6503 23.3144 36.328C23.3833 34.101 23.5899 31.9088 23.28 29.6818C23.0045 28.5335 22.9012 27.3852 22.6945 26.2717Z" fill="url(#paint0_linear_1_755)"/>
<path d="M38.6737 10.4739C38.5015 10.5783 38.3982 10.6131 38.3293 10.6827C37.0207 11.6222 35.5054 12.2485 33.8869 12.4573C32.6815 12.6313 31.5106 12.9097 30.3742 13.2228C28.3424 13.7796 26.7927 14.9627 25.8628 16.8765C25.5185 17.5725 25.3118 18.3728 25.1052 19.1383C24.8641 20.043 24.6231 20.9826 24.4509 21.8873C24.3131 22.5136 24.2443 23.14 24.1409 23.7663H24.0376C24.0032 23.6619 23.9688 23.5227 23.9343 23.4184C23.831 22.0613 23.6932 20.7042 23.6932 19.3471C23.6932 17.7812 24.0721 16.2502 24.8297 14.9279C25.6562 13.536 26.2072 11.9702 26.4827 10.3695C26.6893 9.04721 26.7238 7.75972 26.2761 6.50703C26.1383 6.08947 25.9662 5.63711 25.6906 5.28914C24.8297 4.07124 23.5899 3.30571 22.2469 2.78376C20.8005 2.19221 19.2852 1.70505 18.011 0.765532L16.9779 0C16.9434 0.173985 16.9434 0.278376 16.909 0.34797C16.7712 1.60066 16.6679 2.85335 16.5302 4.10604C16.4269 5.11515 16.2891 6.15906 16.1858 7.16817C16.1169 8.14249 16.2891 9.1168 16.8401 9.95193C17.3567 10.7871 17.9766 11.5526 18.6309 12.2485C19.8706 13.5708 21.1104 14.8931 21.7647 16.6677C21.9714 17.2593 22.2124 17.8508 22.4535 18.4424C22.3846 17.7465 22.2469 17.0505 22.1435 16.3546C21.7992 14.0232 21.1793 11.7614 20.3528 9.56916C19.8706 8.35127 19.3885 7.13338 18.9408 5.91548C18.7342 5.32393 18.6309 4.73239 18.4931 4.14084L18.6309 4.10604C18.8031 4.5584 18.9408 5.01076 19.1475 5.46312C19.664 6.64622 20.215 7.75972 20.6972 8.94282C21.3515 10.5087 21.8336 12.1441 22.178 13.8144C22.2813 14.2668 22.419 14.7191 22.4879 15.2063C22.5568 15.6238 22.5912 16.0762 22.6257 16.4938C22.6946 16.9113 22.7634 17.3637 22.8323 17.7812H22.9701C23.1767 16.0414 23.4522 14.3016 23.5555 12.5617C23.5899 11.6222 23.4866 10.6827 23.2456 9.77795C22.7979 7.9685 21.7992 6.43744 20.525 5.08036C20.2839 4.80198 20.0428 4.5236 19.8018 4.24523C19.9051 4.21043 19.974 4.21043 20.0773 4.28003C20.9038 5.04556 21.7992 5.7763 22.5568 6.64622C24.2443 8.56005 24.6919 10.8915 24.3131 13.362C24.1409 14.4755 23.831 15.589 23.6244 16.7025C23.5899 16.9113 23.7277 17.2245 23.6244 17.3637C23.2111 17.9204 23.3144 18.512 23.28 19.1035C23.1422 21.7829 24.0032 24.3231 24.3131 26.9676C24.382 26.6545 24.4164 26.3065 24.4164 25.9933C24.3476 24.4275 24.5542 22.8616 24.9675 21.3653C25.4496 19.5907 26.5172 18.0944 27.8602 16.8417C28.5145 16.2502 29.2722 15.763 30.0643 15.3455C30.7186 15.0323 31.4073 14.6495 32.0961 14.4407C32.7849 14.232 33.508 14.1972 34.1968 14.058C34.5412 13.9884 34.8856 13.9188 35.2299 13.8492C35.2299 13.884 35.2644 13.9536 35.2644 13.9884C34.5412 14.3016 33.818 14.6147 33.0948 14.9279C32.4405 15.2411 31.7173 15.3803 31.0974 15.7978C30.6153 16.1458 29.9954 16.3546 29.5477 16.7373C28.3768 17.7117 27.3437 18.7904 26.6549 20.217C26.2416 21.1218 25.8973 22.0961 25.6218 23.0704C25.5529 23.314 25.7251 23.6271 25.7595 23.9055C27.5158 21.5045 29.8232 19.7647 31.614 17.5377C31.304 18.1988 31.0285 18.8252 30.5808 19.3471C29.6854 20.391 28.7556 21.4349 27.7914 22.4092C26.9648 23.2444 26.2417 24.1491 25.7251 25.193C24.6575 27.42 24.2098 29.821 24.0032 32.2916C24.0032 32.3612 24.0032 32.396 24.0376 32.4656L24.1754 32.1176C24.1754 32.2916 24.2098 32.396 24.2098 32.4656C24.3131 32.048 24.382 31.6304 24.4509 31.2129C24.6919 29.5774 25.0708 27.942 25.7595 26.4457C26.1728 25.541 26.586 24.6015 27.4814 24.0447C28.4112 23.4532 29.3755 22.9312 30.3742 22.4788C31.2696 22.0265 32.1305 21.4697 32.8537 20.7738C33.7147 19.9735 34.3345 18.9643 34.92 17.9552C35.4366 17.0853 35.8154 16.1806 36.022 15.2063C36.1253 14.7539 36.3319 14.3363 36.4697 13.9188L36.6074 13.9536C36.6419 14.1624 36.6763 14.4059 36.6763 14.6495C36.6763 14.9975 36.6074 15.3803 36.5041 15.7282C36.0909 16.9113 35.7465 18.0944 35.2299 19.2427C34.5756 20.5998 33.5769 21.7133 32.3716 22.6528C31.9239 23.0008 31.3384 23.1748 30.9252 23.5227C30.4086 23.9403 29.8232 24.1491 29.2377 24.3231C28.9278 24.4275 28.6179 24.4623 28.3079 24.5319C28.5834 24.6362 28.8934 24.7058 29.2033 24.671C30.3398 24.6014 31.4762 24.5319 32.6127 24.3579C33.9902 24.1143 35.1266 23.3488 36.0909 22.3396C37.3306 21.0174 37.7783 19.3471 38.1916 17.6769C38.3982 16.8765 38.3638 15.9718 38.4327 15.1367C38.536 13.8144 38.6393 12.5269 38.7426 11.2046C38.7426 10.961 38.7426 10.7175 38.6737 10.4739Z" fill="url(#paint1_linear_1_755)"/>
<path d="M18.1832 17.7465C18.9408 17.9552 19.6985 18.3032 20.4216 18.5816C20.525 18.6164 20.6283 18.6164 20.7316 18.6164C20.2495 18.164 19.8362 17.7465 19.423 17.3637C18.9753 16.9809 18.4931 16.5634 18.0454 16.1806C17.3222 15.589 16.5646 14.9975 15.8759 14.3711C15.6348 14.1624 15.497 13.8144 15.2904 13.536L15.4282 13.4316L19.9395 17.1897C19.9051 16.9809 19.9051 16.7025 19.8707 16.459C19.5607 13.9536 18.562 12.8053 16.3235 12.3529C15.6004 12.2137 14.946 11.9354 14.2228 11.7266C13.9129 11.6222 13.603 11.483 13.2241 11.309C13.3963 11.9006 13.603 12.4225 13.7063 12.9445C14.3261 15.3803 15.7725 17.0157 18.1832 17.7465Z" fill="url(#paint2_linear_1_755)"/>
<path d="M12.2254 43.4614C10.8135 43.2874 9.50485 44.0877 8.12734 43.8442C9.40154 43.009 10.8824 42.8699 12.3976 42.6263C12.2254 42.4871 12.0877 42.2783 11.8811 42.2087C11.0546 41.8607 10.1247 41.826 9.26378 42.1391C8.3684 42.4523 7.6452 43.0438 6.99088 43.705C6.61207 44.0877 6.26769 44.4705 5.88888 44.8881C6.47432 44.9925 6.99088 45.0621 7.47301 45.2013C9.43597 45.6536 10.9512 44.9925 12.2254 43.4614Z" fill="url(#paint3_linear_1_755)"/>
<path d="M13.7407 45.758C13.4652 45.932 13.1208 46.0364 12.9142 46.2452C12.3976 46.7671 11.7433 46.8715 11.0546 47.0107C12.0877 46.0364 13.293 45.3056 14.5328 44.5749C12.8109 43.7398 10.1936 45.9668 9.9181 48.4374C10.538 48.2634 11.1579 48.159 11.7433 47.9502C12.3976 47.7414 13.0175 47.4631 13.603 47.1499C14.3606 46.7323 14.8083 45.6188 14.5328 44.8881C14.6017 45.584 14.0506 45.5492 13.7407 45.758Z" fill="url(#paint4_linear_1_755)"/>
<path d="M23.831 41.7216C23.85 41.7216 23.8654 40.5687 23.8654 39.1466C23.8654 37.7245 23.85 36.5716 23.831 36.5716C23.812 36.5716 23.7966 37.7245 23.7966 39.1466C23.7966 40.5687 23.812 41.7216 23.831 41.7216Z" fill="url(#paint5_linear_1_755)"/>
<path d="M13.8785 41.6172C13.8785 41.6172 18.3554 39.077 22.5568 41.6172L23.6932 42.7307C23.6932 42.7307 19.1819 39.2858 14.154 42.3131C14.1195 42.3131 12.742 42.1391 13.8785 41.6172Z" fill="url(#paint6_linear_1_755)"/>
<path d="M12.7764 44.5053C12.7764 44.5053 16.5646 40.9908 21.2137 42.5219L22.5568 43.357C22.5568 43.357 17.3911 41.0604 13.1553 45.1317C13.1553 45.0969 11.7778 45.236 12.7764 44.5053Z" fill="url(#paint7_linear_1_755)"/>
<path d="M38.8803 36.4324C39.6724 36.2932 40.2923 36.4324 40.8778 36.9892C41.0155 37.1284 41.1877 37.2327 41.3599 37.3371C42.8751 38.3115 44.8725 38.1027 46.1467 36.8152C46.8011 36.154 47.3865 35.4581 48.0408 34.7622C47.5243 34.5882 47.0421 34.449 46.5256 34.275C45.458 33.8922 44.3904 33.6487 43.254 33.7183C42.0142 33.7878 41.1877 34.449 40.4645 35.4233C42.2208 35.7713 43.9427 35.4929 45.6646 35.4581C45.4235 35.6321 45.148 35.8061 44.8725 35.8409C44.0116 35.9801 43.1162 36.154 42.2553 36.1193C40.9811 36.0845 39.7069 35.9105 38.4327 36.1193C38.0194 36.1888 37.5717 36.2584 37.1585 36.2932C37.1585 36.2584 37.124 36.2236 37.124 36.154C37.1929 36.0844 37.2962 36.0149 37.3651 35.9801C38.2949 35.3537 39.2936 34.797 40.1545 34.101C41.4632 33.0223 42.5308 31.7348 42.9785 29.995C43.0129 29.8558 43.0129 29.7514 43.0129 29.6122L42.9096 29.5774C42.7718 29.8558 42.6341 30.0994 42.4963 30.3429C41.8764 31.2129 41.3599 32.1524 40.6367 32.8831C39.0525 34.5534 37.0551 35.6669 34.9544 36.502C32.1994 37.5807 29.8232 39.1466 28.1013 41.652C27.6192 42.3827 27.2059 43.1482 26.7238 43.9138C27.2404 41.652 28.1702 39.6337 29.9265 38.1027C30.9596 37.2327 32.0961 36.4324 33.1981 35.5625C34.3345 34.6578 35.3677 33.6835 35.8498 32.2568C36.4008 30.5517 36.2286 29.0207 34.92 27.6636C34.2312 26.9676 33.6114 26.1673 32.957 25.4366C32.957 25.4366 32.8882 25.4366 32.8193 25.4366C32.8882 27.1416 32.3027 28.6379 31.3729 30.0298C30.3053 31.7 29.3411 33.4747 28.549 35.2841C27.9635 36.5716 27.3781 37.8591 26.8271 39.1814C26.7582 39.3902 26.6893 39.5989 26.6549 39.8077C26.7582 39.8077 26.8271 39.7381 26.8615 39.6685C27.7569 37.9635 28.9622 36.4672 30.3398 35.1449C30.8563 34.6578 31.3729 34.1358 31.855 33.5791C32.8193 32.396 33.267 30.9345 33.6114 29.4382C33.6802 29.1947 33.7491 28.9511 33.8524 28.5683C33.9213 28.7075 33.9557 28.8467 33.9902 28.9859C34.2312 30.8649 33.6458 32.7439 32.4405 34.1706C31.3729 35.4581 30.202 36.676 29.1689 37.9983C27.7914 39.7033 26.7238 41.5824 26.2072 43.7746C25.8628 45.3056 25.5529 46.8367 25.1741 48.3678C24.382 51.6387 23.0734 54.666 20.3528 56.8582C20.3183 56.893 20.3183 56.893 20.2839 56.9278C20.2495 56.9974 20.215 57.067 20.1462 57.1714C20.2495 57.1714 20.3183 57.1366 20.4216 57.1018C21.4203 56.4059 22.3502 55.5707 23.0734 54.5616C24.6231 52.5782 25.5529 50.2468 26.2761 47.8458C26.8615 45.9668 27.6192 44.1921 28.9622 42.7307C30.4431 41.0604 32.3716 40.5733 34.5067 40.8168C36.883 41.0952 38.9148 42.1739 40.9466 43.3222C41.0155 43.357 41.0844 43.3918 41.1877 43.4266L41.0844 43.531C41.0155 43.531 40.9466 43.531 40.8778 43.4962C39.8446 43.1482 38.8115 42.8351 37.8128 42.4871C36.2631 41.9651 34.7134 41.478 33.0603 41.6172C32.5093 41.652 31.9583 41.8259 31.4418 41.9303C31.4418 41.9651 31.4418 42.0347 31.4762 42.0695C31.8206 42.2087 32.1994 42.2783 32.5438 42.4175C34.0246 43.1482 35.5054 43.9486 37.0207 44.6793C38.5704 45.41 40.3267 45.584 41.9453 45.1317C43.6672 44.6793 45.148 43.7746 46.6633 42.9047C46.7322 42.8699 46.7666 42.7655 46.9044 42.6263L44.8037 42.3479C44.8381 42.5567 44.8381 42.6611 44.8725 42.8003C43.9083 42.6611 43.1506 42.2087 42.4275 41.6172C41.9109 41.1996 41.4287 40.7472 40.9122 40.3645C38.3982 38.5202 35.6087 38.1723 32.716 39.1814C31.614 39.5641 30.5808 40.1557 29.4788 40.6429C30.2364 39.9469 31.0285 39.1814 31.8895 38.6246C34.0591 37.4415 36.4353 36.7804 38.8803 36.4324Z" fill="url(#paint8_linear_1_755)"/>
<path d="M35.9187 45.0969C34.7478 44.5401 33.6114 43.9834 32.4405 43.4962C31.7173 43.2178 30.9596 43.0438 30.1331 43.3918C30.202 43.4266 30.3053 43.4614 30.3742 43.4962C31.3729 43.705 32.165 44.2617 32.8882 44.9925C33.3358 45.4796 33.7491 46.0016 34.2312 46.4191C35.8154 47.8806 38.536 48.1242 40.5678 46.3843C40.4645 46.3496 40.3612 46.3148 40.2579 46.3148C38.7082 46.1756 37.2618 45.758 35.9187 45.0969Z" fill="url(#paint9_linear_1_755)"/>
<path d="M45.8024 27.2112C44.9759 28.2203 43.805 28.9511 43.3573 30.2386C44.7692 30.2386 45.8023 29.5774 46.5944 28.4291C47.3176 27.42 47.5243 26.2021 47.9031 24.9494C46.8699 25.193 45.9401 25.3322 45.0447 25.6454C43.9083 26.0281 43.1851 26.8633 43.0473 28.1159C43.0129 28.4639 42.9785 28.8467 42.944 29.2295L43.0818 29.2642C43.9083 28.4639 44.5626 27.4548 45.8024 27.2112Z" fill="url(#paint10_linear_1_755)"/>
<path d="M39.2936 24.2883C39.0525 25.019 39.0525 25.8193 39.328 26.5153C39.6724 27.42 40.0512 28.3247 40.3956 29.1947V25.1234C40.8433 26.6545 41.0155 28.1507 40.4989 29.6818C40.3956 30.0298 40.3267 30.4125 40.2923 30.7953C40.2234 31.1433 40.1545 31.4913 40.1201 31.8392L40.3267 31.9088C40.7056 31.0389 41.1877 30.169 41.4632 29.2642C41.9798 27.768 41.842 26.1673 41.1188 24.7754C40.7056 23.9751 40.2923 23.1748 39.879 22.3744C39.7069 23.0008 39.5002 23.6619 39.2936 24.2883Z" fill="url(#paint11_linear_1_755)"/>
<path d="M30.8219 25.9237C30.6497 25.9237 30.5119 25.9585 30.3742 25.9933C30.0642 26.1325 29.7887 26.2717 29.5132 26.4457C28.5834 26.8981 27.7569 27.5244 27.1026 28.2899C26.7238 28.7075 26.4827 29.2295 26.4138 29.7862L27.9635 28.5335L28.1013 28.7075C27.7569 29.0555 27.3781 29.4034 27.0682 29.7862C26.7238 30.169 26.3105 30.4821 26.3794 31.1781C27.447 30.4821 28.4801 29.8558 29.3411 28.9859C30.0642 28.2203 30.6497 27.3852 30.8908 26.3413C30.8219 26.2021 30.8219 26.0629 30.8219 25.9237Z" fill="url(#paint12_linear_1_755)"/>
<path d="M30.1331 29.6122C28.549 30.8301 26.4827 31.4217 25.6562 33.4747L25.7251 33.5791L26.9304 33.1615C26.9648 33.1963 26.9648 33.2659 26.9993 33.3007L25.6218 34.3098C27.7914 34.623 29.8921 31.9784 30.1331 29.6122Z" fill="url(#paint13_linear_1_755)"/>
<path d="M24.0376 50.6992C25.2774 47.7066 25.2085 44.6097 25.0019 41.478L24.8641 41.4432C24.7953 41.9651 24.692 42.4871 24.692 42.9742C24.692 44.5749 24.7264 46.2104 24.4164 47.7762C23.6244 51.4299 21.868 54.4572 18.9408 56.7191C18.4587 57.1018 17.9077 57.415 17.3911 57.763L17.46 57.8673C17.9077 57.6238 18.4243 57.4498 18.8375 57.1714C21.317 55.6751 22.9356 53.4133 24.0376 50.6992Z" fill="url(#paint14_linear_1_755)"/>
<path d="M39.6035 30.9345C39.6035 30.343 39.7069 29.7514 39.5691 29.2295C39.2247 27.9768 38.777 26.7937 38.3638 25.541C37.0896 26.6197 37.8472 29.821 39.6035 30.9345Z" fill="url(#paint15_linear_1_755)"/>
<defs>
<linearGradient id="paint0_linear_1_755" x1="0" y1="28.9337" x2="48.0408" y2="28.9337" gradientUnits="userSpaceOnUse">
<stop stop-color="#00CABA"/>
<stop offset="1" stop-color="#01636D"/>
</linearGradient>
<linearGradient id="paint1_linear_1_755" x1="0.302708" y1="28.9666" x2="209.872" y2="28.9666" gradientUnits="userSpaceOnUse">
<stop stop-color="#00CABA"/>
<stop offset="1" stop-color="#01636D"/>
</linearGradient>
<linearGradient id="paint2_linear_1_755" x1="0.180446" y1="28.9956" x2="209.682" y2="28.9956" gradientUnits="userSpaceOnUse">
<stop stop-color="#00CABA"/>
<stop offset="1" stop-color="#01636D"/>
</linearGradient>
<linearGradient id="paint3_linear_1_755" x1="1.20059" y1="28.8714" x2="210.383" y2="28.8714" gradientUnits="userSpaceOnUse">
<stop stop-color="#00CABA"/>
<stop offset="1" stop-color="#01636D"/>
</linearGradient>
<linearGradient id="paint4_linear_1_755" x1="-0.0207063" y1="29.1075" x2="210.417" y2="29.1075" gradientUnits="userSpaceOnUse">
<stop stop-color="#00CABA"/>
<stop offset="1" stop-color="#01636D"/>
</linearGradient>
<linearGradient id="paint5_linear_1_755" x1="40.8019" y1="28.7912" x2="171.627" y2="28.7912" gradientUnits="userSpaceOnUse">
<stop stop-color="#00CABA"/>
<stop offset="1" stop-color="#01636D"/>
</linearGradient>
<linearGradient id="paint6_linear_1_755" x1="-0.0763956" y1="29.1662" x2="209.082" y2="29.1662" gradientUnits="userSpaceOnUse">
<stop stop-color="#00CABA"/>
<stop offset="1" stop-color="#01636D"/>
</linearGradient>
<linearGradient id="paint7_linear_1_755" x1="0.0871969" y1="48.8138" x2="204.851" y2="-1.8689" gradientUnits="userSpaceOnUse">
<stop stop-color="#00CABA"/>
<stop offset="1" stop-color="#01636D"/>
</linearGradient>
<linearGradient id="paint8_linear_1_755" x1="0.691632" y1="29.115" x2="209.75" y2="29.115" gradientUnits="userSpaceOnUse">
<stop stop-color="#AF7B34"/>
<stop offset="1" stop-color="#F4DB87"/>
</linearGradient>
<linearGradient id="paint9_linear_1_755" x1="-0.746586" y1="28.9652" x2="209.082" y2="28.9652" gradientUnits="userSpaceOnUse">
<stop stop-color="#AF7B34"/>
<stop offset="1" stop-color="#F4DB87"/>
</linearGradient>
<linearGradient id="paint10_linear_1_755" x1="1.56175" y1="29.297" x2="210.668" y2="29.297" gradientUnits="userSpaceOnUse">
<stop stop-color="#AF7B34"/>
<stop offset="1" stop-color="#F4DB87"/>
</linearGradient>
<linearGradient id="paint11_linear_1_755" x1="-1.82746" y1="28.8594" x2="209.307" y2="28.8594" gradientUnits="userSpaceOnUse">
<stop stop-color="#AF7B34"/>
<stop offset="1" stop-color="#F4DB87"/>
</linearGradient>
<linearGradient id="paint12_linear_1_755" x1="-2.13124" y1="29.0558" x2="206.877" y2="29.0558" gradientUnits="userSpaceOnUse">
<stop stop-color="#AF7B34"/>
<stop offset="1" stop-color="#F4DB87"/>
</linearGradient>
<linearGradient id="paint13_linear_1_755" x1="-0.431963" y1="28.9574" x2="209.913" y2="28.9574" gradientUnits="userSpaceOnUse">
<stop stop-color="#AF7B34"/>
<stop offset="1" stop-color="#F4DB87"/>
</linearGradient>
<linearGradient id="paint14_linear_1_755" x1="-0.624789" y1="29.0638" x2="209.892" y2="29.0638" gradientUnits="userSpaceOnUse">
<stop stop-color="#AF7B34"/>
<stop offset="1" stop-color="#F4DB87"/>
</linearGradient>
<linearGradient id="paint15_linear_1_755" x1="0.488139" y1="28.9943" x2="209.068" y2="28.9943" gradientUnits="userSpaceOnUse">
<stop stop-color="#AF7B34"/>
<stop offset="1" stop-color="#F4DB87"/>
</linearGradient>
</defs>
</svg>
