<svg width="80" height="11" viewBox="0 0 80 11" fill="none" xmlns="http://www.w3.org/2000/svg">
<path fill-rule="evenodd" clip-rule="evenodd" d="M79.8119 5.04912L74.9701 0.188696C74.8466 0.0635609 74.6795 0 74.5123 0C74.3508 0 74.1837 0.0635609 74.0602 0.188696L74.0412 0.208559C73.9311 0.329722 73.8741 0.484652 73.8741 0.637595C73.876 0.790538 73.9311 0.943481 74.0412 1.06266C75.3063 2.32394 76.5638 3.59715 77.8251 4.86439H0.640137C0.461582 4.86439 0.298224 4.93788 0.182354 5.05309C0.0702821 5.16829 0 5.32719 0 5.5C0 5.67281 0.0702821 5.83171 0.182354 5.94493C0.298224 6.06212 0.461582 6.13362 0.640137 6.13362H77.8251C76.5638 7.40087 75.2968 8.66215 74.0412 9.93536C73.9311 10.0545 73.876 10.2075 73.876 10.3604C73.8741 10.5134 73.9311 10.6683 74.0412 10.7895L74.0602 10.8093C74.1837 10.9364 74.3489 11 74.5123 11C74.6776 11 74.8447 10.9364 74.9701 10.8093L79.8366 5.92308C79.9449 5.8039 80 5.64897 80 5.49801C79.9981 5.34706 79.9449 5.19411 79.8366 5.07692L79.8119 5.04912Z" fill="#DAD2C9"/>
</svg>
