<svg width="20" height="20" viewBox="0 0 20 20" fill="none" xmlns="http://www.w3.org/2000/svg">
<path fill-rule="evenodd" clip-rule="evenodd" d="M19.9994 9.51708C19.9994 14.7747 15.7064 19.0342 10.4073 19.0342C8.72631 19.0342 7.14617 18.6049 5.77033 17.8497L0.460938 19.5385L2.19108 14.4308C1.31696 12.9955 0.815242 11.3145 0.815242 9.51708C0.815242 4.25941 5.11086 0 10.4073 0C15.7064 0 19.9994 4.262 19.9994 9.51708ZM10.4073 1.51549C5.95912 1.51549 2.34366 5.10509 2.34366 9.51708C2.34366 11.2679 2.91521 12.8894 3.87984 14.2084L2.87124 17.1799L5.96947 16.1946C7.24186 17.0299 8.76769 17.5187 10.4073 17.5187C14.8529 17.5187 18.471 13.9291 18.471 9.51708C18.471 5.10509 14.8529 1.51549 10.4073 1.51549ZM15.2512 11.7101C15.1917 11.6145 15.0366 11.555 14.8012 11.4386C14.5659 11.3222 13.4099 10.7584 13.1952 10.6809C12.9806 10.6033 12.8228 10.5645 12.665 10.7972C12.5073 11.03 12.0573 11.555 11.9202 11.7127C11.7832 11.8679 11.6461 11.8886 11.4108 11.7722C11.1754 11.6558 10.4177 11.4102 9.52027 10.6136C8.822 9.99552 8.34873 9.2326 8.21167 8.99726C8.0746 8.76451 8.19874 8.63778 8.31511 8.52141C8.42115 8.41796 8.55046 8.24986 8.66683 8.11279C8.7858 7.97573 8.82459 7.88004 8.90217 7.72228C8.98234 7.56711 8.94097 7.43005 8.88148 7.31367C8.822 7.19729 8.35132 6.04904 8.15736 5.58094C7.96081 5.11284 7.76685 5.19302 7.62978 5.19302C7.49271 5.19302 7.33496 5.17233 7.17979 5.17233C7.02203 5.17233 6.76859 5.23181 6.55135 5.46456C6.3367 5.69732 5.72895 6.26369 5.72895 7.40936C5.72895 8.55761 6.57204 9.66708 6.68842 9.82225C6.8048 9.97742 8.31511 12.411 10.7047 13.3446C13.0943 14.2782 13.0943 13.9679 13.5262 13.9265C13.9581 13.8877 14.9176 13.3627 15.1141 12.817C15.3107 12.2713 15.3107 11.8058 15.2512 11.7076V11.7101Z" fill="#4A605F"/>
</svg>
