<svg width="15" height="11" viewBox="0 0 15 11" fill="none" xmlns="http://www.w3.org/2000/svg">
<path fill-rule="evenodd" clip-rule="evenodd" d="M13.5938 0H1.40625C0.630797 0 0 0.616779 0 1.375V9.625C0 10.3832 0.630797 11 1.40625 11H13.5938C14.3692 11 15 10.3832 15 9.625V1.375C15 0.616779 14.3692 0 13.5938 0ZM13.5938 0.916667C13.6575 0.916667 13.718 0.929577 13.7734 0.952145L7.5 6.26856L1.22654 0.952145C1.28194 0.92963 1.34254 0.916667 1.4062 0.916667H13.5938ZM13.5938 10.0833H1.40625C1.14764 10.0833 0.9375 9.87792 0.9375 9.625V1.92061L7.19287 7.22144C7.28122 7.29617 7.39061 7.33333 7.50005 7.33333C7.60945 7.33333 7.71884 7.29617 7.80724 7.22144L14.0626 1.92061V9.62505C14.0626 9.87791 13.8524 10.0833 13.5938 10.0833Z" fill="#00A9A2"/>
</svg>
