<svg xmlns="http://www.w3.org/2000/svg" width="22" height="23" viewBox="0 0 22 23" fill="none">
  <path d="M12.52 15.8993C12.4899 15.8832 12.4595 15.8671 12.4289 15.8509C12.2772 15.7707 12.1197 15.6874 11.9709 15.586C10.5232 14.6243 9.20868 13.3755 7.9607 11.7654L12.52 15.8993ZM12.52 15.8993C12.6864 15.9863 12.8403 16.069 12.9776 16.1604L12.52 15.8993ZM4.93553 15.0528L4.93576 15.0531C6.92883 17.5452 9.3291 19.5086 12.0694 20.898L12.0706 20.8986C13.1099 21.4137 14.5173 22.0344 16.0916 22.141L16.0915 22.141L16.0949 22.1411L16.1074 22.1417C16.1981 22.1458 16.2892 22.15 16.3846 22.15C17.4617 22.15 18.334 21.7585 19.0404 20.9577C19.0448 20.9531 19.0584 20.9387 19.0709 20.9191C19.2888 20.6451 19.5347 20.3957 19.7991 20.1273C19.8182 20.108 19.8373 20.0886 19.8565 20.0691C20.0526 19.8727 20.2538 19.6667 20.447 19.4557C20.9118 18.949 21.1511 18.3655 21.15 17.7783C21.1489 17.1907 20.9071 16.6141 20.4366 16.122L17.9384 13.5089C17.9381 13.5085 17.9378 13.5082 17.9375 13.5078C17.4903 13.0222 16.9451 12.7555 16.3638 12.7555C15.7823 12.7555 15.2334 13.0223 14.7744 13.5024L13.367 14.9747C13.2597 14.9137 13.1527 14.8578 13.0529 14.8056L13.0513 14.8047C12.8847 14.7176 12.7372 14.6382 12.6073 14.5517L12.6071 14.5516C11.267 13.6614 10.0473 12.4987 8.87841 10.9996C8.31699 10.2562 7.9352 9.63138 7.66496 9.00461C8.03137 8.65322 8.37571 8.2886 8.70679 7.93413L8.70728 7.93361C8.8311 7.79977 8.9592 7.66577 9.08831 7.53071C9.55893 7.03842 9.82043 6.45887 9.82043 5.86055C9.82043 5.26288 9.56362 4.68314 9.08812 4.19018C9.08802 4.19008 9.08792 4.18998 9.08783 4.18988L7.84865 2.89365C7.70775 2.74627 7.57462 2.60291 7.43701 2.45473L7.42587 2.44273C7.42585 2.44272 7.42584 2.4427 7.42582 2.44268C7.15154 2.14708 6.86277 1.84058 6.57735 1.56388C6.1257 1.10127 5.58576 0.85 5.00715 0.85C4.43185 0.85 3.88791 1.10197 3.4203 1.56825L3.42027 1.56822L3.41779 1.57082L1.86198 3.19825C1.27203 3.81536 0.937527 4.56587 0.868257 5.43084L0.86821 5.43144C0.787134 6.49825 0.975743 7.62501 1.45458 8.97393C2.18907 11.0593 3.29641 12.9927 4.93553 15.0528ZM18.8868 19.1554C18.6122 19.4341 18.3225 19.7283 18.0586 20.0583L11.8872 15.7105C12.0434 15.8168 12.2093 15.9045 12.3608 15.9846C12.3909 16.0005 12.4204 16.0162 12.4492 16.0316L12.4505 16.0322C12.617 16.1193 12.7645 16.1987 12.8945 16.2852L12.901 16.2896L12.9081 16.2933C12.9121 16.2954 12.9159 16.2976 12.9235 16.3022L12.9243 16.3027C12.931 16.3067 12.9407 16.3125 12.9522 16.3185C13.1086 16.4029 13.266 16.4453 13.4268 16.4453C13.8275 16.4453 14.0826 16.1789 14.1551 16.103L15.7109 14.4756C15.9349 14.2413 16.1604 14.1347 16.3638 14.1347C16.6152 14.1347 16.8354 14.2997 16.9879 14.4715L16.9878 14.4716L16.9917 14.4757L19.5001 17.0952C19.7309 17.3366 19.8315 17.5729 19.8298 17.7992C19.8281 18.0266 19.7229 18.2721 19.4855 18.5305L19.4841 18.5321C19.3123 18.7247 19.1316 18.9094 18.9366 19.1047L18.9358 19.1055C18.9195 19.1221 18.9032 19.1387 18.8868 19.1554Z" fill="#00A9A2" stroke="#00A9A2" stroke-width="0.3"/>
</svg>
