<svg width="15" height="15" viewBox="0 0 15 15" fill="none" xmlns="http://www.w3.org/2000/svg">
<path d="M7.5 0C6.01664 0 4.56659 0.439867 3.33323 1.26398C2.09986 2.08809 1.13856 3.25943 0.570907 4.62987C0.00324966 6.00032 -0.145275 7.50832 0.144114 8.96318C0.433503 10.418 1.14781 11.7544 2.1967 12.8033C3.2456 13.8522 4.58197 14.5665 6.03682 14.8559C7.49168 15.1453 8.99968 14.9968 10.3701 14.4291C11.7406 13.8614 12.9119 12.9001 13.736 11.6668C14.5601 10.4334 15 8.98336 15 7.5C14.9977 5.5116 14.2067 3.6053 12.8007 2.19929C11.3947 0.793275 9.4884 0.00234578 7.5 0ZM7.5 13.6364C6.28634 13.6364 5.09994 13.2765 4.09082 12.6022C3.0817 11.9279 2.29519 10.9696 1.83074 9.84828C1.3663 8.72701 1.24477 7.49319 1.48155 6.30285C1.71832 5.11252 2.30275 4.01912 3.16094 3.16093C4.01912 2.30275 5.11252 1.71832 6.30286 1.48154C7.49319 1.24477 8.72701 1.36629 9.84829 1.83074C10.9696 2.29519 11.9279 3.0817 12.6022 4.09082C13.2765 5.09994 13.6364 6.28634 13.6364 7.5C13.6344 9.12685 12.9872 10.6865 11.8369 11.8369C10.6865 12.9872 9.12686 13.6344 7.5 13.6364Z" fill="#00A9A2"/>
<path d="M8.18182 7.21773V3.40909C8.18182 3.22826 8.10999 3.05484 7.98212 2.92697C7.85425 2.79911 7.68083 2.72727 7.5 2.72727C7.31917 2.72727 7.14575 2.79911 7.01788 2.92697C6.89002 3.05484 6.81818 3.22826 6.81818 3.40909V7.5C6.81822 7.68081 6.89008 7.85421 7.01796 7.98204L9.06341 10.0275C9.192 10.1517 9.36423 10.2204 9.543 10.2189C9.72177 10.2173 9.89278 10.1456 10.0192 10.0192C10.1456 9.89278 10.2173 9.72177 10.2189 9.543C10.2204 9.36423 10.1517 9.192 10.0275 9.06341L8.18182 7.21773Z" fill="#00A9A2"/>
</svg>
